<svg xmlns="http://www.w3.org/2000/svg" viewBox="0 0 1280 378" font-family="Segoe UI, Helvetica, Arial, sans-serif">
  <defs>
    <marker id="arrow" markerWidth="10" markerHeight="7" refX="10" refY="3.5" orient="auto">
      <polygon points="0 0, 10 3.5, 0 7" fill="#333" />
    </marker>
    <marker id="arrow-gray" markerWidth="10" markerHeight="7" refX="10" refY="3.5" orient="auto">
      <polygon points="0 0, 10 3.5, 0 7" fill="#999" />
    </marker>
    <filter id="shadow" x="-4%" y="-4%" width="108%" height="108%">
      <feDropShadow dx="1" dy="2" stdDeviation="2" flood-opacity="0.12" />
    </filter>
  </defs>
  <rect width="1280" height="378" fill="#fafafa" rx="8" />
  <line x1="600" y1="86" x2="167.96714565174162" y2="125.27571403165985" stroke="#555" stroke-width="1.5" marker-end="url(#arrow)" />
  <text x="380" y="102" text-anchor="middle" font-size="9" fill="#777">Analytics, columnar scans</text>
  <line x1="600" y1="86" x2="467.69219158112656" y2="123.80223097682098" stroke="#555" stroke-width="1.5" marker-end="url(#arrow)" />
  <text x="530" y="102" text-anchor="middle" font-size="9" fill="#777">Row-level reads/writes</text>
  <line x1="600" y1="86" x2="752.2388599988374" y2="124.05971499970934" stroke="#555" stroke-width="1.5" marker-end="url(#arrow)" />
  <text x="680" y="102" text-anchor="middle" font-size="9" fill="#777">Schema evolution + ACID</text>
  <line x1="600" y1="86" x2="1052.0300752944345" y2="125.30696306908126" stroke="#555" stroke-width="1.5" marker-end="url(#arrow)" />
  <text x="830" y="102" text-anchor="middle" font-size="9" fill="#777">Human readable</text>
  <line x1="160" y1="182" x2="292.30780841887344" y2="219.80223097682097" stroke="#555" stroke-width="1.5" marker-end="url(#arrow)" />
  <line x1="160" y1="182" x2="292.30780841887344" y2="219.80223097682097" stroke="#555" stroke-width="1.5" marker-end="url(#arrow)" />
  <line x1="760" y1="182" x2="607.7611400011626" y2="220.05971499970934" stroke="#555" stroke-width="1.5" marker-end="url(#arrow)" />
  <line x1="760" y1="182" x2="607.7611400011626" y2="220.05971499970934" stroke="#555" stroke-width="1.5" marker-end="url(#arrow)" />
  <g filter="url(#shadow)">
    <rect x="180" y="30" width="240" height="56" rx="8" fill="#dae8fc" stroke="#6c8ebf" stroke-width="1.5" />
    <text x="300" y="63" text-anchor="middle" font-size="13" font-weight="bold" fill="#1a1a1a">Data Engineer chooses format</text>
  </g>
  <g filter="url(#shadow)">
    <rect x="480" y="30" width="240" height="56" rx="8" fill="#d5e8d4" stroke="#82b366" stroke-width="1.5" />
    <text x="600" y="63" text-anchor="middle" font-size="13" font-weight="bold" fill="#1a1a1a">Access pattern?</text>
  </g>
  <g filter="url(#shadow)">
    <rect x="40" y="126" width="240" height="56" rx="8" fill="#fff2cc" stroke="#d6b656" stroke-width="1.5" />
    <text x="160" y="159" text-anchor="middle" font-size="13" font-weight="bold" fill="#1a1a1a">Parquet or ORC</text>
  </g>
  <g filter="url(#shadow)">
    <rect x="340" y="126" width="240" height="56" rx="8" fill="#e1d5e7" stroke="#9673a6" stroke-width="1.5" />
    <text x="460" y="159" text-anchor="middle" font-size="13" font-weight="bold" fill="#1a1a1a">Avro or JSON</text>
  </g>
  <g filter="url(#shadow)">
    <rect x="640" y="126" width="240" height="56" rx="8" fill="#f8cecc" stroke="#b85450" stroke-width="1.5" />
    <text x="760" y="159" text-anchor="middle" font-size="13" font-weight="bold" fill="#1a1a1a">Delta Lake or Iceberg</text>
  </g>
  <g filter="url(#shadow)">
    <rect x="940" y="126" width="240" height="56" rx="8" fill="#d0e0e3" stroke="#56839b" stroke-width="1.5" />
    <text x="1060" y="159" text-anchor="middle" font-size="13" font-weight="bold" fill="#1a1a1a">CSV or JSON</text>
  </g>
  <g filter="url(#shadow)">
    <rect x="180" y="222" width="240" height="56" rx="8" fill="#fce5cd" stroke="#d79b00" stroke-width="1.5" />
    <text x="300" y="255" text-anchor="middle" font-size="13" font-weight="bold" fill="#1a1a1a">Best for: Spark, Snowflake, Athena</text>
  </g>
  <g filter="url(#shadow)">
    <rect x="480" y="222" width="240" height="56" rx="8" fill="#f5f5f5" stroke="#999999" stroke-width="1.5" />
    <text x="600" y="255" text-anchor="middle" font-size="13" font-weight="bold" fill="#1a1a1a">Best for: Lakehouses, CDC pipelines</text>
  </g>
</svg>