<svg xmlns="http://www.w3.org/2000/svg" viewBox="0 0 1880 378" font-family="Segoe UI, Helvetica, Arial, sans-serif">
  <defs>
    <marker id="arrow" markerWidth="10" markerHeight="7" refX="10" refY="3.5" orient="auto">
      <polygon points="0 0, 10 3.5, 0 7" fill="#333" />
    </marker>
    <marker id="arrow-gray" markerWidth="10" markerHeight="7" refX="10" refY="3.5" orient="auto">
      <polygon points="0 0, 10 3.5, 0 7" fill="#999" />
    </marker>
    <filter id="shadow" x="-4%" y="-4%" width="108%" height="108%">
      <feDropShadow dx="1" dy="2" stdDeviation="2" flood-opacity="0.12" />
    </filter>
  </defs>
  <rect width="1880" height="378" fill="#fafafa" rx="8" />
  <rect x="25" y="0" width="570" height="197" rx="8" fill="#f0f4ff" stroke="#b0c4de" stroke-width="1" stroke-dasharray="6,3" />
  <text x="35" y="16" font-size="11" font-weight="bold" fill="#b0c4de">Data Lake (old)</text>
  <rect x="325" y="0" width="870" height="197" rx="8" fill="#f0fff0" stroke="#90b090" stroke-width="1" stroke-dasharray="6,3" />
  <text x="335" y="16" font-size="11" font-weight="bold" fill="#90b090">Data Warehouse (old)</text>
  <rect x="25" y="0" width="1770" height="293" rx="8" fill="#fffaf0" stroke="#d0b880" stroke-width="1" stroke-dasharray="6,3" />
  <text x="35" y="16" font-size="11" font-weight="bold" fill="#d0b880">Lakehouse (now)</text>
  <line x1="460" y1="86" x2="167.92982320546108" y2="124.94269023927185" stroke="#555" stroke-width="1.5" marker-end="url(#arrow)" />
  <line x1="460" y1="86" x2="167.92982320546108" y2="124.94269023927185" stroke="#555" stroke-width="1.5" marker-end="url(#arrow)" />
  <line x1="1060" y1="86" x2="467.9822812628529" y2="125.46784791580981" stroke="#555" stroke-width="1.5" marker-end="url(#arrow)" />
  <line x1="1060" y1="86" x2="467.9822812628529" y2="125.46784791580981" stroke="#555" stroke-width="1.5" marker-end="url(#arrow)" />
  <line x1="1660" y1="86" x2="767.9921104517297" y2="125.64479509103424" stroke="#555" stroke-width="1.5" marker-end="url(#arrow)" />
  <line x1="1660" y1="86" x2="767.9921104517297" y2="125.64479509103424" stroke="#555" stroke-width="1.5" marker-end="url(#arrow)" />
  <line x1="760" y1="182" x2="167.98228126285287" y2="221.4678479158098" stroke="#555" stroke-width="1.5" marker-end="url(#arrow)" />
  <line x1="760" y1="182" x2="167.98228126285287" y2="221.4678479158098" stroke="#555" stroke-width="1.5" marker-end="url(#arrow)" />
  <line x1="760" y1="182" x2="467.92982320546105" y2="220.94269023927185" stroke="#555" stroke-width="1.5" marker-end="url(#arrow)" />
  <line x1="760" y1="182" x2="467.92982320546105" y2="220.94269023927185" stroke="#555" stroke-width="1.5" marker-end="url(#arrow)" />
  <line x1="760" y1="182" x2="760.0" y2="214.0" stroke="#555" stroke-width="1.5" marker-end="url(#arrow)" />
  <line x1="760" y1="182" x2="760.0" y2="214.0" stroke="#555" stroke-width="1.5" marker-end="url(#arrow)" />
  <g filter="url(#shadow)">
    <rect x="40" y="30" width="240" height="56" rx="8" fill="#dae8fc" stroke="#6c8ebf" stroke-width="1.5" />
    <text x="160" y="63" text-anchor="middle" font-size="13" font-weight="bold" fill="#1a1a1a">Object Storage</text>
  </g>
  <g filter="url(#shadow)">
    <rect x="340" y="30" width="240" height="56" rx="8" fill="#dae8fc" stroke="#6c8ebf" stroke-width="1.5" />
    <text x="460" y="52" text-anchor="middle" font-size="13" font-weight="bold" fill="#1a1a1a">Raw Files</text>
    <text x="460" y="70" text-anchor="middle" font-size="10" fill="#555">Parquet/CSV</text>
  </g>
  <g filter="url(#shadow)">
    <rect x="40" y="126" width="240" height="56" rx="8" fill="#dae8fc" stroke="#6c8ebf" stroke-width="1.5" />
    <text x="160" y="148" text-anchor="middle" font-size="13" font-weight="bold" fill="#1a1a1a">Limitations</text>
    <text x="160" y="166" text-anchor="middle" font-size="10" fill="#555">No ACID, No schema enforcement, No tim...</text>
  </g>
  <g filter="url(#shadow)">
    <rect x="640" y="30" width="240" height="56" rx="8" fill="#d5e8d4" stroke="#82b366" stroke-width="1.5" />
    <text x="760" y="63" text-anchor="middle" font-size="13" font-weight="bold" fill="#1a1a1a">Proprietary Storage</text>
  </g>
  <g filter="url(#shadow)">
    <rect x="940" y="30" width="240" height="56" rx="8" fill="#d5e8d4" stroke="#82b366" stroke-width="1.5" />
    <text x="1060" y="63" text-anchor="middle" font-size="13" font-weight="bold" fill="#1a1a1a">Managed Tables</text>
  </g>
  <g filter="url(#shadow)">
    <rect x="340" y="126" width="240" height="56" rx="8" fill="#d5e8d4" stroke="#82b366" stroke-width="1.5" />
    <text x="460" y="148" text-anchor="middle" font-size="13" font-weight="bold" fill="#1a1a1a">Tradeoffs</text>
    <text x="460" y="166" text-anchor="middle" font-size="10" fill="#555">ACID, Fast BI, Expensive, Closed, No ML</text>
  </g>
  <g filter="url(#shadow)">
    <rect x="1240" y="30" width="240" height="56" rx="8" fill="#fff2cc" stroke="#d6b656" stroke-width="1.5" />
    <text x="1360" y="63" text-anchor="middle" font-size="13" font-weight="bold" fill="#1a1a1a">Object Storage</text>
  </g>
  <g filter="url(#shadow)">
    <rect x="1540" y="30" width="240" height="56" rx="8" fill="#fff2cc" stroke="#d6b656" stroke-width="1.5" />
    <text x="1660" y="52" text-anchor="middle" font-size="13" font-weight="bold" fill="#1a1a1a">Open Table Format</text>
    <text x="1660" y="70" text-anchor="middle" font-size="10" fill="#555">Delta Lake, Iceberg, Hudi</text>
  </g>
  <g filter="url(#shadow)">
    <rect x="640" y="126" width="240" height="56" rx="8" fill="#fff2cc" stroke="#d6b656" stroke-width="1.5" />
    <text x="760" y="148" text-anchor="middle" font-size="13" font-weight="bold" fill="#1a1a1a">Lakehouse Features</text>
    <text x="760" y="166" text-anchor="middle" font-size="10" fill="#555">ACID Transactions, Schema Enforcement,...</text>
  </g>
  <g filter="url(#shadow)">
    <rect x="40" y="222" width="240" height="56" rx="8" fill="#fff2cc" stroke="#d6b656" stroke-width="1.5" />
    <text x="160" y="244" text-anchor="middle" font-size="13" font-weight="bold" fill="#1a1a1a">Databricks SQL</text>
    <text x="160" y="262" text-anchor="middle" font-size="10" fill="#555">BI Queries</text>
  </g>
  <g filter="url(#shadow)">
    <rect x="340" y="222" width="240" height="56" rx="8" fill="#fff2cc" stroke="#d6b656" stroke-width="1.5" />
    <text x="460" y="244" text-anchor="middle" font-size="13" font-weight="bold" fill="#1a1a1a">Spark / Python</text>
    <text x="460" y="262" text-anchor="middle" font-size="10" fill="#555">ML + DS</text>
  </g>
  <g filter="url(#shadow)">
    <rect x="640" y="222" width="240" height="56" rx="8" fill="#fff2cc" stroke="#d6b656" stroke-width="1.5" />
    <text x="760" y="244" text-anchor="middle" font-size="13" font-weight="bold" fill="#1a1a1a">Snowflake</text>
    <text x="760" y="262" text-anchor="middle" font-size="10" fill="#555">via Iceberg External Tables</text>
  </g>
</svg>