<svg xmlns="http://www.w3.org/2000/svg" viewBox="0 0 980 676" font-family="Segoe UI, Helvetica, Arial, sans-serif">
  <defs>
    <marker id="arrow" markerWidth="10" markerHeight="7" refX="10" refY="3.5" orient="auto">
      <polygon points="0 0, 10 3.5, 0 7" fill="#333" />
    </marker>
    <marker id="arrow-gray" markerWidth="10" markerHeight="7" refX="10" refY="3.5" orient="auto">
      <polygon points="0 0, 10 3.5, 0 7" fill="#999" />
    </marker>
    <filter id="shadow" x="-4%" y="-4%" width="108%" height="108%">
      <feDropShadow dx="1" dy="2" stdDeviation="2" flood-opacity="0.12" />
    </filter>
  </defs>
  <rect width="980" height="676" fill="#fafafa" rx="8" />
  <rect x="25" y="10" width="870" height="285" rx="8" fill="#f0f4ff" stroke="#b0c4de" stroke-width="1" stroke-dasharray="6,3" />
  <text x="35" y="26" font-size="11" font-weight="bold" fill="#b0c4de">Batch</text>
  <rect x="25" y="202" width="870" height="197" rx="8" fill="#f0fff0" stroke="#90b090" stroke-width="1" stroke-dasharray="6,3" />
  <text x="35" y="218" font-size="11" font-weight="bold" fill="#90b090">Micro-batch</text>
  <rect x="25" y="338" width="570" height="253" rx="8" fill="#fffaf0" stroke="#d0b880" stroke-width="1" stroke-dasharray="6,3" />
  <text x="35" y="354" font-size="11" font-weight="bold" fill="#d0b880">Streaming</text>
  <line x1="280" y1="164" x2="333.3435976452972" y2="199.56239843019816" stroke="#555" stroke-width="1.5" marker-end="url(#arrow)" />
  <text x="310" y="180" text-anchor="middle" font-size="9" fill="#777">process</text>
  <line x1="580" y1="204" x2="633.7530495244557" y2="247.0024396195646" stroke="#555" stroke-width="1.5" marker-end="url(#arrow)" />
  <text x="610" y="224" text-anchor="middle" font-size="9" fill="#777">latency: hours</text>
  <line x1="280" y1="356" x2="334.15155785405705" y2="305.4585460028801" stroke="#555" stroke-width="1.5" marker-end="url(#arrow)" />
  <text x="310" y="324" text-anchor="middle" font-size="9" fill="#777">process</text>
  <line x1="580" y1="300" x2="633.7530495244557" y2="343.0024396195646" stroke="#555" stroke-width="1.5" marker-end="url(#arrow)" />
  <text x="610" y="320" text-anchor="middle" font-size="9" fill="#777">latency: seconds</text>
  <line x1="280" y1="548" x2="337.0626677221116" y2="403.4412417706506" stroke="#555" stroke-width="1.5" marker-end="url(#arrow)" />
  <text x="310" y="468" text-anchor="middle" font-size="9" fill="#777">latency: ms</text>
  <g filter="url(#shadow)">
    <rect x="40" y="40" width="240" height="56" rx="8" fill="#dae8fc" stroke="#6c8ebf" stroke-width="1.5" />
    <text x="160" y="73" text-anchor="middle" font-size="13" font-weight="bold" fill="#1a1a1a">Source</text>
  </g>
  <g filter="url(#shadow)">
    <rect x="40" y="136" width="240" height="56" rx="8" fill="#dae8fc" stroke="#6c8ebf" stroke-width="1.5" />
    <text x="160" y="169" text-anchor="middle" font-size="13" font-weight="bold" fill="#1a1a1a">Full Dataset</text>
  </g>
  <g filter="url(#shadow)">
    <rect x="340" y="176" width="240" height="56" rx="8" fill="#dae8fc" stroke="#6c8ebf" stroke-width="1.5" />
    <text x="460" y="209" text-anchor="middle" font-size="13" font-weight="bold" fill="#1a1a1a">Output</text>
  </g>
  <g filter="url(#shadow)">
    <rect x="640" y="224" width="240" height="56" rx="8" fill="#dae8fc" stroke="#6c8ebf" stroke-width="1.5" />
    <text x="760" y="257" text-anchor="middle" font-size="13" font-weight="bold" fill="#1a1a1a">Consumer</text>
  </g>
  <g filter="url(#shadow)">
    <rect x="40" y="232" width="240" height="56" rx="8" fill="#d5e8d4" stroke="#82b366" stroke-width="1.5" />
    <text x="160" y="265" text-anchor="middle" font-size="13" font-weight="bold" fill="#1a1a1a">Source</text>
  </g>
  <g filter="url(#shadow)">
    <rect x="40" y="328" width="240" height="56" rx="8" fill="#d5e8d4" stroke="#82b366" stroke-width="1.5" />
    <text x="160" y="361" text-anchor="middle" font-size="13" font-weight="bold" fill="#1a1a1a">Mini Dataset</text>
  </g>
  <g filter="url(#shadow)">
    <rect x="340" y="272" width="240" height="56" rx="8" fill="#d5e8d4" stroke="#82b366" stroke-width="1.5" />
    <text x="460" y="305" text-anchor="middle" font-size="13" font-weight="bold" fill="#1a1a1a">Output</text>
  </g>
  <g filter="url(#shadow)">
    <rect x="640" y="320" width="240" height="56" rx="8" fill="#d5e8d4" stroke="#82b366" stroke-width="1.5" />
    <text x="760" y="353" text-anchor="middle" font-size="13" font-weight="bold" fill="#1a1a1a">Consumer</text>
  </g>
  <g filter="url(#shadow)">
    <rect x="40" y="424" width="240" height="56" rx="8" fill="#fff2cc" stroke="#d6b656" stroke-width="1.5" />
    <text x="160" y="457" text-anchor="middle" font-size="13" font-weight="bold" fill="#1a1a1a">Source</text>
  </g>
  <g filter="url(#shadow)">
    <rect x="40" y="520" width="240" height="56" rx="8" fill="#fff2cc" stroke="#d6b656" stroke-width="1.5" />
    <text x="160" y="553" text-anchor="middle" font-size="13" font-weight="bold" fill="#1a1a1a">Process</text>
  </g>
  <g filter="url(#shadow)">
    <rect x="340" y="368" width="240" height="56" rx="8" fill="#fff2cc" stroke="#d6b656" stroke-width="1.5" />
    <text x="460" y="401" text-anchor="middle" font-size="13" font-weight="bold" fill="#1a1a1a">Consumer</text>
  </g>
</svg>