<svg xmlns="http://www.w3.org/2000/svg" viewBox="0 0 500 620" font-family="Segoe UI, Helvetica, Arial, sans-serif">
  <defs>
    <marker id="arrow" markerWidth="10" markerHeight="7" refX="10" refY="3.5" orient="auto">
      <polygon points="0 0, 10 3.5, 0 7" fill="#333" />
    </marker>
    <marker id="arrow-gray" markerWidth="10" markerHeight="7" refX="10" refY="3.5" orient="auto">
      <polygon points="0 0, 10 3.5, 0 7" fill="#999" />
    </marker>
    <filter id="shadow" x="-4%" y="-4%" width="108%" height="108%">
      <feDropShadow dx="1" dy="2" stdDeviation="2" flood-opacity="0.12" />
    </filter>
  </defs>
  <rect width="500" height="620" fill="#fafafa" rx="8" />
  <rect x="25" y="146" width="270" height="101" rx="8" fill="#f0f4ff" stroke="#b0c4de" stroke-width="1" stroke-dasharray="6,3" />
  <text x="35" y="162" font-size="11" font-weight="bold" fill="#b0c4de">Bronze — Raw</text>
  <rect x="25" y="242" width="270" height="101" rx="8" fill="#f0fff0" stroke="#90b090" stroke-width="1" stroke-dasharray="6,3" />
  <text x="35" y="258" font-size="11" font-weight="bold" fill="#90b090">Silver — Cleaned</text>
  <rect x="25" y="338" width="270" height="101" rx="8" fill="#fffaf0" stroke="#d0b880" stroke-width="1" stroke-dasharray="6,3" />
  <text x="35" y="354" font-size="11" font-weight="bold" fill="#d0b880">Gold — Serving</text>
  <g filter="url(#shadow)">
    <rect x="40" y="80" width="240" height="56" rx="8" fill="#dae8fc" stroke="#6c8ebf" stroke-width="1.5" />
    <text x="160" y="102" text-anchor="middle" font-size="13" font-weight="bold" fill="#1a1a1a">Sources</text>
    <text x="160" y="120" text-anchor="middle" font-size="10" fill="#555">DBs, APIs, Events</text>
  </g>
  <g filter="url(#shadow)">
    <rect x="40" y="176" width="240" height="56" rx="8" fill="#dae8fc" stroke="#6c8ebf" stroke-width="1.5" />
    <text x="160" y="209" text-anchor="middle" font-size="13" font-weight="bold" fill="#1a1a1a">Append-only</text>
  </g>
  <g filter="url(#shadow)">
    <rect x="40" y="272" width="240" height="56" rx="8" fill="#d5e8d4" stroke="#82b366" stroke-width="1.5" />
    <text x="160" y="305" text-anchor="middle" font-size="13" font-weight="bold" fill="#1a1a1a">Deduplication</text>
  </g>
  <g filter="url(#shadow)">
    <rect x="40" y="368" width="240" height="56" rx="8" fill="#fff2cc" stroke="#d6b656" stroke-width="1.5" />
    <text x="160" y="401" text-anchor="middle" font-size="13" font-weight="bold" fill="#1a1a1a">Star schema</text>
  </g>
  <g filter="url(#shadow)">
    <rect x="40" y="464" width="240" height="56" rx="8" fill="#d5e8d4" stroke="#82b366" stroke-width="1.5" />
    <text x="160" y="486" text-anchor="middle" font-size="13" font-weight="bold" fill="#1a1a1a">BI Tools</text>
    <text x="160" y="504" text-anchor="middle" font-size="10" fill="#555">ML Models, APIs</text>
  </g>
</svg>