<svg xmlns="http://www.w3.org/2000/svg" viewBox="0 0 4280 300" font-family="Segoe UI, Helvetica, Arial, sans-serif">
  <defs>
    <marker id="arrow" markerWidth="10" markerHeight="7" refX="10" refY="3.5" orient="auto">
      <polygon points="0 0, 10 3.5, 0 7" fill="#333" />
    </marker>
    <marker id="arrow-gray" markerWidth="10" markerHeight="7" refX="10" refY="3.5" orient="auto">
      <polygon points="0 0, 10 3.5, 0 7" fill="#999" />
    </marker>
    <filter id="shadow" x="-4%" y="-4%" width="108%" height="108%">
      <feDropShadow dx="1" dy="2" stdDeviation="2" flood-opacity="0.12" />
    </filter>
  </defs>
  <rect width="4280" height="300" fill="#fafafa" rx="8" />
  <rect x="925" y="0" width="1770" height="101" rx="8" fill="#f0f4ff" stroke="#b0c4de" stroke-width="1" stroke-dasharray="6,3" />
  <text x="935" y="16" font-size="11" font-weight="bold" fill="#b0c4de">Topic: payments — 6 partitions</text>
  <rect x="25" y="0" width="3570" height="101" rx="8" fill="#f0fff0" stroke="#90b090" stroke-width="1" stroke-dasharray="6,3" />
  <text x="35" y="16" font-size="11" font-weight="bold" fill="#90b090">Consumer Group: fraud-service</text>
  <rect x="325" y="0" width="3870" height="101" rx="8" fill="#fffaf0" stroke="#d0b880" stroke-width="1" stroke-dasharray="6,3" />
  <text x="335" y="16" font-size="11" font-weight="bold" fill="#d0b880">Consumer Group: spark-streaming</text>
  <g filter="url(#shadow)">
    <rect x="40" y="30" width="240" height="56" rx="8" fill="#d5e8d4" stroke="#82b366" stroke-width="1.5" />
    <text x="160" y="63" text-anchor="middle" font-size="13" font-weight="bold" fill="#1a1a1a">Producer: App Server</text>
  </g>
  <g filter="url(#shadow)">
    <rect x="340" y="30" width="240" height="56" rx="8" fill="#fff2cc" stroke="#d6b656" stroke-width="1.5" />
    <text x="460" y="63" text-anchor="middle" font-size="13" font-weight="bold" fill="#1a1a1a">Producer: CDC / Debezium</text>
  </g>
  <g filter="url(#shadow)">
    <rect x="640" y="30" width="240" height="56" rx="8" fill="#fff2cc" stroke="#d6b656" stroke-width="1.5" />
    <text x="760" y="63" text-anchor="middle" font-size="13" font-weight="bold" fill="#1a1a1a">Producer: Mobile Events</text>
  </g>
  <g filter="url(#shadow)">
    <rect x="940" y="30" width="240" height="56" rx="8" fill="#dae8fc" stroke="#6c8ebf" stroke-width="1.5" />
    <text x="1060" y="63" text-anchor="middle" font-size="13" font-weight="bold" fill="#1a1a1a">Partition 0</text>
  </g>
  <g filter="url(#shadow)">
    <rect x="1240" y="30" width="240" height="56" rx="8" fill="#dae8fc" stroke="#6c8ebf" stroke-width="1.5" />
    <text x="1360" y="63" text-anchor="middle" font-size="13" font-weight="bold" fill="#1a1a1a">Partition 1</text>
  </g>
  <g filter="url(#shadow)">
    <rect x="1540" y="30" width="240" height="56" rx="8" fill="#dae8fc" stroke="#6c8ebf" stroke-width="1.5" />
    <text x="1660" y="63" text-anchor="middle" font-size="13" font-weight="bold" fill="#1a1a1a">Partition 2</text>
  </g>
  <g filter="url(#shadow)">
    <rect x="1840" y="30" width="240" height="56" rx="8" fill="#dae8fc" stroke="#6c8ebf" stroke-width="1.5" />
    <text x="1960" y="63" text-anchor="middle" font-size="13" font-weight="bold" fill="#1a1a1a">Partition 3</text>
  </g>
  <g filter="url(#shadow)">
    <rect x="2140" y="30" width="240" height="56" rx="8" fill="#dae8fc" stroke="#6c8ebf" stroke-width="1.5" />
    <text x="2260" y="63" text-anchor="middle" font-size="13" font-weight="bold" fill="#1a1a1a">Partition 4</text>
  </g>
  <g filter="url(#shadow)">
    <rect x="2440" y="30" width="240" height="56" rx="8" fill="#dae8fc" stroke="#6c8ebf" stroke-width="1.5" />
    <text x="2560" y="63" text-anchor="middle" font-size="13" font-weight="bold" fill="#1a1a1a">Partition 5</text>
  </g>
  <g filter="url(#shadow)">
    <rect x="2740" y="30" width="240" height="56" rx="8" fill="#d5e8d4" stroke="#82b366" stroke-width="1.5" />
    <text x="2860" y="63" text-anchor="middle" font-size="13" font-weight="bold" fill="#1a1a1a">Consumer 1 → P0,P1</text>
  </g>
  <g filter="url(#shadow)">
    <rect x="3040" y="30" width="240" height="56" rx="8" fill="#d5e8d4" stroke="#82b366" stroke-width="1.5" />
    <text x="3160" y="63" text-anchor="middle" font-size="13" font-weight="bold" fill="#1a1a1a">Consumer 2 → P2,P3</text>
  </g>
  <g filter="url(#shadow)">
    <rect x="3340" y="30" width="240" height="56" rx="8" fill="#d5e8d4" stroke="#82b366" stroke-width="1.5" />
    <text x="3460" y="63" text-anchor="middle" font-size="13" font-weight="bold" fill="#1a1a1a">Consumer 3 → P4,P5</text>
  </g>
  <g filter="url(#shadow)">
    <rect x="3640" y="30" width="240" height="56" rx="8" fill="#fff2cc" stroke="#d6b656" stroke-width="1.5" />
    <text x="3760" y="63" text-anchor="middle" font-size="13" font-weight="bold" fill="#1a1a1a">Spark Executor 1 → P0-P2</text>
  </g>
  <g filter="url(#shadow)">
    <rect x="3940" y="30" width="240" height="56" rx="8" fill="#fff2cc" stroke="#d6b656" stroke-width="1.5" />
    <text x="4060" y="63" text-anchor="middle" font-size="13" font-weight="bold" fill="#1a1a1a">Spark Executor 2 → P3-P5</text>
  </g>
</svg>