<svg xmlns="http://www.w3.org/2000/svg" viewBox="0 0 980 476" font-family="Segoe UI, Helvetica, Arial, sans-serif">
  <defs>
    <marker id="arrow" markerWidth="10" markerHeight="7" refX="10" refY="3.5" orient="auto">
      <polygon points="0 0, 10 3.5, 0 7" fill="#333" />
    </marker>
    <marker id="arrow-gray" markerWidth="10" markerHeight="7" refX="10" refY="3.5" orient="auto">
      <polygon points="0 0, 10 3.5, 0 7" fill="#999" />
    </marker>
    <filter id="shadow" x="-4%" y="-4%" width="108%" height="108%">
      <feDropShadow dx="1" dy="2" stdDeviation="2" flood-opacity="0.12" />
    </filter>
  </defs>
  <rect width="980" height="476" fill="#fafafa" rx="8" />
  <line x1="280" y1="300" x2="333.7530495244558" y2="256.9975603804354" stroke="#555" stroke-width="1.5" marker-end="url(#arrow)" />
  <text x="310" y="272" text-anchor="middle" font-size="9" fill="#777">OpenLineage events</text>
  <line x1="880" y1="300" x2="347.9685811255415" y2="252.70831832227034" stroke="#555" stroke-width="1.5" marker-end="url(#arrow)" />
  <text x="610" y="272" text-anchor="middle" font-size="9" fill="#777">Snowflake connector</text>
  <line x1="280" y1="300" x2="333.7530495244558" y2="343.0024396195646" stroke="#555" stroke-width="1.5" marker-end="url(#arrow)" />
  <text x="310" y="320" text-anchor="middle" font-size="9" fill="#777">tag export API</text>
  <line x1="580" y1="348" x2="633.7530495244557" y2="304.9975603804354" stroke="#555" stroke-width="1.5" marker-end="url(#arrow)" />
  <text x="610" y="320" text-anchor="middle" font-size="9" fill="#777">Snowflake DDL</text>
  <g filter="url(#shadow)">
    <rect x="40" y="272" width="240" height="56" rx="8" fill="#dae8fc" stroke="#6c8ebf" stroke-width="1.5" />
    <text x="160" y="294" text-anchor="middle" font-size="13" font-weight="bold" fill="#1a1a1a">Unity Catalog</text>
    <text x="160" y="312" text-anchor="middle" font-size="10" fill="#555">Azure Databricks</text>
  </g>
  <g filter="url(#shadow)">
    <rect x="640" y="272" width="240" height="56" rx="8" fill="#d5e8d4" stroke="#82b366" stroke-width="1.5" />
    <text x="760" y="294" text-anchor="middle" font-size="13" font-weight="bold" fill="#1a1a1a">Snowflake</text>
    <text x="760" y="312" text-anchor="middle" font-size="10" fill="#555">Iceberg External Tables</text>
  </g>
  <g filter="url(#shadow)">
    <rect x="340" y="224" width="240" height="56" rx="8" fill="#fff2cc" stroke="#d6b656" stroke-width="1.5" />
    <text x="460" y="246" text-anchor="middle" font-size="13" font-weight="bold" fill="#1a1a1a">DataHub</text>
    <text x="460" y="264" text-anchor="middle" font-size="10" fill="#555">unified catalogue</text>
  </g>
  <g filter="url(#shadow)">
    <rect x="340" y="320" width="240" height="56" rx="8" fill="#e1d5e7" stroke="#9673a6" stroke-width="1.5" />
    <text x="460" y="353" text-anchor="middle" font-size="13" font-weight="bold" fill="#1a1a1a">Policy Sync Job</text>
  </g>
</svg>