<svg xmlns="http://www.w3.org/2000/svg" viewBox="0 0 980 572" font-family="Segoe UI, Helvetica, Arial, sans-serif">
  <defs>
    <marker id="arrow" markerWidth="10" markerHeight="7" refX="10" refY="3.5" orient="auto">
      <polygon points="0 0, 10 3.5, 0 7" fill="#333" />
    </marker>
    <marker id="arrow-gray" markerWidth="10" markerHeight="7" refX="10" refY="3.5" orient="auto">
      <polygon points="0 0, 10 3.5, 0 7" fill="#999" />
    </marker>
    <filter id="shadow" x="-4%" y="-4%" width="108%" height="108%">
      <feDropShadow dx="1" dy="2" stdDeviation="2" flood-opacity="0.12" />
    </filter>
  </defs>
  <rect width="980" height="572" fill="#fafafa" rx="8" />
  <rect x="25" y="98" width="270" height="197" rx="8" fill="#f0f4ff" stroke="#b0c4de" stroke-width="1" stroke-dasharray="6,3" />
  <text x="35" y="114" font-size="11" font-weight="bold" fill="#b0c4de">Databricks</text>
  <rect x="25" y="290" width="270" height="197" rx="8" fill="#f0fff0" stroke="#90b090" stroke-width="1" stroke-dasharray="6,3" />
  <text x="35" y="306" font-size="11" font-weight="bold" fill="#90b090">Snowflake</text>
  <rect x="325" y="242" width="570" height="101" rx="8" fill="#fffaf0" stroke="#d0b880" stroke-width="1" stroke-dasharray="6,3" />
  <text x="335" y="258" font-size="11" font-weight="bold" fill="#d0b880">Shared</text>
  <line x1="280" y1="156" x2="336.9230769230769" y2="292.61538461538464" stroke="#555" stroke-width="1.5" marker-end="url(#arrow)" />
  <line x1="280" y1="156" x2="336.9230769230769" y2="292.61538461538464" stroke="#555" stroke-width="1.5" marker-end="url(#arrow)" />
  <line x1="280" y1="252" x2="333.7530495244558" y2="295.0024396195646" stroke="#555" stroke-width="1.5" marker-end="url(#arrow)" />
  <line x1="280" y1="252" x2="333.7530495244558" y2="295.0024396195646" stroke="#555" stroke-width="1.5" marker-end="url(#arrow)" />
  <line x1="280" y1="348" x2="333.7530495244558" y2="304.9975603804354" stroke="#555" stroke-width="1.5" marker-end="url(#arrow)" />
  <line x1="280" y1="348" x2="333.7530495244558" y2="304.9975603804354" stroke="#555" stroke-width="1.5" marker-end="url(#arrow)" />
  <line x1="280" y1="444" x2="336.9230769230769" y2="307.38461538461536" stroke="#555" stroke-width="1.5" marker-end="url(#arrow)" />
  <line x1="280" y1="444" x2="336.9230769230769" y2="307.38461538461536" stroke="#555" stroke-width="1.5" marker-end="url(#arrow)" />
  <line x1="580" y1="300" x2="632.0" y2="300.0" stroke="#555" stroke-width="1.5" marker-end="url(#arrow)" />
  <line x1="580" y1="300" x2="632.0" y2="300.0" stroke="#555" stroke-width="1.5" marker-end="url(#arrow)" />
  <g filter="url(#shadow)">
    <rect x="40" y="128" width="240" height="56" rx="8" fill="#dae8fc" stroke="#6c8ebf" stroke-width="1.5" />
    <text x="160" y="150" text-anchor="middle" font-size="13" font-weight="bold" fill="#1a1a1a">DLT Expectations</text>
    <text x="160" y="168" text-anchor="middle" font-size="10" fill="#555">@expect, @expect_or_drop</text>
  </g>
  <g filter="url(#shadow)">
    <rect x="40" y="224" width="240" height="56" rx="8" fill="#dae8fc" stroke="#6c8ebf" stroke-width="1.5" />
    <text x="160" y="257" text-anchor="middle" font-size="13" font-weight="bold" fill="#1a1a1a">Great Expectations</text>
  </g>
  <g filter="url(#shadow)">
    <rect x="40" y="320" width="240" height="56" rx="8" fill="#d5e8d4" stroke="#82b366" stroke-width="1.5" />
    <text x="160" y="342" text-anchor="middle" font-size="13" font-weight="bold" fill="#1a1a1a">Data Metric Functions</text>
    <text x="160" y="360" text-anchor="middle" font-size="10" fill="#555">native Snowflake DQ</text>
  </g>
  <g filter="url(#shadow)">
    <rect x="40" y="416" width="240" height="56" rx="8" fill="#d5e8d4" stroke="#82b366" stroke-width="1.5" />
    <text x="160" y="449" text-anchor="middle" font-size="13" font-weight="bold" fill="#1a1a1a">Great Expectations</text>
  </g>
  <g filter="url(#shadow)">
    <rect x="340" y="272" width="240" height="56" rx="8" fill="#fff2cc" stroke="#d6b656" stroke-width="1.5" />
    <text x="460" y="294" text-anchor="middle" font-size="13" font-weight="bold" fill="#1a1a1a">Quality Metadata Store</text>
    <text x="460" y="312" text-anchor="middle" font-size="10" fill="#555">Delta or Snowflake table</text>
  </g>
  <g filter="url(#shadow)">
    <rect x="640" y="272" width="240" height="56" rx="8" fill="#fff2cc" stroke="#d6b656" stroke-width="1.5" />
    <text x="760" y="294" text-anchor="middle" font-size="13" font-weight="bold" fill="#1a1a1a">Quality Dashboard</text>
    <text x="760" y="312" text-anchor="middle" font-size="10" fill="#555">Databricks SQL or Tableau</text>
  </g>
</svg>