<svg xmlns="http://www.w3.org/2000/svg" viewBox="0 0 1580 300" font-family="Segoe UI, Helvetica, Arial, sans-serif">
  <defs>
    <marker id="arrow" markerWidth="10" markerHeight="7" refX="10" refY="3.5" orient="auto">
      <polygon points="0 0, 10 3.5, 0 7" fill="#333" />
    </marker>
    <marker id="arrow-gray" markerWidth="10" markerHeight="7" refX="10" refY="3.5" orient="auto">
      <polygon points="0 0, 10 3.5, 0 7" fill="#999" />
    </marker>
    <filter id="shadow" x="-4%" y="-4%" width="108%" height="108%">
      <feDropShadow dx="1" dy="2" stdDeviation="2" flood-opacity="0.12" />
    </filter>
  </defs>
  <rect width="1580" height="300" fill="#fafafa" rx="8" />
  <line x1="300" y1="86" x2="167.6921915811266" y2="123.80223097682098" stroke="#555" stroke-width="1.5" marker-end="url(#arrow)" />
  <line x1="300" y1="86" x2="167.6921915811266" y2="123.80223097682098" stroke="#555" stroke-width="1.5" marker-end="url(#arrow)" />
  <line x1="300" y1="86" x2="452.23885999883737" y2="124.05971499970934" stroke="#555" stroke-width="1.5" marker-end="url(#arrow)" />
  <line x1="300" y1="86" x2="452.23885999883737" y2="124.05971499970934" stroke="#555" stroke-width="1.5" marker-end="url(#arrow)" />
  <line x1="300" y1="86" x2="752.0300752944345" y2="125.30696306908126" stroke="#555" stroke-width="1.5" marker-end="url(#arrow)" />
  <line x1="300" y1="86" x2="752.0300752944345" y2="125.30696306908126" stroke="#555" stroke-width="1.5" marker-end="url(#arrow)" />
  <line x1="300" y1="86" x2="1052.0110573653399" y2="125.5795293350179" stroke="#555" stroke-width="1.5" marker-end="url(#arrow)" />
  <line x1="300" y1="86" x2="1052.0110573653399" y2="125.5795293350179" stroke="#555" stroke-width="1.5" marker-end="url(#arrow)" />
  <line x1="300" y1="86" x2="1352.0056899011465" y2="125.69832792079798" stroke="#555" stroke-width="1.5" marker-end="url(#arrow)" />
  <line x1="300" y1="86" x2="1352.0056899011465" y2="125.69832792079798" stroke="#555" stroke-width="1.5" marker-end="url(#arrow)" />
  <g filter="url(#shadow)">
    <rect x="180" y="30" width="240" height="56" rx="8" fill="#dae8fc" stroke="#6c8ebf" stroke-width="1.5" />
    <text x="300" y="63" text-anchor="middle" font-size="13" font-weight="bold" fill="#1a1a1a">Data Quality</text>
  </g>
  <g filter="url(#shadow)">
    <rect x="480" y="30" width="240" height="56" rx="8" fill="#d5e8d4" stroke="#82b366" stroke-width="1.5" />
    <text x="600" y="52" text-anchor="middle" font-size="13" font-weight="bold" fill="#1a1a1a">Accuracy</text>
    <text x="600" y="70" text-anchor="middle" font-size="10" fill="#555">Is it correct?</text>
  </g>
  <g filter="url(#shadow)">
    <rect x="40" y="126" width="240" height="56" rx="8" fill="#fff2cc" stroke="#d6b656" stroke-width="1.5" />
    <text x="160" y="148" text-anchor="middle" font-size="13" font-weight="bold" fill="#1a1a1a">Completeness</text>
    <text x="160" y="166" text-anchor="middle" font-size="10" fill="#555">Is it all there?</text>
  </g>
  <g filter="url(#shadow)">
    <rect x="340" y="126" width="240" height="56" rx="8" fill="#e1d5e7" stroke="#9673a6" stroke-width="1.5" />
    <text x="460" y="148" text-anchor="middle" font-size="13" font-weight="bold" fill="#1a1a1a">Consistency</text>
    <text x="460" y="166" text-anchor="middle" font-size="10" fill="#555">Does it agree?</text>
  </g>
  <g filter="url(#shadow)">
    <rect x="640" y="126" width="240" height="56" rx="8" fill="#f8cecc" stroke="#b85450" stroke-width="1.5" />
    <text x="760" y="148" text-anchor="middle" font-size="13" font-weight="bold" fill="#1a1a1a">Timeliness</text>
    <text x="760" y="166" text-anchor="middle" font-size="10" fill="#555">Is it fresh?</text>
  </g>
  <g filter="url(#shadow)">
    <rect x="940" y="126" width="240" height="56" rx="8" fill="#d0e0e3" stroke="#56839b" stroke-width="1.5" />
    <text x="1060" y="148" text-anchor="middle" font-size="13" font-weight="bold" fill="#1a1a1a">Validity</text>
    <text x="1060" y="166" text-anchor="middle" font-size="10" fill="#555">Does it conform?</text>
  </g>
  <g filter="url(#shadow)">
    <rect x="1240" y="126" width="240" height="56" rx="8" fill="#fce5cd" stroke="#d79b00" stroke-width="1.5" />
    <text x="1360" y="148" text-anchor="middle" font-size="13" font-weight="bold" fill="#1a1a1a">Uniqueness</text>
    <text x="1360" y="166" text-anchor="middle" font-size="10" fill="#555">Is it deduplicated?</text>
  </g>
</svg>