<svg xmlns="http://www.w3.org/2000/svg" viewBox="0 0 680 524" font-family="Segoe UI, Helvetica, Arial, sans-serif">
  <defs>
    <marker id="arrow" markerWidth="10" markerHeight="7" refX="10" refY="3.5" orient="auto">
      <polygon points="0 0, 10 3.5, 0 7" fill="#333" />
    </marker>
    <marker id="arrow-gray" markerWidth="10" markerHeight="7" refX="10" refY="3.5" orient="auto">
      <polygon points="0 0, 10 3.5, 0 7" fill="#999" />
    </marker>
    <filter id="shadow" x="-4%" y="-4%" width="108%" height="108%">
      <feDropShadow dx="1" dy="2" stdDeviation="2" flood-opacity="0.12" />
    </filter>
  </defs>
  <rect width="680" height="524" fill="#fafafa" rx="8" />
  <line x1="280" y1="396" x2="335.76000847997454" y2="306.7839864320407" stroke="#555" stroke-width="1.5" marker-end="url(#arrow)" />
  <text x="310" y="344" text-anchor="middle" font-size="9" fill="#777">feedback loop</text>
  <g filter="url(#shadow)">
    <rect x="340" y="272" width="240" height="56" rx="8" fill="#dae8fc" stroke="#6c8ebf" stroke-width="1.5" />
    <text x="460" y="294" text-anchor="middle" font-size="13" font-weight="bold" fill="#1a1a1a">Prevention</text>
    <text x="460" y="312" text-anchor="middle" font-size="10" fill="#555">Data Contracts, Schema Registry, Input...</text>
  </g>
  <g filter="url(#shadow)">
    <rect x="40" y="176" width="240" height="56" rx="8" fill="#d5e8d4" stroke="#82b366" stroke-width="1.5" />
    <text x="160" y="198" text-anchor="middle" font-size="13" font-weight="bold" fill="#1a1a1a">Detection</text>
    <text x="160" y="216" text-anchor="middle" font-size="10" fill="#555">Expectations, Tests, Anomaly Detection</text>
  </g>
  <g filter="url(#shadow)">
    <rect x="40" y="272" width="240" height="56" rx="8" fill="#fff2cc" stroke="#d6b656" stroke-width="1.5" />
    <text x="160" y="294" text-anchor="middle" font-size="13" font-weight="bold" fill="#1a1a1a">Remediation</text>
    <text x="160" y="312" text-anchor="middle" font-size="10" fill="#555">Quarantine, Alerts, Dead Letter Queue</text>
  </g>
  <g filter="url(#shadow)">
    <rect x="40" y="368" width="240" height="56" rx="8" fill="#e1d5e7" stroke="#9673a6" stroke-width="1.5" />
    <text x="160" y="390" text-anchor="middle" font-size="13" font-weight="bold" fill="#1a1a1a">Monitoring</text>
    <text x="160" y="408" text-anchor="middle" font-size="10" fill="#555">DQ Scorecards, SLA Tracking, Trend Das...</text>
  </g>
</svg>