<svg xmlns="http://www.w3.org/2000/svg" viewBox="0 0 2180 474" font-family="Segoe UI, Helvetica, Arial, sans-serif">
  <defs>
    <marker id="arrow" markerWidth="10" markerHeight="7" refX="10" refY="3.5" orient="auto">
      <polygon points="0 0, 10 3.5, 0 7" fill="#333" />
    </marker>
    <marker id="arrow-gray" markerWidth="10" markerHeight="7" refX="10" refY="3.5" orient="auto">
      <polygon points="0 0, 10 3.5, 0 7" fill="#999" />
    </marker>
    <filter id="shadow" x="-4%" y="-4%" width="108%" height="108%">
      <feDropShadow dx="1" dy="2" stdDeviation="2" flood-opacity="0.12" />
    </filter>
  </defs>
  <rect width="2180" height="474" fill="#fafafa" rx="8" />
  <line x1="300" y1="86" x2="167.6921915811266" y2="123.80223097682098" stroke="#555" stroke-width="1.5" marker-end="url(#arrow)" />
  <line x1="300" y1="86" x2="167.6921915811266" y2="123.80223097682098" stroke="#555" stroke-width="1.5" marker-end="url(#arrow)" />
  <line x1="300" y1="86" x2="452.23885999883737" y2="124.05971499970934" stroke="#555" stroke-width="1.5" marker-end="url(#arrow)" />
  <line x1="300" y1="86" x2="452.23885999883737" y2="124.05971499970934" stroke="#555" stroke-width="1.5" marker-end="url(#arrow)" />
  <line x1="300" y1="86" x2="752.0300752944345" y2="125.30696306908126" stroke="#555" stroke-width="1.5" marker-end="url(#arrow)" />
  <line x1="300" y1="86" x2="752.0300752944345" y2="125.30696306908126" stroke="#555" stroke-width="1.5" marker-end="url(#arrow)" />
  <line x1="600" y1="86" x2="1052.0300752944345" y2="125.30696306908126" stroke="#555" stroke-width="1.5" marker-end="url(#arrow)" />
  <line x1="600" y1="86" x2="1052.0300752944345" y2="125.30696306908126" stroke="#555" stroke-width="1.5" marker-end="url(#arrow)" />
  <line x1="1060" y1="182" x2="1060.0" y2="214.0" stroke="#555" stroke-width="1.5" marker-end="url(#arrow)" />
  <text x="1060" y="198" text-anchor="middle" font-size="9" fill="#777">&lt; 10 GB</text>
  <line x1="1060" y1="182" x2="1352.0701767945388" y2="220.94269023927185" stroke="#555" stroke-width="1.5" marker-end="url(#arrow)" />
  <text x="1210" y="198" text-anchor="middle" font-size="9" fill="#777">10–100 GB</text>
  <line x1="1060" y1="182" x2="1652.017718737147" y2="221.4678479158098" stroke="#555" stroke-width="1.5" marker-end="url(#arrow)" />
  <text x="1360" y="198" text-anchor="middle" font-size="9" fill="#777">100 GB – 1 TB</text>
  <line x1="1060" y1="182" x2="1952.0078895482704" y2="221.64479509103424" stroke="#555" stroke-width="1.5" marker-end="url(#arrow)" />
  <text x="1510" y="198" text-anchor="middle" font-size="9" fill="#777">&gt; 1 TB</text>
  <line x1="160" y1="182" x2="160.0" y2="214.0" stroke="#555" stroke-width="1.5" marker-end="url(#arrow)" />
  <line x1="160" y1="182" x2="160.0" y2="214.0" stroke="#555" stroke-width="1.5" marker-end="url(#arrow)" />
  <line x1="160" y1="278" x2="442.0750309660522" y2="316.90690082290376" stroke="#555" stroke-width="1.5" marker-end="url(#arrow)" />
  <line x1="160" y1="278" x2="442.0750309660522" y2="316.90690082290376" stroke="#555" stroke-width="1.5" marker-end="url(#arrow)" />
  <line x1="460" y1="182" x2="460.0" y2="214.0" stroke="#555" stroke-width="1.5" marker-end="url(#arrow)" />
  <line x1="460" y1="182" x2="460.0" y2="214.0" stroke="#555" stroke-width="1.5" marker-end="url(#arrow)" />
  <line x1="760" y1="182" x2="760.0" y2="214.0" stroke="#555" stroke-width="1.5" marker-end="url(#arrow)" />
  <line x1="760" y1="182" x2="760.0" y2="214.0" stroke="#555" stroke-width="1.5" marker-end="url(#arrow)" />
  <g filter="url(#shadow)">
    <rect x="180" y="30" width="240" height="56" rx="8" fill="#dae8fc" stroke="#6c8ebf" stroke-width="1.5" />
    <text x="300" y="63" text-anchor="middle" font-size="13" font-weight="bold" fill="#1a1a1a">Start: What is the job type?</text>
  </g>
  <g filter="url(#shadow)">
    <rect x="480" y="30" width="240" height="56" rx="8" fill="#d5e8d4" stroke="#82b366" stroke-width="1.5" />
    <text x="600" y="63" text-anchor="middle" font-size="13" font-weight="bold" fill="#1a1a1a">Batch ETL</text>
  </g>
  <g filter="url(#shadow)">
    <rect x="40" y="126" width="240" height="56" rx="8" fill="#fff2cc" stroke="#d6b656" stroke-width="1.5" />
    <text x="160" y="159" text-anchor="middle" font-size="13" font-weight="bold" fill="#1a1a1a">Structured Streaming</text>
  </g>
  <g filter="url(#shadow)">
    <rect x="340" y="126" width="240" height="56" rx="8" fill="#e1d5e7" stroke="#9673a6" stroke-width="1.5" />
    <text x="460" y="159" text-anchor="middle" font-size="13" font-weight="bold" fill="#1a1a1a">Interactive / Notebook</text>
  </g>
  <g filter="url(#shadow)">
    <rect x="640" y="126" width="240" height="56" rx="8" fill="#f8cecc" stroke="#b85450" stroke-width="1.5" />
    <text x="760" y="159" text-anchor="middle" font-size="13" font-weight="bold" fill="#1a1a1a">ML Training</text>
  </g>
  <g filter="url(#shadow)">
    <rect x="940" y="126" width="240" height="56" rx="8" fill="#d0e0e3" stroke="#56839b" stroke-width="1.5" />
    <text x="1060" y="159" text-anchor="middle" font-size="13" font-weight="bold" fill="#1a1a1a">How large is the input data?</text>
  </g>
  <g filter="url(#shadow)">
    <rect x="940" y="222" width="240" height="56" rx="8" fill="#fce5cd" stroke="#d79b00" stroke-width="1.5" />
    <text x="1060" y="255" text-anchor="middle" font-size="13" font-weight="bold" fill="#1a1a1a">Single-node or 2-worker\nStandard_DS3_v2 / m5.xlarge</text>
  </g>
  <g filter="url(#shadow)">
    <rect x="1240" y="222" width="240" height="56" rx="8" fill="#f5f5f5" stroke="#999999" stroke-width="1.5" />
    <text x="1360" y="255" text-anchor="middle" font-size="13" font-weight="bold" fill="#1a1a1a">4–8 workers\nStandard_DS4_v2 / m5.2xlarge</text>
  </g>
  <g filter="url(#shadow)">
    <rect x="1540" y="222" width="240" height="56" rx="8" fill="#dae8fc" stroke="#6c8ebf" stroke-width="1.5" />
    <text x="1660" y="255" text-anchor="middle" font-size="13" font-weight="bold" fill="#1a1a1a">8–20 workers\nStandard_DS5_v2 / m5.4xlarge</text>
  </g>
  <g filter="url(#shadow)">
    <rect x="1840" y="222" width="240" height="56" rx="8" fill="#d5e8d4" stroke="#82b366" stroke-width="1.5" />
    <text x="1960" y="255" text-anchor="middle" font-size="13" font-weight="bold" fill="#1a1a1a">20–80 workers\nStandard_DS5_v2 / r5.4xlarge\nConsider Z-ordering + partitioning first</text>
  </g>
  <g filter="url(#shadow)">
    <rect x="40" y="222" width="240" height="56" rx="8" fill="#fff2cc" stroke="#d6b656" stroke-width="1.5" />
    <text x="160" y="255" text-anchor="middle" font-size="13" font-weight="bold" fill="#1a1a1a">Measure: msgs/sec × avg msg size</text>
  </g>
  <g filter="url(#shadow)">
    <rect x="330" y="318" width="240" height="56" rx="8" fill="#e1d5e7" stroke="#9673a6" stroke-width="1.5" />
    <text x="450" y="351" text-anchor="middle" font-size="13" font-weight="bold" fill="#1a1a1a">2–6 workers\nStandard_DS4_v2\nFixed size, no autoscaling</text>
  </g>
  <g filter="url(#shadow)">
    <rect x="340" y="222" width="240" height="56" rx="8" fill="#f8cecc" stroke="#b85450" stroke-width="1.5" />
    <text x="460" y="255" text-anchor="middle" font-size="13" font-weight="bold" fill="#1a1a1a">2–4 workers\nSmall memory-optimised\nAutoscaling ON min=0</text>
  </g>
  <g filter="url(#shadow)">
    <rect x="640" y="222" width="240" height="56" rx="8" fill="#d0e0e3" stroke="#56839b" stroke-width="1.5" />
    <text x="760" y="255" text-anchor="middle" font-size="13" font-weight="bold" fill="#1a1a1a">GPU cluster\nNCADS_A100_v4 / p3.2xlarge\nWorkers = number of GPUs needed</text>
  </g>
</svg>