<svg xmlns="http://www.w3.org/2000/svg" viewBox="0 0 980 300" font-family="Segoe UI, Helvetica, Arial, sans-serif">
  <defs>
    <marker id="arrow" markerWidth="10" markerHeight="7" refX="10" refY="3.5" orient="auto">
      <polygon points="0 0, 10 3.5, 0 7" fill="#333" />
    </marker>
    <marker id="arrow-gray" markerWidth="10" markerHeight="7" refX="10" refY="3.5" orient="auto">
      <polygon points="0 0, 10 3.5, 0 7" fill="#999" />
    </marker>
    <filter id="shadow" x="-4%" y="-4%" width="108%" height="108%">
      <feDropShadow dx="1" dy="2" stdDeviation="2" flood-opacity="0.12" />
    </filter>
  </defs>
  <rect width="980" height="300" fill="#fafafa" rx="8" />
  <rect x="25" y="0" width="870" height="101" rx="8" fill="#f0f4ff" stroke="#b0c4de" stroke-width="1" stroke-dasharray="6,3" />
  <text x="35" y="16" font-size="11" font-weight="bold" fill="#b0c4de">Azure — Primary</text>
  <rect x="165" y="96" width="570" height="101" rx="8" fill="#f0fff0" stroke="#90b090" stroke-width="1" stroke-dasharray="6,3" />
  <text x="175" y="112" font-size="11" font-weight="bold" fill="#90b090">GCP — Analytics</text>
  <line x1="160" y1="86" x2="292.30780841887344" y2="123.80223097682098" stroke="#555" stroke-width="1.5" marker-end="url(#arrow)" />
  <text x="230" y="102" text-anchor="middle" font-size="9" fill="#777">Delta UniForm, Iceberg metadata</text>
  <line x1="160" y1="86" x2="592.0328543482584" y2="125.27571403165985" stroke="#555" stroke-width="1.5" marker-end="url(#arrow)" />
  <text x="380" y="102" text-anchor="middle" font-size="9" fill="#777">Delta UniForm, zero copy</text>
  <line x1="460" y1="86" x2="307.76114000116263" y2="124.05971499970934" stroke="#555" stroke-width="1.5" marker-end="url(#arrow)" />
  <text x="380" y="102" text-anchor="middle" font-size="9" fill="#777">Databricks-to-BigQuery, spark-bigquery connector</text>
  <g filter="url(#shadow)">
    <rect x="40" y="30" width="240" height="56" rx="8" fill="#dae8fc" stroke="#6c8ebf" stroke-width="1.5" />
    <text x="160" y="52" text-anchor="middle" font-size="13" font-weight="bold" fill="#1a1a1a">ADLS Gen2</text>
    <text x="160" y="70" text-anchor="middle" font-size="10" fill="#555">Delta Lake storage</text>
  </g>
  <g filter="url(#shadow)">
    <rect x="340" y="30" width="240" height="56" rx="8" fill="#dae8fc" stroke="#6c8ebf" stroke-width="1.5" />
    <text x="460" y="52" text-anchor="middle" font-size="13" font-weight="bold" fill="#1a1a1a">Databricks Workspace</text>
    <text x="460" y="70" text-anchor="middle" font-size="10" fill="#555">ETL + ML</text>
  </g>
  <g filter="url(#shadow)">
    <rect x="640" y="30" width="240" height="56" rx="8" fill="#dae8fc" stroke="#6c8ebf" stroke-width="1.5" />
    <text x="760" y="52" text-anchor="middle" font-size="13" font-weight="bold" fill="#1a1a1a">Unity Catalog</text>
    <text x="760" y="70" text-anchor="middle" font-size="10" fill="#555">Primary Metastore</text>
  </g>
  <g filter="url(#shadow)">
    <rect x="180" y="126" width="240" height="56" rx="8" fill="#d5e8d4" stroke="#82b366" stroke-width="1.5" />
    <text x="300" y="148" text-anchor="middle" font-size="13" font-weight="bold" fill="#1a1a1a">BigQuery</text>
    <text x="300" y="166" text-anchor="middle" font-size="10" fill="#555">SQL analytics + BI</text>
  </g>
  <g filter="url(#shadow)">
    <rect x="480" y="126" width="240" height="56" rx="8" fill="#d5e8d4" stroke="#82b366" stroke-width="1.5" />
    <text x="600" y="148" text-anchor="middle" font-size="13" font-weight="bold" fill="#1a1a1a">Snowflake on GCP</text>
    <text x="600" y="166" text-anchor="middle" font-size="10" fill="#555">Data sharing</text>
  </g>
</svg>