<svg xmlns="http://www.w3.org/2000/svg" viewBox="0 0 1580 378" font-family="Segoe UI, Helvetica, Arial, sans-serif">
  <defs>
    <marker id="arrow" markerWidth="10" markerHeight="7" refX="10" refY="3.5" orient="auto">
      <polygon points="0 0, 10 3.5, 0 7" fill="#333" />
    </marker>
    <marker id="arrow-gray" markerWidth="10" markerHeight="7" refX="10" refY="3.5" orient="auto">
      <polygon points="0 0, 10 3.5, 0 7" fill="#999" />
    </marker>
    <filter id="shadow" x="-4%" y="-4%" width="108%" height="108%">
      <feDropShadow dx="1" dy="2" stdDeviation="2" flood-opacity="0.12" />
    </filter>
  </defs>
  <rect width="1580" height="378" fill="#fafafa" rx="8" />
  <line x1="600" y1="86" x2="167.96714565174162" y2="125.27571403165985" stroke="#555" stroke-width="1.5" marker-end="url(#arrow)" />
  <line x1="600" y1="86" x2="167.96714565174162" y2="125.27571403165985" stroke="#555" stroke-width="1.5" marker-end="url(#arrow)" />
  <line x1="600" y1="86" x2="467.69219158112656" y2="123.80223097682098" stroke="#555" stroke-width="1.5" marker-end="url(#arrow)" />
  <line x1="600" y1="86" x2="467.69219158112656" y2="123.80223097682098" stroke="#555" stroke-width="1.5" marker-end="url(#arrow)" />
  <line x1="600" y1="86" x2="752.2388599988374" y2="124.05971499970934" stroke="#555" stroke-width="1.5" marker-end="url(#arrow)" />
  <line x1="600" y1="86" x2="752.2388599988374" y2="124.05971499970934" stroke="#555" stroke-width="1.5" marker-end="url(#arrow)" />
  <line x1="600" y1="86" x2="1052.0300752944345" y2="125.30696306908126" stroke="#555" stroke-width="1.5" marker-end="url(#arrow)" />
  <line x1="600" y1="86" x2="1052.0300752944345" y2="125.30696306908126" stroke="#555" stroke-width="1.5" marker-end="url(#arrow)" />
  <line x1="600" y1="86" x2="1352.0110573653399" y2="125.5795293350179" stroke="#555" stroke-width="1.5" marker-end="url(#arrow)" />
  <line x1="600" y1="86" x2="1352.0110573653399" y2="125.5795293350179" stroke="#555" stroke-width="1.5" marker-end="url(#arrow)" />
  <line x1="160" y1="182" x2="160.0" y2="214.0" stroke="#555" stroke-width="1.5" marker-end="url(#arrow)" />
  <line x1="160" y1="182" x2="160.0" y2="214.0" stroke="#555" stroke-width="1.5" marker-end="url(#arrow)" />
  <line x1="460" y1="182" x2="460.0" y2="214.0" stroke="#555" stroke-width="1.5" marker-end="url(#arrow)" />
  <line x1="460" y1="182" x2="460.0" y2="214.0" stroke="#555" stroke-width="1.5" marker-end="url(#arrow)" />
  <line x1="760" y1="182" x2="760.0" y2="214.0" stroke="#555" stroke-width="1.5" marker-end="url(#arrow)" />
  <line x1="760" y1="182" x2="760.0" y2="214.0" stroke="#555" stroke-width="1.5" marker-end="url(#arrow)" />
  <line x1="1060" y1="182" x2="1060.0" y2="214.0" stroke="#555" stroke-width="1.5" marker-end="url(#arrow)" />
  <line x1="1060" y1="182" x2="1060.0" y2="214.0" stroke="#555" stroke-width="1.5" marker-end="url(#arrow)" />
  <line x1="1360" y1="182" x2="1360.0" y2="214.0" stroke="#555" stroke-width="1.5" marker-end="url(#arrow)" />
  <line x1="1360" y1="182" x2="1360.0" y2="214.0" stroke="#555" stroke-width="1.5" marker-end="url(#arrow)" />
  <g filter="url(#shadow)">
    <rect x="180" y="30" width="240" height="56" rx="8" fill="#dae8fc" stroke="#6c8ebf" stroke-width="1.5" />
    <text x="300" y="63" text-anchor="middle" font-size="13" font-weight="bold" fill="#1a1a1a">Slow Job</text>
  </g>
  <g filter="url(#shadow)">
    <rect x="480" y="30" width="240" height="56" rx="8" fill="#d5e8d4" stroke="#82b366" stroke-width="1.5" />
    <text x="600" y="63" text-anchor="middle" font-size="13" font-weight="bold" fill="#1a1a1a">Check Spark UI</text>
  </g>
  <g filter="url(#shadow)">
    <rect x="40" y="126" width="240" height="56" rx="8" fill="#fff2cc" stroke="#d6b656" stroke-width="1.5" />
    <text x="160" y="148" text-anchor="middle" font-size="13" font-weight="bold" fill="#1a1a1a">Data Skew?</text>
    <text x="160" y="166" text-anchor="middle" font-size="10" fill="#555">few tasks &gt;&gt; others</text>
  </g>
  <g filter="url(#shadow)">
    <rect x="340" y="126" width="240" height="56" rx="8" fill="#e1d5e7" stroke="#9673a6" stroke-width="1.5" />
    <text x="460" y="148" text-anchor="middle" font-size="13" font-weight="bold" fill="#1a1a1a">Memory Spill?</text>
    <text x="460" y="166" text-anchor="middle" font-size="10" fill="#555">disk spill in task</text>
  </g>
  <g filter="url(#shadow)">
    <rect x="640" y="126" width="240" height="56" rx="8" fill="#f8cecc" stroke="#b85450" stroke-width="1.5" />
    <text x="760" y="148" text-anchor="middle" font-size="13" font-weight="bold" fill="#1a1a1a">Large Shuffle?</text>
    <text x="760" y="166" text-anchor="middle" font-size="10" fill="#555">huge shuffle read/write</text>
  </g>
  <g filter="url(#shadow)">
    <rect x="940" y="126" width="240" height="56" rx="8" fill="#d0e0e3" stroke="#56839b" stroke-width="1.5" />
    <text x="1060" y="148" text-anchor="middle" font-size="13" font-weight="bold" fill="#1a1a1a">High GC?</text>
    <text x="1060" y="166" text-anchor="middle" font-size="10" fill="#555">&gt;10% of task time</text>
  </g>
  <g filter="url(#shadow)">
    <rect x="1240" y="126" width="240" height="56" rx="8" fill="#fce5cd" stroke="#d79b00" stroke-width="1.5" />
    <text x="1360" y="148" text-anchor="middle" font-size="13" font-weight="bold" fill="#1a1a1a">Small Files?</text>
    <text x="1360" y="166" text-anchor="middle" font-size="10" fill="#555">millions of tiny reads</text>
  </g>
  <g filter="url(#shadow)">
    <rect x="40" y="222" width="240" height="56" rx="8" fill="#f5f5f5" stroke="#999999" stroke-width="1.5" />
    <text x="160" y="255" text-anchor="middle" font-size="13" font-weight="bold" fill="#1a1a1a">Salt key / Broadcast / AQE skew join</text>
  </g>
  <g filter="url(#shadow)">
    <rect x="340" y="222" width="240" height="56" rx="8" fill="#dae8fc" stroke="#6c8ebf" stroke-width="1.5" />
    <text x="460" y="255" text-anchor="middle" font-size="13" font-weight="bold" fill="#1a1a1a">Increase executor memory</text>
  </g>
  <g filter="url(#shadow)">
    <rect x="640" y="222" width="240" height="56" rx="8" fill="#d5e8d4" stroke="#82b366" stroke-width="1.5" />
    <text x="760" y="244" text-anchor="middle" font-size="13" font-weight="bold" fill="#1a1a1a">Repartition before join</text>
    <text x="760" y="262" text-anchor="middle" font-size="10" fill="#555">Tune shuffle partitions</text>
  </g>
  <g filter="url(#shadow)">
    <rect x="940" y="222" width="240" height="56" rx="8" fill="#fff2cc" stroke="#d6b656" stroke-width="1.5" />
    <text x="1060" y="255" text-anchor="middle" font-size="13" font-weight="bold" fill="#1a1a1a">Increase executor memory</text>
  </g>
  <g filter="url(#shadow)">
    <rect x="1240" y="222" width="240" height="56" rx="8" fill="#e1d5e7" stroke="#9673a6" stroke-width="1.5" />
    <text x="1360" y="244" text-anchor="middle" font-size="13" font-weight="bold" fill="#1a1a1a">OPTIMIZE Delta table</text>
    <text x="1360" y="262" text-anchor="middle" font-size="10" fill="#555">Enable autoCompact</text>
  </g>
</svg>