<svg xmlns="http://www.w3.org/2000/svg" viewBox="0 0 980 474" font-family="Segoe UI, Helvetica, Arial, sans-serif">
  <defs>
    <marker id="arrow" markerWidth="10" markerHeight="7" refX="10" refY="3.5" orient="auto">
      <polygon points="0 0, 10 3.5, 0 7" fill="#333" />
    </marker>
    <marker id="arrow-gray" markerWidth="10" markerHeight="7" refX="10" refY="3.5" orient="auto">
      <polygon points="0 0, 10 3.5, 0 7" fill="#999" />
    </marker>
    <filter id="shadow" x="-4%" y="-4%" width="108%" height="108%">
      <feDropShadow dx="1" dy="2" stdDeviation="2" flood-opacity="0.12" />
    </filter>
  </defs>
  <rect width="980" height="474" fill="#fafafa" rx="8" />
  <rect x="25" y="0" width="410" height="197" rx="8" fill="#f0f4ff" stroke="#b0c4de" stroke-width="1" stroke-dasharray="6,3" />
  <text x="35" y="16" font-size="11" font-weight="bold" fill="#b0c4de">Delta Lake — Feature Engineering</text>
  <rect x="25" y="0" width="710" height="293" rx="8" fill="#f0fff0" stroke="#90b090" stroke-width="1" stroke-dasharray="6,3" />
  <text x="35" y="16" font-size="11" font-weight="bold" fill="#90b090">Model Training</text>
  <rect x="325" y="0" width="570" height="197" rx="8" fill="#fffaf0" stroke="#d0b880" stroke-width="1" stroke-dasharray="6,3" />
  <text x="335" y="16" font-size="11" font-weight="bold" fill="#d0b880">Serving</text>
  <rect x="165" y="96" width="570" height="293" rx="8" fill="#f8f0ff" stroke="#b090c0" stroke-width="1" stroke-dasharray="6,3" />
  <text x="175" y="112" font-size="11" font-weight="bold" fill="#b090c0">Model Monitoring</text>
  <line x1="300" y1="86" x2="167.6921915811266" y2="123.80223097682098" stroke="#555" stroke-width="1.5" marker-end="url(#arrow)" />
  <line x1="300" y1="86" x2="167.6921915811266" y2="123.80223097682098" stroke="#555" stroke-width="1.5" marker-end="url(#arrow)" />
  <line x1="160" y1="182" x2="292.30780841887344" y2="219.80223097682097" stroke="#555" stroke-width="1.5" marker-end="url(#arrow)" />
  <line x1="160" y1="182" x2="292.30780841887344" y2="219.80223097682097" stroke="#555" stroke-width="1.5" marker-end="url(#arrow)" />
  <line x1="600" y1="86" x2="467.69219158112656" y2="123.80223097682098" stroke="#555" stroke-width="1.5" marker-end="url(#arrow)" />
  <line x1="600" y1="86" x2="467.69219158112656" y2="123.80223097682098" stroke="#555" stroke-width="1.5" marker-end="url(#arrow)" />
  <line x1="600" y1="86" x2="752.2388599988374" y2="124.05971499970934" stroke="#555" stroke-width="1.5" marker-end="url(#arrow)" />
  <line x1="600" y1="86" x2="752.2388599988374" y2="124.05971499970934" stroke="#555" stroke-width="1.5" marker-end="url(#arrow)" />
  <line x1="460" y1="182" x2="592.3078084188734" y2="219.80223097682097" stroke="#555" stroke-width="1.5" marker-end="url(#arrow)" />
  <line x1="460" y1="182" x2="592.3078084188734" y2="219.80223097682097" stroke="#555" stroke-width="1.5" marker-end="url(#arrow)" />
  <line x1="600" y1="278" x2="457.72987951680994" y2="315.9386987955173" stroke="#555" stroke-width="1.5" marker-end="url(#arrow)" />
  <line x1="600" y1="278" x2="457.72987951680994" y2="315.9386987955173" stroke="#555" stroke-width="1.5" marker-end="url(#arrow)" />
  <line x1="450" y1="374" x2="305.6192684157537" y2="227.69419199463042" stroke="#555" stroke-width="1.5" marker-end="url(#arrow)" />
  <line x1="450" y1="374" x2="305.6192684157537" y2="227.69419199463042" stroke="#555" stroke-width="1.5" marker-end="url(#arrow)" />
  <g filter="url(#shadow)">
    <rect x="180" y="30" width="240" height="56" rx="8" fill="#dae8fc" stroke="#6c8ebf" stroke-width="1.5" />
    <text x="300" y="52" text-anchor="middle" font-size="13" font-weight="bold" fill="#1a1a1a">Silver Tables</text>
    <text x="300" y="70" text-anchor="middle" font-size="10" fill="#555">clean events</text>
  </g>
  <g filter="url(#shadow)">
    <rect x="40" y="126" width="240" height="56" rx="8" fill="#d5e8d4" stroke="#82b366" stroke-width="1.5" />
    <text x="160" y="148" text-anchor="middle" font-size="13" font-weight="bold" fill="#1a1a1a">Feature Store</text>
    <text x="160" y="166" text-anchor="middle" font-size="10" fill="#555">precomputed features</text>
  </g>
  <g filter="url(#shadow)">
    <rect x="180" y="222" width="240" height="56" rx="8" fill="#e1d5e7" stroke="#9673a6" stroke-width="1.5" />
    <text x="300" y="244" text-anchor="middle" font-size="13" font-weight="bold" fill="#1a1a1a">MLflow Experiments</text>
    <text x="300" y="262" text-anchor="middle" font-size="10" fill="#555">hyperparameter tuning</text>
  </g>
  <g filter="url(#shadow)">
    <rect x="480" y="30" width="240" height="56" rx="8" fill="#fff2cc" stroke="#d6b656" stroke-width="1.5" />
    <text x="600" y="52" text-anchor="middle" font-size="13" font-weight="bold" fill="#1a1a1a">Model Registry</text>
    <text x="600" y="70" text-anchor="middle" font-size="10" fill="#555">Staging to Production</text>
  </g>
  <g filter="url(#shadow)">
    <rect x="340" y="126" width="240" height="56" rx="8" fill="#e1d5e7" stroke="#9673a6" stroke-width="1.5" />
    <text x="460" y="148" text-anchor="middle" font-size="13" font-weight="bold" fill="#1a1a1a">Batch Scoring</text>
    <text x="460" y="166" text-anchor="middle" font-size="10" fill="#555">nightly Delta table</text>
  </g>
  <g filter="url(#shadow)">
    <rect x="640" y="126" width="240" height="56" rx="8" fill="#fff2cc" stroke="#d6b656" stroke-width="1.5" />
    <text x="760" y="148" text-anchor="middle" font-size="13" font-weight="bold" fill="#1a1a1a">Model Serving</text>
    <text x="760" y="166" text-anchor="middle" font-size="10" fill="#555">REST endpoint</text>
  </g>
  <g filter="url(#shadow)">
    <rect x="480" y="222" width="240" height="56" rx="8" fill="#e1d5e7" stroke="#9673a6" stroke-width="1.5" />
    <text x="600" y="244" text-anchor="middle" font-size="13" font-weight="bold" fill="#1a1a1a">Databricks Lakehouse Monitoring</text>
    <text x="600" y="262" text-anchor="middle" font-size="10" fill="#555">data drift, model drift</text>
  </g>
  <g filter="url(#shadow)">
    <rect x="330" y="318" width="240" height="56" rx="8" fill="#e1d5e7" stroke="#9673a6" stroke-width="1.5" />
    <text x="450" y="340" text-anchor="middle" font-size="13" font-weight="bold" fill="#1a1a1a">Trigger Retraining</text>
    <text x="450" y="358" text-anchor="middle" font-size="10" fill="#555">Databricks Workflow</text>
  </g>
</svg>