<svg xmlns="http://www.w3.org/2000/svg" viewBox="0 0 1580 300" font-family="Segoe UI, Helvetica, Arial, sans-serif">
  <defs>
    <marker id="arrow" markerWidth="10" markerHeight="7" refX="10" refY="3.5" orient="auto">
      <polygon points="0 0, 10 3.5, 0 7" fill="#333" />
    </marker>
    <marker id="arrow-gray" markerWidth="10" markerHeight="7" refX="10" refY="3.5" orient="auto">
      <polygon points="0 0, 10 3.5, 0 7" fill="#999" />
    </marker>
    <filter id="shadow" x="-4%" y="-4%" width="108%" height="108%">
      <feDropShadow dx="1" dy="2" stdDeviation="2" flood-opacity="0.12" />
    </filter>
  </defs>
  <rect width="1580" height="300" fill="#fafafa" rx="8" />
  <rect x="25" y="0" width="1170" height="197" rx="8" fill="#f0f4ff" stroke="#b0c4de" stroke-width="1" stroke-dasharray="6,3" />
  <text x="35" y="16" font-size="11" font-weight="bold" fill="#b0c4de">Databricks Platform</text>
  <line x1="160" y1="86" x2="292.30780841887344" y2="123.80223097682098" stroke="#555" stroke-width="1.5" marker-end="url(#arrow)" />
  <line x1="160" y1="86" x2="292.30780841887344" y2="123.80223097682098" stroke="#555" stroke-width="1.5" marker-end="url(#arrow)" />
  <line x1="300" y1="182" x2="592.1358380098764" y2="127.46797690482309" stroke="#555" stroke-width="1.5" marker-end="url(#arrow)" />
  <line x1="300" y1="182" x2="592.1358380098764" y2="127.46797690482309" stroke="#555" stroke-width="1.5" marker-end="url(#arrow)" />
  <line x1="460" y1="86" x2="592.3078084188734" y2="123.80223097682098" stroke="#555" stroke-width="1.5" marker-end="url(#arrow)" />
  <line x1="460" y1="86" x2="592.3078084188734" y2="123.80223097682098" stroke="#555" stroke-width="1.5" marker-end="url(#arrow)" />
  <line x1="760" y1="86" x2="307.96992470556546" y2="125.30696306908126" stroke="#555" stroke-width="1.5" marker-end="url(#arrow)" />
  <line x1="760" y1="86" x2="307.96992470556546" y2="125.30696306908126" stroke="#555" stroke-width="1.5" marker-end="url(#arrow)" />
  <line x1="1060" y1="86" x2="607.9699247055655" y2="125.30696306908126" stroke="#555" stroke-width="1.5" marker-end="url(#arrow)" />
  <line x1="1060" y1="86" x2="607.9699247055655" y2="125.30696306908126" stroke="#555" stroke-width="1.5" marker-end="url(#arrow)" />
  <g filter="url(#shadow)">
    <rect x="40" y="30" width="240" height="56" rx="8" fill="#dae8fc" stroke="#6c8ebf" stroke-width="1.5" />
    <text x="160" y="52" text-anchor="middle" font-size="13" font-weight="bold" fill="#1a1a1a">Workspace</text>
    <text x="160" y="70" text-anchor="middle" font-size="10" fill="#555">UI, Notebooks, Repos</text>
  </g>
  <g filter="url(#shadow)">
    <rect x="180" y="126" width="240" height="56" rx="8" fill="#dae8fc" stroke="#6c8ebf" stroke-width="1.5" />
    <text x="300" y="148" text-anchor="middle" font-size="13" font-weight="bold" fill="#1a1a1a">Compute</text>
    <text x="300" y="166" text-anchor="middle" font-size="10" fill="#555">Clusters, SQL Warehouses, Serverless</text>
  </g>
  <g filter="url(#shadow)">
    <rect x="480" y="126" width="240" height="56" rx="8" fill="#dae8fc" stroke="#6c8ebf" stroke-width="1.5" />
    <text x="600" y="148" text-anchor="middle" font-size="13" font-weight="bold" fill="#1a1a1a">Delta Lake</text>
    <text x="600" y="166" text-anchor="middle" font-size="10" fill="#555">Bronze, Silver, Gold</text>
  </g>
  <g filter="url(#shadow)">
    <rect x="340" y="30" width="240" height="56" rx="8" fill="#dae8fc" stroke="#6c8ebf" stroke-width="1.5" />
    <text x="460" y="52" text-anchor="middle" font-size="13" font-weight="bold" fill="#1a1a1a">Unity Catalog</text>
    <text x="460" y="70" text-anchor="middle" font-size="10" fill="#555">Governance, Lineage, Security</text>
  </g>
  <g filter="url(#shadow)">
    <rect x="640" y="30" width="240" height="56" rx="8" fill="#dae8fc" stroke="#6c8ebf" stroke-width="1.5" />
    <text x="760" y="52" text-anchor="middle" font-size="13" font-weight="bold" fill="#1a1a1a">Workflows</text>
    <text x="760" y="70" text-anchor="middle" font-size="10" fill="#555">Jobs, DLT, Triggers</text>
  </g>
  <g filter="url(#shadow)">
    <rect x="940" y="30" width="240" height="56" rx="8" fill="#dae8fc" stroke="#6c8ebf" stroke-width="1.5" />
    <text x="1060" y="52" text-anchor="middle" font-size="13" font-weight="bold" fill="#1a1a1a">ML Platform</text>
    <text x="1060" y="70" text-anchor="middle" font-size="10" fill="#555">MLflow, Feature Store, Model Serving</text>
  </g>
  <g filter="url(#shadow)">
    <rect x="1240" y="30" width="240" height="56" rx="8" fill="#dae8fc" stroke="#6c8ebf" stroke-width="1.5" />
    <text x="1360" y="52" text-anchor="middle" font-size="13" font-weight="bold" fill="#1a1a1a">ADLS Gen2 / S3 / GCS</text>
    <text x="1360" y="70" text-anchor="middle" font-size="10" fill="#555">Object Storage</text>
  </g>
</svg>