<svg xmlns="http://www.w3.org/2000/svg" viewBox="0 0 2480 300" font-family="Segoe UI, Helvetica, Arial, sans-serif">
  <defs>
    <marker id="arrow" markerWidth="10" markerHeight="7" refX="10" refY="3.5" orient="auto">
      <polygon points="0 0, 10 3.5, 0 7" fill="#333" />
    </marker>
    <marker id="arrow-gray" markerWidth="10" markerHeight="7" refX="10" refY="3.5" orient="auto">
      <polygon points="0 0, 10 3.5, 0 7" fill="#999" />
    </marker>
    <filter id="shadow" x="-4%" y="-4%" width="108%" height="108%">
      <feDropShadow dx="1" dy="2" stdDeviation="2" flood-opacity="0.12" />
    </filter>
  </defs>
  <rect width="2480" height="300" fill="#fafafa" rx="8" />
  <rect x="25" y="0" width="870" height="101" rx="8" fill="#f0f4ff" stroke="#b0c4de" stroke-width="1" stroke-dasharray="6,3" />
  <text x="35" y="16" font-size="11" font-weight="bold" fill="#b0c4de">Sources</text>
  <rect x="25" y="96" width="870" height="101" rx="8" fill="#f0fff0" stroke="#90b090" stroke-width="1" stroke-dasharray="6,3" />
  <text x="35" y="112" font-size="11" font-weight="bold" fill="#90b090">Ingestion</text>
  <rect x="925" y="0" width="870" height="101" rx="8" fill="#fffaf0" stroke="#d0b880" stroke-width="1" stroke-dasharray="6,3" />
  <text x="935" y="16" font-size="11" font-weight="bold" fill="#d0b880">ADLS Gen2</text>
  <rect x="925" y="0" width="1170" height="197" rx="8" fill="#f8f0ff" stroke="#b090c0" stroke-width="1" stroke-dasharray="6,3" />
  <text x="935" y="16" font-size="11" font-weight="bold" fill="#b090c0">Azure Databricks</text>
  <rect x="1825" y="0" width="570" height="197" rx="8" fill="#fff0f0" stroke="#c09090" stroke-width="1" stroke-dasharray="6,3" />
  <text x="1835" y="16" font-size="11" font-weight="bold" fill="#c09090">Serving</text>
  <line x1="160" y1="86" x2="160.0" y2="118.0" stroke="#555" stroke-width="1.5" marker-end="url(#arrow)" />
  <line x1="160" y1="86" x2="160.0" y2="118.0" stroke="#555" stroke-width="1.5" marker-end="url(#arrow)" />
  <line x1="460" y1="86" x2="460.0" y2="118.0" stroke="#555" stroke-width="1.5" marker-end="url(#arrow)" />
  <line x1="460" y1="86" x2="460.0" y2="118.0" stroke="#555" stroke-width="1.5" marker-end="url(#arrow)" />
  <line x1="760" y1="86" x2="760.0" y2="118.0" stroke="#555" stroke-width="1.5" marker-end="url(#arrow)" />
  <line x1="760" y1="86" x2="760.0" y2="118.0" stroke="#555" stroke-width="1.5" marker-end="url(#arrow)" />
  <line x1="1060" y1="86" x2="1060.0" y2="118.0" stroke="#555" stroke-width="1.5" marker-end="url(#arrow)" />
  <line x1="1060" y1="86" x2="1060.0" y2="118.0" stroke="#555" stroke-width="1.5" marker-end="url(#arrow)" />
  <line x1="1360" y1="86" x2="1360.0" y2="118.0" stroke="#555" stroke-width="1.5" marker-end="url(#arrow)" />
  <line x1="1360" y1="86" x2="1360.0" y2="118.0" stroke="#555" stroke-width="1.5" marker-end="url(#arrow)" />
  <line x1="1660" y1="86" x2="1660.0" y2="118.0" stroke="#555" stroke-width="1.5" marker-end="url(#arrow)" />
  <line x1="1660" y1="86" x2="1660.0" y2="118.0" stroke="#555" stroke-width="1.5" marker-end="url(#arrow)" />
  <line x1="1660" y1="86" x2="1952.0701767945388" y2="124.94269023927185" stroke="#555" stroke-width="1.5" marker-end="url(#arrow)" />
  <line x1="1660" y1="86" x2="1952.0701767945388" y2="124.94269023927185" stroke="#555" stroke-width="1.5" marker-end="url(#arrow)" />
  <g filter="url(#shadow)">
    <rect x="40" y="30" width="240" height="56" rx="8" fill="#dae8fc" stroke="#6c8ebf" stroke-width="1.5" />
    <text x="160" y="63" text-anchor="middle" font-size="13" font-weight="bold" fill="#1a1a1a">(ERP / CRM)</text>
  </g>
  <g filter="url(#shadow)">
    <rect x="340" y="30" width="240" height="56" rx="8" fill="#dae8fc" stroke="#6c8ebf" stroke-width="1.5" />
    <text x="460" y="52" text-anchor="middle" font-size="13" font-weight="bold" fill="#1a1a1a">REST APIs</text>
    <text x="460" y="70" text-anchor="middle" font-size="10" fill="#555">Salesforce, Shopify</text>
  </g>
  <g filter="url(#shadow)">
    <rect x="640" y="30" width="240" height="56" rx="8" fill="#dae8fc" stroke="#6c8ebf" stroke-width="1.5" />
    <text x="760" y="52" text-anchor="middle" font-size="13" font-weight="bold" fill="#1a1a1a">File Drops</text>
    <text x="760" y="70" text-anchor="middle" font-size="10" fill="#555">SFTP, SharePoint</text>
  </g>
  <g filter="url(#shadow)">
    <rect x="340" y="126" width="240" height="56" rx="8" fill="#d5e8d4" stroke="#82b366" stroke-width="1.5" />
    <text x="460" y="148" text-anchor="middle" font-size="13" font-weight="bold" fill="#1a1a1a">Azure Data Factory</text>
    <text x="460" y="166" text-anchor="middle" font-size="10" fill="#555">Copy Activity, Schedule</text>
  </g>
  <g filter="url(#shadow)">
    <rect x="40" y="126" width="240" height="56" rx="8" fill="#d5e8d4" stroke="#82b366" stroke-width="1.5" />
    <text x="160" y="148" text-anchor="middle" font-size="13" font-weight="bold" fill="#1a1a1a">Debezium on AKS</text>
    <text x="160" y="166" text-anchor="middle" font-size="10" fill="#555">CDC from PostgreSQL</text>
  </g>
  <g filter="url(#shadow)">
    <rect x="640" y="126" width="240" height="56" rx="8" fill="#d5e8d4" stroke="#82b366" stroke-width="1.5" />
    <text x="760" y="148" text-anchor="middle" font-size="13" font-weight="bold" fill="#1a1a1a">Auto Loader</text>
    <text x="760" y="166" text-anchor="middle" font-size="10" fill="#555">Event Grid trigger</text>
  </g>
  <g filter="url(#shadow)">
    <rect x="940" y="30" width="240" height="56" rx="8" fill="#fff2cc" stroke="#d6b656" stroke-width="1.5" />
    <text x="1060" y="52" text-anchor="middle" font-size="13" font-weight="bold" fill="#1a1a1a">Bronze Container</text>
    <text x="1060" y="70" text-anchor="middle" font-size="10" fill="#555">raw, immutable</text>
  </g>
  <g filter="url(#shadow)">
    <rect x="1240" y="30" width="240" height="56" rx="8" fill="#fff2cc" stroke="#d6b656" stroke-width="1.5" />
    <text x="1360" y="52" text-anchor="middle" font-size="13" font-weight="bold" fill="#1a1a1a">Silver Container</text>
    <text x="1360" y="70" text-anchor="middle" font-size="10" fill="#555">cleaned, Delta</text>
  </g>
  <g filter="url(#shadow)">
    <rect x="1540" y="30" width="240" height="56" rx="8" fill="#fff2cc" stroke="#d6b656" stroke-width="1.5" />
    <text x="1660" y="52" text-anchor="middle" font-size="13" font-weight="bold" fill="#1a1a1a">Gold Container</text>
    <text x="1660" y="70" text-anchor="middle" font-size="10" fill="#555">aggregated, Delta</text>
  </g>
  <g filter="url(#shadow)">
    <rect x="1840" y="30" width="240" height="56" rx="8" fill="#e1d5e7" stroke="#9673a6" stroke-width="1.5" />
    <text x="1960" y="52" text-anchor="middle" font-size="13" font-weight="bold" fill="#1a1a1a">Job Cluster: Ingest</text>
    <text x="1960" y="70" text-anchor="middle" font-size="10" fill="#555">Bronze pipeline</text>
  </g>
  <g filter="url(#shadow)">
    <rect x="940" y="126" width="240" height="56" rx="8" fill="#e1d5e7" stroke="#9673a6" stroke-width="1.5" />
    <text x="1060" y="148" text-anchor="middle" font-size="13" font-weight="bold" fill="#1a1a1a">Job Cluster: Transform</text>
    <text x="1060" y="166" text-anchor="middle" font-size="10" fill="#555">Silver DLT pipeline</text>
  </g>
  <g filter="url(#shadow)">
    <rect x="1240" y="126" width="240" height="56" rx="8" fill="#e1d5e7" stroke="#9673a6" stroke-width="1.5" />
    <text x="1360" y="148" text-anchor="middle" font-size="13" font-weight="bold" fill="#1a1a1a">Job Cluster: Serve</text>
    <text x="1360" y="166" text-anchor="middle" font-size="10" fill="#555">Gold dbt models</text>
  </g>
  <g filter="url(#shadow)">
    <rect x="1540" y="126" width="240" height="56" rx="8" fill="#e1d5e7" stroke="#9673a6" stroke-width="1.5" />
    <text x="1660" y="148" text-anchor="middle" font-size="13" font-weight="bold" fill="#1a1a1a">SQL Warehouse</text>
    <text x="1660" y="166" text-anchor="middle" font-size="10" fill="#555">BI queries</text>
  </g>
  <g filter="url(#shadow)">
    <rect x="2140" y="30" width="240" height="56" rx="8" fill="#f8cecc" stroke="#b85450" stroke-width="1.5" />
    <text x="2260" y="52" text-anchor="middle" font-size="13" font-weight="bold" fill="#1a1a1a">Power BI</text>
    <text x="2260" y="70" text-anchor="middle" font-size="10" fill="#555">dashboards</text>
  </g>
  <g filter="url(#shadow)">
    <rect x="1840" y="126" width="240" height="56" rx="8" fill="#f8cecc" stroke="#b85450" stroke-width="1.5" />
    <text x="1960" y="148" text-anchor="middle" font-size="13" font-weight="bold" fill="#1a1a1a">Azure Synapse</text>
    <text x="1960" y="166" text-anchor="middle" font-size="10" fill="#555">external tables</text>
  </g>
</svg>