<svg xmlns="http://www.w3.org/2000/svg" viewBox="0 0 2480 300" font-family="Segoe UI, Helvetica, Arial, sans-serif">
  <defs>
    <marker id="arrow" markerWidth="10" markerHeight="7" refX="10" refY="3.5" orient="auto">
      <polygon points="0 0, 10 3.5, 0 7" fill="#333" />
    </marker>
    <marker id="arrow-gray" markerWidth="10" markerHeight="7" refX="10" refY="3.5" orient="auto">
      <polygon points="0 0, 10 3.5, 0 7" fill="#999" />
    </marker>
    <filter id="shadow" x="-4%" y="-4%" width="108%" height="108%">
      <feDropShadow dx="1" dy="2" stdDeviation="2" flood-opacity="0.12" />
    </filter>
  </defs>
  <rect width="2480" height="300" fill="#fafafa" rx="8" />
  <rect x="925" y="0" width="1170" height="101" rx="8" fill="#f0f4ff" stroke="#b0c4de" stroke-width="1" stroke-dasharray="6,3" />
  <text x="935" y="16" font-size="11" font-weight="bold" fill="#b0c4de">Transaction Log — _delta_log/</text>
  <g filter="url(#shadow)">
    <rect x="40" y="30" width="240" height="56" rx="8" fill="#dae8fc" stroke="#6c8ebf" stroke-width="1.5" />
    <text x="160" y="52" text-anchor="middle" font-size="13" font-weight="bold" fill="#1a1a1a">Writer 1</text>
    <text x="160" y="70" text-anchor="middle" font-size="10" fill="#555">INSERT</text>
  </g>
  <g filter="url(#shadow)">
    <rect x="340" y="30" width="240" height="56" rx="8" fill="#d5e8d4" stroke="#82b366" stroke-width="1.5" />
    <text x="460" y="52" text-anchor="middle" font-size="13" font-weight="bold" fill="#1a1a1a">Writer 2</text>
    <text x="460" y="70" text-anchor="middle" font-size="10" fill="#555">UPDATE</text>
  </g>
  <g filter="url(#shadow)">
    <rect x="640" y="30" width="240" height="56" rx="8" fill="#fff2cc" stroke="#d6b656" stroke-width="1.5" />
    <text x="760" y="52" text-anchor="middle" font-size="13" font-weight="bold" fill="#1a1a1a">Reader</text>
    <text x="760" y="70" text-anchor="middle" font-size="10" fill="#555">SELECT</text>
  </g>
  <g filter="url(#shadow)">
    <rect x="940" y="30" width="240" height="56" rx="8" fill="#dae8fc" stroke="#6c8ebf" stroke-width="1.5" />
    <text x="1060" y="52" text-anchor="middle" font-size="13" font-weight="bold" fill="#1a1a1a">000.json</text>
    <text x="1060" y="70" text-anchor="middle" font-size="10" fill="#555">initial schema</text>
  </g>
  <g filter="url(#shadow)">
    <rect x="1240" y="30" width="240" height="56" rx="8" fill="#dae8fc" stroke="#6c8ebf" stroke-width="1.5" />
    <text x="1360" y="52" text-anchor="middle" font-size="13" font-weight="bold" fill="#1a1a1a">001.json</text>
    <text x="1360" y="70" text-anchor="middle" font-size="10" fill="#555">add files A, B</text>
  </g>
  <g filter="url(#shadow)">
    <rect x="1540" y="30" width="240" height="56" rx="8" fill="#dae8fc" stroke="#6c8ebf" stroke-width="1.5" />
    <text x="1660" y="52" text-anchor="middle" font-size="13" font-weight="bold" fill="#1a1a1a">002.json</text>
    <text x="1660" y="70" text-anchor="middle" font-size="10" fill="#555">add file C, remove file A</text>
  </g>
  <g filter="url(#shadow)">
    <rect x="1840" y="30" width="240" height="56" rx="8" fill="#dae8fc" stroke="#6c8ebf" stroke-width="1.5" />
    <text x="1960" y="52" text-anchor="middle" font-size="13" font-weight="bold" fill="#1a1a1a">003.json</text>
    <text x="1960" y="70" text-anchor="middle" font-size="10" fill="#555">schema change</text>
  </g>
  <g filter="url(#shadow)">
    <rect x="2140" y="30" width="240" height="56" rx="8" fill="#e1d5e7" stroke="#9673a6" stroke-width="1.5" />
    <text x="2260" y="52" text-anchor="middle" font-size="13" font-weight="bold" fill="#1a1a1a">Data Files</text>
    <text x="2260" y="70" text-anchor="middle" font-size="10" fill="#555">Parquet on S3/ADLS/GCS</text>
  </g>
</svg>