<svg xmlns="http://www.w3.org/2000/svg" viewBox="0 0 980 524" font-family="Segoe UI, Helvetica, Arial, sans-serif">
  <defs>
    <marker id="arrow" markerWidth="10" markerHeight="7" refX="10" refY="3.5" orient="auto">
      <polygon points="0 0, 10 3.5, 0 7" fill="#333" />
    </marker>
    <marker id="arrow-gray" markerWidth="10" markerHeight="7" refX="10" refY="3.5" orient="auto">
      <polygon points="0 0, 10 3.5, 0 7" fill="#999" />
    </marker>
    <filter id="shadow" x="-4%" y="-4%" width="108%" height="108%">
      <feDropShadow dx="1" dy="2" stdDeviation="2" flood-opacity="0.12" />
    </filter>
  </defs>
  <rect width="980" height="524" fill="#fafafa" rx="8" />
  <rect x="25" y="242" width="570" height="101" rx="8" fill="#f0f4ff" stroke="#b0c4de" stroke-width="1" stroke-dasharray="6,3" />
  <text x="35" y="258" font-size="11" font-weight="bold" fill="#b0c4de">Provider Account</text>
  <rect x="325" y="146" width="570" height="197" rx="8" fill="#f0fff0" stroke="#90b090" stroke-width="1" stroke-dasharray="6,3" />
  <text x="335" y="162" font-size="11" font-weight="bold" fill="#90b090">Recipient 1 - Snowflake Account</text>
  <rect x="325" y="242" width="570" height="101" rx="8" fill="#fffaf0" stroke="#d0b880" stroke-width="1" stroke-dasharray="6,3" />
  <text x="335" y="258" font-size="11" font-weight="bold" fill="#d0b880">Recipient 2 - Snowflake Account</text>
  <rect x="325" y="242" width="570" height="197" rx="8" fill="#f8f0ff" stroke="#b090c0" stroke-width="1" stroke-dasharray="6,3" />
  <text x="335" y="258" font-size="11" font-weight="bold" fill="#b090c0">Recipient 3 - Non-Snowflake</text>
  <line x1="280" y1="300" x2="332.0" y2="300.0" stroke="#555" stroke-width="1.5" marker-end="url(#arrow)" />
  <line x1="280" y1="300" x2="332.0" y2="300.0" stroke="#555" stroke-width="1.5" marker-end="url(#arrow)" />
  <line x1="580" y1="300" x2="635.7600084799745" y2="210.7839864320407" stroke="#555" stroke-width="1.5" marker-end="url(#arrow)" />
  <line x1="580" y1="300" x2="635.7600084799745" y2="210.7839864320407" stroke="#555" stroke-width="1.5" marker-end="url(#arrow)" />
  <line x1="580" y1="300" x2="632.0" y2="300.0" stroke="#555" stroke-width="1.5" marker-end="url(#arrow)" />
  <line x1="580" y1="300" x2="632.0" y2="300.0" stroke="#555" stroke-width="1.5" marker-end="url(#arrow)" />
  <line x1="580" y1="300" x2="635.7600084799745" y2="389.2160135679593" stroke="#555" stroke-width="1.5" marker-end="url(#arrow)" />
  <text x="610" y="344" text-anchor="middle" font-size="9" fill="#777">Open Protocol</text>
  <g filter="url(#shadow)">
    <rect x="40" y="272" width="240" height="56" rx="8" fill="#dae8fc" stroke="#6c8ebf" stroke-width="1.5" />
    <text x="160" y="294" text-anchor="middle" font-size="13" font-weight="bold" fill="#1a1a1a">Provider Table</text>
    <text x="160" y="312" text-anchor="middle" font-size="10" fill="#555">fact_orders, dim_product</text>
  </g>
  <g filter="url(#shadow)">
    <rect x="340" y="272" width="240" height="56" rx="8" fill="#e1d5e7" stroke="#9673a6" stroke-width="1.5" />
    <text x="460" y="294" text-anchor="middle" font-size="13" font-weight="bold" fill="#1a1a1a">Share Object</text>
    <text x="460" y="312" text-anchor="middle" font-size="10" fill="#555">tables + views</text>
  </g>
  <g filter="url(#shadow)">
    <rect x="640" y="176" width="240" height="56" rx="8" fill="#d5e8d4" stroke="#82b366" stroke-width="1.5" />
    <text x="760" y="198" text-anchor="middle" font-size="13" font-weight="bold" fill="#1a1a1a">Shared Database</text>
    <text x="760" y="216" text-anchor="middle" font-size="10" fill="#555">read-only</text>
  </g>
  <g filter="url(#shadow)">
    <rect x="640" y="272" width="240" height="56" rx="8" fill="#fff2cc" stroke="#d6b656" stroke-width="1.5" />
    <text x="760" y="294" text-anchor="middle" font-size="13" font-weight="bold" fill="#1a1a1a">Shared Database</text>
    <text x="760" y="312" text-anchor="middle" font-size="10" fill="#555">read-only</text>
  </g>
  <g filter="url(#shadow)">
    <rect x="640" y="368" width="240" height="56" rx="8" fill="#e1d5e7" stroke="#9673a6" stroke-width="1.5" />
    <text x="760" y="390" text-anchor="middle" font-size="13" font-weight="bold" fill="#1a1a1a">Delta Sharing Client</text>
    <text x="760" y="408" text-anchor="middle" font-size="10" fill="#555">Python, Spark, Power BI</text>
  </g>
</svg>