<svg xmlns="http://www.w3.org/2000/svg" viewBox="0 0 1580 474" font-family="Segoe UI, Helvetica, Arial, sans-serif">
  <defs>
    <marker id="arrow" markerWidth="10" markerHeight="7" refX="10" refY="3.5" orient="auto">
      <polygon points="0 0, 10 3.5, 0 7" fill="#333" />
    </marker>
    <marker id="arrow-gray" markerWidth="10" markerHeight="7" refX="10" refY="3.5" orient="auto">
      <polygon points="0 0, 10 3.5, 0 7" fill="#999" />
    </marker>
    <filter id="shadow" x="-4%" y="-4%" width="108%" height="108%">
      <feDropShadow dx="1" dy="2" stdDeviation="2" flood-opacity="0.12" />
    </filter>
  </defs>
  <rect width="1580" height="474" fill="#fafafa" rx="8" />
  <rect x="25" y="0" width="870" height="101" rx="8" fill="#f0f4ff" stroke="#b0c4de" stroke-width="1" stroke-dasharray="6,3" />
  <text x="35" y="16" font-size="11" font-weight="bold" fill="#b0c4de">Sources</text>
  <rect x="165" y="0" width="1030" height="197" rx="8" fill="#f0fff0" stroke="#90b090" stroke-width="1" stroke-dasharray="6,3" />
  <text x="175" y="16" font-size="11" font-weight="bold" fill="#90b090">Ingestion</text>
  <rect x="25" y="0" width="1470" height="389" rx="8" fill="#fffaf0" stroke="#d0b880" stroke-width="1" stroke-dasharray="6,3" />
  <text x="35" y="16" font-size="11" font-weight="bold" fill="#d0b880">Snowflake</text>
  <rect x="325" y="192" width="870" height="101" rx="8" fill="#f8f0ff" stroke="#b090c0" stroke-width="1" stroke-dasharray="6,3" />
  <text x="335" y="208" font-size="11" font-weight="bold" fill="#b090c0">Serving</text>
  <line x1="160" y1="86" x2="292.30780841887344" y2="123.80223097682098" stroke="#555" stroke-width="1.5" marker-end="url(#arrow)" />
  <line x1="160" y1="86" x2="292.30780841887344" y2="123.80223097682098" stroke="#555" stroke-width="1.5" marker-end="url(#arrow)" />
  <line x1="460" y1="86" x2="307.76114000116263" y2="124.05971499970934" stroke="#555" stroke-width="1.5" marker-end="url(#arrow)" />
  <line x1="460" y1="86" x2="307.76114000116263" y2="124.05971499970934" stroke="#555" stroke-width="1.5" marker-end="url(#arrow)" />
  <line x1="760" y1="86" x2="307.96992470556546" y2="125.30696306908126" stroke="#555" stroke-width="1.5" marker-end="url(#arrow)" />
  <line x1="760" y1="86" x2="307.96992470556546" y2="125.30696306908126" stroke="#555" stroke-width="1.5" marker-end="url(#arrow)" />
  <line x1="300" y1="182" x2="167.6921915811266" y2="219.80223097682097" stroke="#555" stroke-width="1.5" marker-end="url(#arrow)" />
  <line x1="300" y1="182" x2="167.6921915811266" y2="219.80223097682097" stroke="#555" stroke-width="1.5" marker-end="url(#arrow)" />
  <line x1="160" y1="278" x2="442.0750309660522" y2="316.90690082290376" stroke="#555" stroke-width="1.5" marker-end="url(#arrow)" />
  <line x1="1360" y1="86" x2="607.9889426346601" y2="125.5795293350179" stroke="#555" stroke-width="1.5" marker-end="url(#arrow)" />
  <line x1="160" y1="278" x2="442.0750309660522" y2="316.90690082290376" stroke="#555" stroke-width="1.5" marker-end="url(#arrow)" />
  <line x1="1360" y1="86" x2="607.9889426346601" y2="125.5795293350179" stroke="#555" stroke-width="1.5" marker-end="url(#arrow)" />
  <line x1="600" y1="182" x2="467.69219158112656" y2="219.80223097682097" stroke="#555" stroke-width="1.5" marker-end="url(#arrow)" />
  <line x1="600" y1="182" x2="467.69219158112656" y2="219.80223097682097" stroke="#555" stroke-width="1.5" marker-end="url(#arrow)" />
  <line x1="600" y1="182" x2="752.2388599988374" y2="220.05971499970934" stroke="#555" stroke-width="1.5" marker-end="url(#arrow)" />
  <line x1="600" y1="182" x2="752.2388599988374" y2="220.05971499970934" stroke="#555" stroke-width="1.5" marker-end="url(#arrow)" />
  <line x1="600" y1="182" x2="1052.0300752944345" y2="221.30696306908126" stroke="#555" stroke-width="1.5" marker-end="url(#arrow)" />
  <line x1="600" y1="182" x2="1052.0300752944345" y2="221.30696306908126" stroke="#555" stroke-width="1.5" marker-end="url(#arrow)" />
  <g filter="url(#shadow)">
    <rect x="40" y="30" width="240" height="56" rx="8" fill="#dae8fc" stroke="#6c8ebf" stroke-width="1.5" />
    <text x="160" y="63" text-anchor="middle" font-size="13" font-weight="bold" fill="#1a1a1a">ERP / CRM</text>
  </g>
  <g filter="url(#shadow)">
    <rect x="340" y="30" width="240" height="56" rx="8" fill="#dae8fc" stroke="#6c8ebf" stroke-width="1.5" />
    <text x="460" y="63" text-anchor="middle" font-size="13" font-weight="bold" fill="#1a1a1a">Shopify</text>
  </g>
  <g filter="url(#shadow)">
    <rect x="640" y="30" width="240" height="56" rx="8" fill="#dae8fc" stroke="#6c8ebf" stroke-width="1.5" />
    <text x="760" y="63" text-anchor="middle" font-size="13" font-weight="bold" fill="#1a1a1a">APIs</text>
  </g>
  <g filter="url(#shadow)">
    <rect x="180" y="126" width="240" height="56" rx="8" fill="#d5e8d4" stroke="#82b366" stroke-width="1.5" />
    <text x="300" y="148" text-anchor="middle" font-size="13" font-weight="bold" fill="#1a1a1a">Fivetran</text>
    <text x="300" y="166" text-anchor="middle" font-size="10" fill="#555">managed connectors</text>
  </g>
  <g filter="url(#shadow)">
    <rect x="940" y="30" width="240" height="56" rx="8" fill="#d5e8d4" stroke="#82b366" stroke-width="1.5" />
    <text x="1060" y="52" text-anchor="middle" font-size="13" font-weight="bold" fill="#1a1a1a">Snowpipe</text>
    <text x="1060" y="70" text-anchor="middle" font-size="10" fill="#555">continuous file loading</text>
  </g>
  <g filter="url(#shadow)">
    <rect x="40" y="222" width="240" height="56" rx="8" fill="#fff2cc" stroke="#d6b656" stroke-width="1.5" />
    <text x="160" y="244" text-anchor="middle" font-size="13" font-weight="bold" fill="#1a1a1a">Raw Schema</text>
    <text x="160" y="262" text-anchor="middle" font-size="10" fill="#555">per-source landing</text>
  </g>
  <g filter="url(#shadow)">
    <rect x="330" y="318" width="240" height="56" rx="8" fill="#fff2cc" stroke="#d6b656" stroke-width="1.5" />
    <text x="450" y="340" text-anchor="middle" font-size="13" font-weight="bold" fill="#1a1a1a">Staging</text>
    <text x="450" y="358" text-anchor="middle" font-size="10" fill="#555">dbt staging models</text>
  </g>
  <g filter="url(#shadow)">
    <rect x="1240" y="30" width="240" height="56" rx="8" fill="#fff2cc" stroke="#d6b656" stroke-width="1.5" />
    <text x="1360" y="52" text-anchor="middle" font-size="13" font-weight="bold" fill="#1a1a1a">Intermediate</text>
    <text x="1360" y="70" text-anchor="middle" font-size="10" fill="#555">dbt cross-source</text>
  </g>
  <g filter="url(#shadow)">
    <rect x="480" y="126" width="240" height="56" rx="8" fill="#fff2cc" stroke="#d6b656" stroke-width="1.5" />
    <text x="600" y="148" text-anchor="middle" font-size="13" font-weight="bold" fill="#1a1a1a">Gold Marts</text>
    <text x="600" y="166" text-anchor="middle" font-size="10" fill="#555">dbt marts</text>
  </g>
  <g filter="url(#shadow)">
    <rect x="340" y="222" width="240" height="56" rx="8" fill="#e1d5e7" stroke="#9673a6" stroke-width="1.5" />
    <text x="460" y="244" text-anchor="middle" font-size="13" font-weight="bold" fill="#1a1a1a">Tableau / Power BI</text>
    <text x="460" y="262" text-anchor="middle" font-size="10" fill="#555">Looker</text>
  </g>
  <g filter="url(#shadow)">
    <rect x="640" y="222" width="240" height="56" rx="8" fill="#e1d5e7" stroke="#9673a6" stroke-width="1.5" />
    <text x="760" y="244" text-anchor="middle" font-size="13" font-weight="bold" fill="#1a1a1a">Data Sharing</text>
    <text x="760" y="262" text-anchor="middle" font-size="10" fill="#555">partners, suppliers</text>
  </g>
  <g filter="url(#shadow)">
    <rect x="940" y="222" width="240" height="56" rx="8" fill="#e1d5e7" stroke="#9673a6" stroke-width="1.5" />
    <text x="1060" y="244" text-anchor="middle" font-size="13" font-weight="bold" fill="#1a1a1a">Snowpark</text>
    <text x="1060" y="262" text-anchor="middle" font-size="10" fill="#555">Python ML</text>
  </g>
</svg>