<svg xmlns="http://www.w3.org/2000/svg" viewBox="0 0 1280 378" font-family="Segoe UI, Helvetica, Arial, sans-serif">
  <defs>
    <marker id="arrow" markerWidth="10" markerHeight="7" refX="10" refY="3.5" orient="auto">
      <polygon points="0 0, 10 3.5, 0 7" fill="#333" />
    </marker>
    <marker id="arrow-gray" markerWidth="10" markerHeight="7" refX="10" refY="3.5" orient="auto">
      <polygon points="0 0, 10 3.5, 0 7" fill="#999" />
    </marker>
    <filter id="shadow" x="-4%" y="-4%" width="108%" height="108%">
      <feDropShadow dx="1" dy="2" stdDeviation="2" flood-opacity="0.12" />
    </filter>
  </defs>
  <rect width="1280" height="378" fill="#fafafa" rx="8" />
  <rect x="25" y="0" width="570" height="101" rx="8" fill="#f0f4ff" stroke="#b0c4de" stroke-width="1" stroke-dasharray="6,3" />
  <text x="35" y="16" font-size="11" font-weight="bold" fill="#b0c4de">Domain A — Finance</text>
  <rect x="625" y="0" width="570" height="101" rx="8" fill="#f0fff0" stroke="#90b090" stroke-width="1" stroke-dasharray="6,3" />
  <text x="635" y="16" font-size="11" font-weight="bold" fill="#90b090">Domain B — Marketing</text>
  <rect x="165" y="96" width="570" height="197" rx="8" fill="#fffaf0" stroke="#d0b880" stroke-width="1" stroke-dasharray="6,3" />
  <text x="175" y="112" font-size="11" font-weight="bold" fill="#d0b880">Shared Platform</text>
  <line x1="160" y1="86" x2="292.30780841887344" y2="123.80223097682098" stroke="#555" stroke-width="1.5" marker-end="url(#arrow)" />
  <text x="230" y="102" text-anchor="middle" font-size="9" fill="#777">publish contract</text>
  <line x1="760" y1="86" x2="607.7611400011626" y2="124.05971499970934" stroke="#555" stroke-width="1.5" marker-end="url(#arrow)" />
  <text x="680" y="102" text-anchor="middle" font-size="9" fill="#777">publish contract</text>
  <line x1="300" y1="182" x2="442.27012048319006" y2="219.93869879551735" stroke="#555" stroke-width="1.5" marker-end="url(#arrow)" />
  <line x1="300" y1="182" x2="442.27012048319006" y2="219.93869879551735" stroke="#555" stroke-width="1.5" marker-end="url(#arrow)" />
  <line x1="600" y1="182" x2="457.72987951680994" y2="219.93869879551735" stroke="#555" stroke-width="1.5" marker-end="url(#arrow)" />
  <line x1="600" y1="182" x2="457.72987951680994" y2="219.93869879551735" stroke="#555" stroke-width="1.5" marker-end="url(#arrow)" />
  <g filter="url(#shadow)">
    <rect x="40" y="30" width="240" height="56" rx="8" fill="#dae8fc" stroke="#6c8ebf" stroke-width="1.5" />
    <text x="160" y="52" text-anchor="middle" font-size="13" font-weight="bold" fill="#1a1a1a">Snowflake — Finance</text>
    <text x="160" y="70" text-anchor="middle" font-size="10" fill="#555">fact_gl_entries, dim_cost_center</text>
  </g>
  <g filter="url(#shadow)">
    <rect x="340" y="30" width="240" height="56" rx="8" fill="#dae8fc" stroke="#6c8ebf" stroke-width="1.5" />
    <text x="460" y="63" text-anchor="middle" font-size="13" font-weight="bold" fill="#1a1a1a">dbt Finance models</text>
  </g>
  <g filter="url(#shadow)">
    <rect x="640" y="30" width="240" height="56" rx="8" fill="#d5e8d4" stroke="#82b366" stroke-width="1.5" />
    <text x="760" y="52" text-anchor="middle" font-size="13" font-weight="bold" fill="#1a1a1a">Snowflake — Marketing</text>
    <text x="760" y="70" text-anchor="middle" font-size="10" fill="#555">fact_campaigns, dim_segment</text>
  </g>
  <g filter="url(#shadow)">
    <rect x="940" y="30" width="240" height="56" rx="8" fill="#d5e8d4" stroke="#82b366" stroke-width="1.5" />
    <text x="1060" y="63" text-anchor="middle" font-size="13" font-weight="bold" fill="#1a1a1a">dbt Marketing models</text>
  </g>
  <g filter="url(#shadow)">
    <rect x="180" y="126" width="240" height="56" rx="8" fill="#fff2cc" stroke="#d6b656" stroke-width="1.5" />
    <text x="300" y="159" text-anchor="middle" font-size="13" font-weight="bold" fill="#1a1a1a">Snowflake Data Share</text>
  </g>
  <g filter="url(#shadow)">
    <rect x="480" y="126" width="240" height="56" rx="8" fill="#fff2cc" stroke="#d6b656" stroke-width="1.5" />
    <text x="600" y="159" text-anchor="middle" font-size="13" font-weight="bold" fill="#1a1a1a">Snowflake Data Share</text>
  </g>
  <g filter="url(#shadow)">
    <rect x="330" y="222" width="240" height="56" rx="8" fill="#fff2cc" stroke="#d6b656" stroke-width="1.5" />
    <text x="450" y="244" text-anchor="middle" font-size="13" font-weight="bold" fill="#1a1a1a">DataHub</text>
    <text x="450" y="262" text-anchor="middle" font-size="10" fill="#555">cross-domain catalogue</text>
  </g>
</svg>