<svg xmlns="http://www.w3.org/2000/svg" viewBox="0 0 1280 476" font-family="Segoe UI, Helvetica, Arial, sans-serif">
  <defs>
    <marker id="arrow" markerWidth="10" markerHeight="7" refX="10" refY="3.5" orient="auto">
      <polygon points="0 0, 10 3.5, 0 7" fill="#333" />
    </marker>
    <marker id="arrow-gray" markerWidth="10" markerHeight="7" refX="10" refY="3.5" orient="auto">
      <polygon points="0 0, 10 3.5, 0 7" fill="#999" />
    </marker>
    <filter id="shadow" x="-4%" y="-4%" width="108%" height="108%">
      <feDropShadow dx="1" dy="2" stdDeviation="2" flood-opacity="0.12" />
    </filter>
  </defs>
  <rect width="1280" height="476" fill="#fafafa" rx="8" />
  <rect x="25" y="194" width="870" height="149" rx="8" fill="#f0f4ff" stroke="#b0c4de" stroke-width="1" stroke-dasharray="6,3" />
  <text x="35" y="210" font-size="11" font-weight="bold" fill="#b0c4de">Azure Databricks — ML + Streaming</text>
  <rect x="25" y="242" width="1170" height="149" rx="8" fill="#f0fff0" stroke="#90b090" stroke-width="1" stroke-dasharray="6,3" />
  <text x="35" y="258" font-size="11" font-weight="bold" fill="#90b090">Snowflake on Azure — SQL + BI</text>
  <line x1="580" y1="300" x2="633.7530495244557" y2="256.9975603804354" stroke="#555" stroke-width="1.5" marker-end="url(#arrow)" />
  <line x1="580" y1="300" x2="633.7530495244557" y2="256.9975603804354" stroke="#555" stroke-width="1.5" marker-end="url(#arrow)" />
  <line x1="280" y1="252" x2="333.7530495244558" y2="295.0024396195646" stroke="#555" stroke-width="1.5" marker-end="url(#arrow)" />
  <line x1="280" y1="252" x2="333.7530495244558" y2="295.0024396195646" stroke="#555" stroke-width="1.5" marker-end="url(#arrow)" />
  <line x1="580" y1="300" x2="633.7530495244557" y2="343.0024396195646" stroke="#555" stroke-width="1.5" marker-end="url(#arrow)" />
  <text x="610" y="320" text-anchor="middle" font-size="9" fill="#777">Delta UniForm, or COPY INTO</text>
  <line x1="880" y1="348" x2="933.7530495244557" y2="304.9975603804354" stroke="#555" stroke-width="1.5" marker-end="url(#arrow)" />
  <line x1="880" y1="348" x2="933.7530495244557" y2="304.9975603804354" stroke="#555" stroke-width="1.5" marker-end="url(#arrow)" />
  <g filter="url(#shadow)">
    <rect x="40" y="224" width="240" height="56" rx="8" fill="#dae8fc" stroke="#6c8ebf" stroke-width="1.5" />
    <text x="160" y="246" text-anchor="middle" font-size="13" font-weight="bold" fill="#1a1a1a">Structured Streaming</text>
    <text x="160" y="264" text-anchor="middle" font-size="10" fill="#555">Kafka ingestion</text>
  </g>
  <g filter="url(#shadow)">
    <rect x="340" y="272" width="240" height="56" rx="8" fill="#dae8fc" stroke="#6c8ebf" stroke-width="1.5" />
    <text x="460" y="294" text-anchor="middle" font-size="13" font-weight="bold" fill="#1a1a1a">Delta Lake</text>
    <text x="460" y="312" text-anchor="middle" font-size="10" fill="#555">Bronze, Silver</text>
  </g>
  <g filter="url(#shadow)">
    <rect x="640" y="224" width="240" height="56" rx="8" fill="#dae8fc" stroke="#6c8ebf" stroke-width="1.5" />
    <text x="760" y="246" text-anchor="middle" font-size="13" font-weight="bold" fill="#1a1a1a">MLflow</text>
    <text x="760" y="264" text-anchor="middle" font-size="10" fill="#555">model training</text>
  </g>
  <g filter="url(#shadow)">
    <rect x="640" y="320" width="240" height="56" rx="8" fill="#d5e8d4" stroke="#82b366" stroke-width="1.5" />
    <text x="760" y="342" text-anchor="middle" font-size="13" font-weight="bold" fill="#1a1a1a">Gold Tables</text>
    <text x="760" y="360" text-anchor="middle" font-size="10" fill="#555">via UniForm / external</text>
  </g>
  <g filter="url(#shadow)">
    <rect x="940" y="272" width="240" height="56" rx="8" fill="#d5e8d4" stroke="#82b366" stroke-width="1.5" />
    <text x="1060" y="294" text-anchor="middle" font-size="13" font-weight="bold" fill="#1a1a1a">dbt on Snowflake</text>
    <text x="1060" y="312" text-anchor="middle" font-size="10" fill="#555">mart models</text>
  </g>
  <g filter="url(#shadow)">
    <rect x="40" y="320" width="240" height="56" rx="8" fill="#d5e8d4" stroke="#82b366" stroke-width="1.5" />
    <text x="160" y="342" text-anchor="middle" font-size="13" font-weight="bold" fill="#1a1a1a">SQL Warehouses</text>
    <text x="160" y="360" text-anchor="middle" font-size="10" fill="#555">Tableau, Power BI</text>
  </g>
</svg>