<svg xmlns="http://www.w3.org/2000/svg" viewBox="0 0 820 378" font-family="Segoe UI, Helvetica, Arial, sans-serif">
  <defs>
    <marker id="arrow" markerWidth="10" markerHeight="7" refX="10" refY="3.5" orient="auto">
      <polygon points="0 0, 10 3.5, 0 7" fill="#333" />
    </marker>
    <marker id="arrow-gray" markerWidth="10" markerHeight="7" refX="10" refY="3.5" orient="auto">
      <polygon points="0 0, 10 3.5, 0 7" fill="#999" />
    </marker>
    <filter id="shadow" x="-4%" y="-4%" width="108%" height="108%">
      <feDropShadow dx="1" dy="2" stdDeviation="2" flood-opacity="0.12" />
    </filter>
  </defs>
  <rect width="820" height="378" fill="#fafafa" rx="8" />
  <rect x="165" y="0" width="570" height="293" rx="8" fill="#f0f4ff" stroke="#b0c4de" stroke-width="1" stroke-dasharray="6,3" />
  <text x="175" y="16" font-size="11" font-weight="bold" fill="#b0c4de">GCP Project</text>
  <line x1="450" y1="182" x2="307.72987951680994" y2="219.93869879551735" stroke="#555" stroke-width="1.5" marker-end="url(#arrow)" />
  <text x="375" y="198" text-anchor="middle" font-size="9" fill="#777">WIF auth</text>
  <line x1="450" y1="182" x2="592.27012048319" y2="219.93869879551735" stroke="#555" stroke-width="1.5" marker-end="url(#arrow)" />
  <text x="525" y="198" text-anchor="middle" font-size="9" fill="#777">Pub/Sub connector</text>
  <line x1="300" y1="86" x2="442.27012048319006" y2="123.93869879551734" stroke="#555" stroke-width="1.5" marker-end="url(#arrow)" />
  <text x="375" y="102" text-anchor="middle" font-size="9" fill="#777">Databricks provider</text>
  <g filter="url(#shadow)">
    <rect x="330" y="126" width="240" height="56" rx="8" fill="#dae8fc" stroke="#6c8ebf" stroke-width="1.5" />
    <text x="450" y="148" text-anchor="middle" font-size="13" font-weight="bold" fill="#1a1a1a">Databricks Workspace</text>
    <text x="450" y="166" text-anchor="middle" font-size="10" fill="#555">GKE-based workers</text>
  </g>
  <g filter="url(#shadow)">
    <rect x="180" y="222" width="240" height="56" rx="8" fill="#dae8fc" stroke="#6c8ebf" stroke-width="1.5" />
    <text x="300" y="244" text-anchor="middle" font-size="13" font-weight="bold" fill="#1a1a1a">Google Cloud Storage</text>
    <text x="300" y="262" text-anchor="middle" font-size="10" fill="#555">Bronze, Silver, Gold</text>
  </g>
  <g filter="url(#shadow)">
    <rect x="480" y="222" width="240" height="56" rx="8" fill="#dae8fc" stroke="#6c8ebf" stroke-width="1.5" />
    <text x="600" y="244" text-anchor="middle" font-size="13" font-weight="bold" fill="#1a1a1a">Cloud Pub/Sub</text>
    <text x="600" y="262" text-anchor="middle" font-size="10" fill="#555">Streaming events</text>
  </g>
  <g filter="url(#shadow)">
    <rect x="180" y="30" width="240" height="56" rx="8" fill="#dae8fc" stroke="#6c8ebf" stroke-width="1.5" />
    <text x="300" y="52" text-anchor="middle" font-size="13" font-weight="bold" fill="#1a1a1a">Cloud Composer</text>
    <text x="300" y="70" text-anchor="middle" font-size="10" fill="#555">Managed Airflow</text>
  </g>
  <g filter="url(#shadow)">
    <rect x="480" y="30" width="240" height="56" rx="8" fill="#dae8fc" stroke="#6c8ebf" stroke-width="1.5" />
    <text x="600" y="52" text-anchor="middle" font-size="13" font-weight="bold" fill="#1a1a1a">Workload Identity Federation</text>
    <text x="600" y="70" text-anchor="middle" font-size="10" fill="#555">No service account keys</text>
  </g>
</svg>