<svg xmlns="http://www.w3.org/2000/svg" viewBox="0 0 980 378" font-family="Segoe UI, Helvetica, Arial, sans-serif">
  <defs>
    <marker id="arrow" markerWidth="10" markerHeight="7" refX="10" refY="3.5" orient="auto">
      <polygon points="0 0, 10 3.5, 0 7" fill="#333" />
    </marker>
    <marker id="arrow-gray" markerWidth="10" markerHeight="7" refX="10" refY="3.5" orient="auto">
      <polygon points="0 0, 10 3.5, 0 7" fill="#999" />
    </marker>
    <filter id="shadow" x="-4%" y="-4%" width="108%" height="108%">
      <feDropShadow dx="1" dy="2" stdDeviation="2" flood-opacity="0.12" />
    </filter>
  </defs>
  <rect width="980" height="378" fill="#fafafa" rx="8" />
  <rect x="165" y="0" width="420" height="197" rx="8" fill="#f0f4ff" stroke="#b0c4de" stroke-width="1" stroke-dasharray="6,3" />
  <text x="175" y="16" font-size="11" font-weight="bold" fill="#b0c4de">Azure Databricks Workspace</text>
  <line x1="300" y1="86" x2="442.27012048319006" y2="123.93869879551734" stroke="#555" stroke-width="1.5" marker-end="url(#arrow)" />
  <line x1="450" y1="182" x2="167.9249690339478" y2="220.90690082290376" stroke="#555" stroke-width="1.5" marker-end="url(#arrow)" />
  <text x="305" y="198" text-anchor="middle" font-size="9" fill="#777">Managed Identity auth</text>
  <line x1="450" y1="182" x2="458.05971499970934" y2="214.23885999883734" stroke="#555" stroke-width="1.5" marker-end="url(#arrow)" />
  <text x="455" y="198" text-anchor="middle" font-size="9" fill="#777">Kafka protocol</text>
  <line x1="450" y1="182" x2="752.0657770669278" y2="220.97622929895843" stroke="#555" stroke-width="1.5" marker-end="url(#arrow)" />
  <text x="605" y="198" text-anchor="middle" font-size="9" fill="#777">secret scope</text>
  <g filter="url(#shadow)">
    <rect x="180" y="30" width="240" height="56" rx="8" fill="#dae8fc" stroke="#6c8ebf" stroke-width="1.5" />
    <text x="300" y="52" text-anchor="middle" font-size="13" font-weight="bold" fill="#1a1a1a">Control Plane</text>
    <text x="300" y="70" text-anchor="middle" font-size="10" fill="#555">Databricks-managed, UI, APIs, Jobs</text>
  </g>
  <g filter="url(#shadow)">
    <rect x="330" y="126" width="240" height="56" rx="8" fill="#dae8fc" stroke="#6c8ebf" stroke-width="1.5" />
    <text x="450" y="148" text-anchor="middle" font-size="13" font-weight="bold" fill="#1a1a1a">Data Plane</text>
    <text x="450" y="166" text-anchor="middle" font-size="10" fill="#555">Your VNet, Driver + Worker VMs</text>
  </g>
  <g filter="url(#shadow)">
    <rect x="40" y="222" width="240" height="56" rx="8" fill="#dae8fc" stroke="#6c8ebf" stroke-width="1.5" />
    <text x="160" y="244" text-anchor="middle" font-size="13" font-weight="bold" fill="#1a1a1a">Azure Data Lake Storage Gen2</text>
    <text x="160" y="262" text-anchor="middle" font-size="10" fill="#555">Bronze, Silver, Gold data</text>
  </g>
  <g filter="url(#shadow)">
    <rect x="340" y="222" width="240" height="56" rx="8" fill="#d5e8d4" stroke="#82b366" stroke-width="1.5" />
    <text x="460" y="244" text-anchor="middle" font-size="13" font-weight="bold" fill="#1a1a1a">Azure Event Hubs</text>
    <text x="460" y="262" text-anchor="middle" font-size="10" fill="#555">Kafka-compatible streaming</text>
  </g>
  <g filter="url(#shadow)">
    <rect x="640" y="222" width="240" height="56" rx="8" fill="#fff2cc" stroke="#d6b656" stroke-width="1.5" />
    <text x="760" y="244" text-anchor="middle" font-size="13" font-weight="bold" fill="#1a1a1a">Azure Key Vault</text>
    <text x="760" y="262" text-anchor="middle" font-size="10" fill="#555">Secrets management</text>
  </g>
  <g filter="url(#shadow)">
    <rect x="480" y="30" width="240" height="56" rx="8" fill="#e1d5e7" stroke="#9673a6" stroke-width="1.5" />
    <text x="600" y="52" text-anchor="middle" font-size="13" font-weight="bold" fill="#1a1a1a">Managed Identity</text>
    <text x="600" y="70" text-anchor="middle" font-size="10" fill="#555">No passwords for storage auth</text>
  </g>
</svg>