<svg xmlns="http://www.w3.org/2000/svg" viewBox="0 0 1280 300" font-family="Segoe UI, Helvetica, Arial, sans-serif">
  <defs>
    <marker id="arrow" markerWidth="10" markerHeight="7" refX="10" refY="3.5" orient="auto">
      <polygon points="0 0, 10 3.5, 0 7" fill="#333" />
    </marker>
    <marker id="arrow-gray" markerWidth="10" markerHeight="7" refX="10" refY="3.5" orient="auto">
      <polygon points="0 0, 10 3.5, 0 7" fill="#999" />
    </marker>
    <filter id="shadow" x="-4%" y="-4%" width="108%" height="108%">
      <feDropShadow dx="1" dy="2" stdDeviation="2" flood-opacity="0.12" />
    </filter>
  </defs>
  <rect width="1280" height="300" fill="#fafafa" rx="8" />
  <rect x="25" y="0" width="570" height="101" rx="8" fill="#f0f4ff" stroke="#b0c4de" stroke-width="1" stroke-dasharray="6,3" />
  <text x="35" y="16" font-size="11" font-weight="bold" fill="#b0c4de">Customer VPC</text>
  <line x1="460" y1="86" x2="307.76114000116263" y2="124.05971499970934" stroke="#555" stroke-width="1.5" marker-end="url(#arrow)" />
  <text x="380" y="102" text-anchor="middle" font-size="9" fill="#777">Instance Profile</text>
  <line x1="460" y1="86" x2="592.3078084188734" y2="123.80223097682098" stroke="#555" stroke-width="1.5" marker-end="url(#arrow)" />
  <text x="530" y="102" text-anchor="middle" font-size="9" fill="#777">Kafka protocol</text>
  <g filter="url(#shadow)">
    <rect x="40" y="30" width="240" height="56" rx="8" fill="#dae8fc" stroke="#6c8ebf" stroke-width="1.5" />
    <text x="160" y="52" text-anchor="middle" font-size="13" font-weight="bold" fill="#1a1a1a">Databricks Control Plane</text>
    <text x="160" y="70" text-anchor="middle" font-size="10" fill="#555">Cross-account IAM role</text>
  </g>
  <g filter="url(#shadow)">
    <rect x="340" y="30" width="240" height="56" rx="8" fill="#dae8fc" stroke="#6c8ebf" stroke-width="1.5" />
    <text x="460" y="52" text-anchor="middle" font-size="13" font-weight="bold" fill="#1a1a1a">Databricks Data Plane</text>
    <text x="460" y="70" text-anchor="middle" font-size="10" fill="#555">EC2 Driver + Workers</text>
  </g>
  <g filter="url(#shadow)">
    <rect x="180" y="126" width="240" height="56" rx="8" fill="#dae8fc" stroke="#6c8ebf" stroke-width="1.5" />
    <text x="300" y="148" text-anchor="middle" font-size="13" font-weight="bold" fill="#1a1a1a">Amazon S3</text>
    <text x="300" y="166" text-anchor="middle" font-size="10" fill="#555">Bronze, Silver, Gold</text>
  </g>
  <g filter="url(#shadow)">
    <rect x="480" y="126" width="240" height="56" rx="8" fill="#d5e8d4" stroke="#82b366" stroke-width="1.5" />
    <text x="600" y="148" text-anchor="middle" font-size="13" font-weight="bold" fill="#1a1a1a">Amazon MSK</text>
    <text x="600" y="166" text-anchor="middle" font-size="10" fill="#555">Managed Kafka</text>
  </g>
  <g filter="url(#shadow)">
    <rect x="640" y="30" width="240" height="56" rx="8" fill="#fff2cc" stroke="#d6b656" stroke-width="1.5" />
    <text x="760" y="52" text-anchor="middle" font-size="13" font-weight="bold" fill="#1a1a1a">AWS Glue</text>
    <text x="760" y="70" text-anchor="middle" font-size="10" fill="#555">Data Catalog optional</text>
  </g>
  <g filter="url(#shadow)">
    <rect x="940" y="30" width="240" height="56" rx="8" fill="#e1d5e7" stroke="#9673a6" stroke-width="1.5" />
    <text x="1060" y="52" text-anchor="middle" font-size="13" font-weight="bold" fill="#1a1a1a">IAM Instance Profile</text>
    <text x="1060" y="70" text-anchor="middle" font-size="10" fill="#555">Grants EC2 to S3 access</text>
  </g>
</svg>