<svg xmlns="http://www.w3.org/2000/svg" viewBox="0 0 1580 620" font-family="Segoe UI, Helvetica, Arial, sans-serif">
  <defs>
    <marker id="arrow" markerWidth="10" markerHeight="7" refX="10" refY="3.5" orient="auto">
      <polygon points="0 0, 10 3.5, 0 7" fill="#333" />
    </marker>
    <marker id="arrow-gray" markerWidth="10" markerHeight="7" refX="10" refY="3.5" orient="auto">
      <polygon points="0 0, 10 3.5, 0 7" fill="#999" />
    </marker>
    <filter id="shadow" x="-4%" y="-4%" width="108%" height="108%">
      <feDropShadow dx="1" dy="2" stdDeviation="2" flood-opacity="0.12" />
    </filter>
  </defs>
  <rect width="1580" height="620" fill="#fafafa" rx="8" />
  <rect x="25" y="50" width="270" height="389" rx="8" fill="#f0f4ff" stroke="#b0c4de" stroke-width="1" stroke-dasharray="6,3" />
  <text x="35" y="66" font-size="11" font-weight="bold" fill="#b0c4de">50 Sources</text>
  <line x1="280" y1="492" x2="337.6138000549124" y2="307.63583982428025" stroke="#555" stroke-width="1.5" marker-end="url(#arrow)" />
  <text x="310" y="392" text-anchor="middle" font-size="9" fill="#777">dbt staging</text>
  <line x1="580" y1="300" x2="632.0" y2="300.0" stroke="#555" stroke-width="1.5" marker-end="url(#arrow)" />
  <text x="610" y="296" text-anchor="middle" font-size="9" fill="#777">dbt intermediate</text>
  <line x1="880" y1="300" x2="932.0" y2="300.0" stroke="#555" stroke-width="1.5" marker-end="url(#arrow)" />
  <text x="910" y="296" text-anchor="middle" font-size="9" fill="#777">dbt marts</text>
  <line x1="1180" y1="300" x2="1235.7600084799747" y2="210.7839864320407" stroke="#555" stroke-width="1.5" marker-end="url(#arrow)" />
  <line x1="1180" y1="300" x2="1235.7600084799747" y2="210.7839864320407" stroke="#555" stroke-width="1.5" marker-end="url(#arrow)" />
  <line x1="1180" y1="300" x2="1232.0" y2="300.0" stroke="#555" stroke-width="1.5" marker-end="url(#arrow)" />
  <text x="1210" y="296" text-anchor="middle" font-size="9" fill="#777">Data Sharing</text>
  <line x1="1180" y1="300" x2="1235.7600084799747" y2="389.2160135679593" stroke="#555" stroke-width="1.5" marker-end="url(#arrow)" />
  <line x1="1180" y1="300" x2="1235.7600084799747" y2="389.2160135679593" stroke="#555" stroke-width="1.5" marker-end="url(#arrow)" />
  <g filter="url(#shadow)">
    <rect x="40" y="80" width="240" height="56" rx="8" fill="#dae8fc" stroke="#6c8ebf" stroke-width="1.5" />
    <text x="160" y="113" text-anchor="middle" font-size="13" font-weight="bold" fill="#1a1a1a">12 ERP systems</text>
  </g>
  <g filter="url(#shadow)">
    <rect x="40" y="176" width="240" height="56" rx="8" fill="#dae8fc" stroke="#6c8ebf" stroke-width="1.5" />
    <text x="160" y="209" text-anchor="middle" font-size="13" font-weight="bold" fill="#1a1a1a">Salesforce</text>
  </g>
  <g filter="url(#shadow)">
    <rect x="40" y="272" width="240" height="56" rx="8" fill="#dae8fc" stroke="#6c8ebf" stroke-width="1.5" />
    <text x="160" y="305" text-anchor="middle" font-size="13" font-weight="bold" fill="#1a1a1a">Shopify</text>
  </g>
  <g filter="url(#shadow)">
    <rect x="40" y="368" width="240" height="56" rx="8" fill="#dae8fc" stroke="#6c8ebf" stroke-width="1.5" />
    <text x="160" y="401" text-anchor="middle" font-size="13" font-weight="bold" fill="#1a1a1a">35 Supplier feeds</text>
  </g>
  <g filter="url(#shadow)">
    <rect x="40" y="464" width="240" height="56" rx="8" fill="#dae8fc" stroke="#6c8ebf" stroke-width="1.5" />
    <text x="160" y="486" text-anchor="middle" font-size="13" font-weight="bold" fill="#1a1a1a">Raw Schema</text>
    <text x="160" y="504" text-anchor="middle" font-size="10" fill="#555">Snowflake</text>
  </g>
  <g filter="url(#shadow)">
    <rect x="340" y="272" width="240" height="56" rx="8" fill="#d5e8d4" stroke="#82b366" stroke-width="1.5" />
    <text x="460" y="294" text-anchor="middle" font-size="13" font-weight="bold" fill="#1a1a1a">Staging Models</text>
    <text x="460" y="312" text-anchor="middle" font-size="10" fill="#555">Snowflake</text>
  </g>
  <g filter="url(#shadow)">
    <rect x="640" y="272" width="240" height="56" rx="8" fill="#fff2cc" stroke="#d6b656" stroke-width="1.5" />
    <text x="760" y="294" text-anchor="middle" font-size="13" font-weight="bold" fill="#1a1a1a">Intermediate</text>
    <text x="760" y="312" text-anchor="middle" font-size="10" fill="#555">Snowflake</text>
  </g>
  <g filter="url(#shadow)">
    <rect x="940" y="272" width="240" height="56" rx="8" fill="#e1d5e7" stroke="#9673a6" stroke-width="1.5" />
    <text x="1060" y="294" text-anchor="middle" font-size="13" font-weight="bold" fill="#1a1a1a">Gold Marts</text>
    <text x="1060" y="312" text-anchor="middle" font-size="10" fill="#555">Snowflake</text>
  </g>
  <g filter="url(#shadow)">
    <rect x="1240" y="176" width="240" height="56" rx="8" fill="#f8cecc" stroke="#b85450" stroke-width="1.5" />
    <text x="1360" y="209" text-anchor="middle" font-size="13" font-weight="bold" fill="#1a1a1a">Tableau</text>
  </g>
  <g filter="url(#shadow)">
    <rect x="1240" y="272" width="240" height="56" rx="8" fill="#d0e0e3" stroke="#56839b" stroke-width="1.5" />
    <text x="1360" y="305" text-anchor="middle" font-size="13" font-weight="bold" fill="#1a1a1a">Supplier Partners</text>
  </g>
  <g filter="url(#shadow)">
    <rect x="1240" y="368" width="240" height="56" rx="8" fill="#fce5cd" stroke="#d79b00" stroke-width="1.5" />
    <text x="1360" y="390" text-anchor="middle" font-size="13" font-weight="bold" fill="#1a1a1a">Databricks</text>
    <text x="1360" y="408" text-anchor="middle" font-size="10" fill="#555">Demand Forecasting ML</text>
  </g>
</svg>