<svg xmlns="http://www.w3.org/2000/svg" viewBox="0 0 1280 524" font-family="Segoe UI, Helvetica, Arial, sans-serif">
  <defs>
    <marker id="arrow" markerWidth="10" markerHeight="7" refX="10" refY="3.5" orient="auto">
      <polygon points="0 0, 10 3.5, 0 7" fill="#333" />
    </marker>
    <marker id="arrow-gray" markerWidth="10" markerHeight="7" refX="10" refY="3.5" orient="auto">
      <polygon points="0 0, 10 3.5, 0 7" fill="#999" />
    </marker>
    <filter id="shadow" x="-4%" y="-4%" width="108%" height="108%">
      <feDropShadow dx="1" dy="2" stdDeviation="2" flood-opacity="0.12" />
    </filter>
  </defs>
  <rect width="1280" height="524" fill="#fafafa" rx="8" />
  <line x1="280" y1="348" x2="336.9230769230769" y2="211.3846153846154" stroke="#555" stroke-width="1.5" marker-end="url(#arrow)" />
  <text x="310" y="272" text-anchor="middle" font-size="9" fill="#777">clean records</text>
  <line x1="280" y1="348" x2="333.7530495244558" y2="304.9975603804354" stroke="#555" stroke-width="1.5" marker-end="url(#arrow)" />
  <text x="310" y="320" text-anchor="middle" font-size="9" fill="#777">failed records</text>
  <line x1="280" y1="348" x2="333.7530495244558" y2="391.0024396195646" stroke="#555" stroke-width="1.5" marker-end="url(#arrow)" />
  <text x="310" y="368" text-anchor="middle" font-size="9" fill="#777">event log</text>
  <line x1="580" y1="396" x2="633.7530495244557" y2="352.9975603804354" stroke="#555" stroke-width="1.5" marker-end="url(#arrow)" />
  <line x1="580" y1="396" x2="633.7530495244557" y2="352.9975603804354" stroke="#555" stroke-width="1.5" marker-end="url(#arrow)" />
  <line x1="880" y1="348" x2="933.7530495244557" y2="304.9975603804354" stroke="#555" stroke-width="1.5" marker-end="url(#arrow)" />
  <text x="910" y="320" text-anchor="middle" font-size="9" fill="#777">threshold breach</text>
  <line x1="580" y1="300" x2="633.7530495244557" y2="256.9975603804354" stroke="#555" stroke-width="1.5" marker-end="url(#arrow)" />
  <line x1="580" y1="300" x2="633.7530495244557" y2="256.9975603804354" stroke="#555" stroke-width="1.5" marker-end="url(#arrow)" />
  <line x1="880" y1="252" x2="347.9685811255415" y2="204.70831832227034" stroke="#555" stroke-width="1.5" marker-end="url(#arrow)" />
  <text x="610" y="224" text-anchor="middle" font-size="9" fill="#777">fixed records</text>
  <g filter="url(#shadow)">
    <rect x="40" y="224" width="240" height="56" rx="8" fill="#dae8fc" stroke="#6c8ebf" stroke-width="1.5" />
    <text x="160" y="246" text-anchor="middle" font-size="13" font-weight="bold" fill="#1a1a1a">Kafka</text>
    <text x="160" y="264" text-anchor="middle" font-size="10" fill="#555">payments topic</text>
  </g>
  <g filter="url(#shadow)">
    <rect x="40" y="320" width="240" height="56" rx="8" fill="#d5e8d4" stroke="#82b366" stroke-width="1.5" />
    <text x="160" y="342" text-anchor="middle" font-size="13" font-weight="bold" fill="#1a1a1a">DLT Pipeline</text>
    <text x="160" y="360" text-anchor="middle" font-size="10" fill="#555">with Expectations</text>
  </g>
  <g filter="url(#shadow)">
    <rect x="340" y="176" width="240" height="56" rx="8" fill="#fff2cc" stroke="#d6b656" stroke-width="1.5" />
    <text x="460" y="198" text-anchor="middle" font-size="13" font-weight="bold" fill="#1a1a1a">Silver Delta</text>
    <text x="460" y="216" text-anchor="middle" font-size="10" fill="#555">silver.payments</text>
  </g>
  <g filter="url(#shadow)">
    <rect x="340" y="272" width="240" height="56" rx="8" fill="#e1d5e7" stroke="#9673a6" stroke-width="1.5" />
    <text x="460" y="294" text-anchor="middle" font-size="13" font-weight="bold" fill="#1a1a1a">Quarantine Delta</text>
    <text x="460" y="312" text-anchor="middle" font-size="10" fill="#555">silver.payments_quarantine</text>
  </g>
  <g filter="url(#shadow)">
    <rect x="340" y="368" width="240" height="56" rx="8" fill="#f8cecc" stroke="#b85450" stroke-width="1.5" />
    <text x="460" y="401" text-anchor="middle" font-size="13" font-weight="bold" fill="#1a1a1a">DLT Event Log</text>
  </g>
  <g filter="url(#shadow)">
    <rect x="640" y="320" width="240" height="56" rx="8" fill="#d0e0e3" stroke="#56839b" stroke-width="1.5" />
    <text x="760" y="342" text-anchor="middle" font-size="13" font-weight="bold" fill="#1a1a1a">Quality Dashboard</text>
    <text x="760" y="360" text-anchor="middle" font-size="10" fill="#555">Databricks SQL</text>
  </g>
  <g filter="url(#shadow)">
    <rect x="940" y="272" width="240" height="56" rx="8" fill="#fce5cd" stroke="#d79b00" stroke-width="1.5" />
    <text x="1060" y="305" text-anchor="middle" font-size="13" font-weight="bold" fill="#1a1a1a">PagerDuty / Slack</text>
  </g>
  <g filter="url(#shadow)">
    <rect x="640" y="224" width="240" height="56" rx="8" fill="#f5f5f5" stroke="#999999" stroke-width="1.5" />
    <text x="760" y="246" text-anchor="middle" font-size="13" font-weight="bold" fill="#1a1a1a">Auto-Heal Job</text>
    <text x="760" y="264" text-anchor="middle" font-size="10" fill="#555">attempt reprocessing</text>
  </g>
</svg>