<svg xmlns="http://www.w3.org/2000/svg" viewBox="0 0 1280 378" font-family="Segoe UI, Helvetica, Arial, sans-serif">
  <defs>
    <marker id="arrow" markerWidth="10" markerHeight="7" refX="10" refY="3.5" orient="auto">
      <polygon points="0 0, 10 3.5, 0 7" fill="#333" />
    </marker>
    <marker id="arrow-gray" markerWidth="10" markerHeight="7" refX="10" refY="3.5" orient="auto">
      <polygon points="0 0, 10 3.5, 0 7" fill="#999" />
    </marker>
    <filter id="shadow" x="-4%" y="-4%" width="108%" height="108%">
      <feDropShadow dx="1" dy="2" stdDeviation="2" flood-opacity="0.12" />
    </filter>
  </defs>
  <rect width="1280" height="378" fill="#fafafa" rx="8" />
  <rect x="165" y="0" width="270" height="197" rx="8" fill="#f0f4ff" stroke="#b0c4de" stroke-width="1" stroke-dasharray="6,3" />
  <text x="175" y="16" font-size="11" font-weight="bold" fill="#b0c4de">Offline Store — Delta Lake</text>
  <rect x="25" y="0" width="710" height="293" rx="8" fill="#f0fff0" stroke="#90b090" stroke-width="1" stroke-dasharray="6,3" />
  <text x="35" y="16" font-size="11" font-weight="bold" fill="#90b090">Model Training</text>
  <rect x="165" y="96" width="430" height="197" rx="8" fill="#fffaf0" stroke="#d0b880" stroke-width="1" stroke-dasharray="6,3" />
  <text x="175" y="112" font-size="11" font-weight="bold" fill="#d0b880">Online Store — Redis</text>
  <rect x="325" y="96" width="870" height="197" rx="8" fill="#f8f0ff" stroke="#b090c0" stroke-width="1" stroke-dasharray="6,3" />
  <text x="335" y="112" font-size="11" font-weight="bold" fill="#b090c0">Inference</text>
  <line x1="300" y1="86" x2="300.0" y2="118.0" stroke="#555" stroke-width="1.5" marker-end="url(#arrow)" />
  <line x1="300" y1="86" x2="300.0" y2="118.0" stroke="#555" stroke-width="1.5" marker-end="url(#arrow)" />
  <line x1="300" y1="182" x2="167.6921915811266" y2="219.80223097682097" stroke="#555" stroke-width="1.5" marker-end="url(#arrow)" />
  <line x1="600" y1="86" x2="600.0" y2="118.0" stroke="#555" stroke-width="1.5" marker-end="url(#arrow)" />
  <line x1="300" y1="182" x2="167.6921915811266" y2="219.80223097682097" stroke="#555" stroke-width="1.5" marker-end="url(#arrow)" />
  <line x1="600" y1="86" x2="600.0" y2="118.0" stroke="#555" stroke-width="1.5" marker-end="url(#arrow)" />
  <line x1="300" y1="182" x2="452.23885999883737" y2="220.05971499970934" stroke="#555" stroke-width="1.5" marker-end="url(#arrow)" />
  <text x="380" y="198" text-anchor="middle" font-size="9" fill="#777">nightly sync</text>
  <line x1="600" y1="182" x2="752.2388599988374" y2="220.05971499970934" stroke="#555" stroke-width="1.5" marker-end="url(#arrow)" />
  <line x1="600" y1="182" x2="752.2388599988374" y2="220.05971499970934" stroke="#555" stroke-width="1.5" marker-end="url(#arrow)" />
  <line x1="600" y1="182" x2="1052.0300752944345" y2="221.30696306908126" stroke="#555" stroke-width="1.5" marker-end="url(#arrow)" />
  <line x1="600" y1="182" x2="1052.0300752944345" y2="221.30696306908126" stroke="#555" stroke-width="1.5" marker-end="url(#arrow)" />
  <line x1="460" y1="278" x2="1052.0346184341488" y2="222.7434356128128" stroke="#555" stroke-width="1.5" marker-end="url(#arrow)" />
  <line x1="460" y1="278" x2="1052.0346184341488" y2="222.7434356128128" stroke="#555" stroke-width="1.5" marker-end="url(#arrow)" />
  <g filter="url(#shadow)">
    <rect x="180" y="30" width="240" height="56" rx="8" fill="#dae8fc" stroke="#6c8ebf" stroke-width="1.5" />
    <text x="300" y="52" text-anchor="middle" font-size="13" font-weight="bold" fill="#1a1a1a">Silver Tables</text>
    <text x="300" y="70" text-anchor="middle" font-size="10" fill="#555">raw events</text>
  </g>
  <g filter="url(#shadow)">
    <rect x="180" y="126" width="240" height="56" rx="8" fill="#fff2cc" stroke="#d6b656" stroke-width="1.5" />
    <text x="300" y="148" text-anchor="middle" font-size="13" font-weight="bold" fill="#1a1a1a">Feature Tables</text>
    <text x="300" y="166" text-anchor="middle" font-size="10" fill="#555">precomputed daily</text>
  </g>
  <g filter="url(#shadow)">
    <rect x="40" y="222" width="240" height="56" rx="8" fill="#d5e8d4" stroke="#82b366" stroke-width="1.5" />
    <text x="160" y="244" text-anchor="middle" font-size="13" font-weight="bold" fill="#1a1a1a">Feature Store</text>
    <text x="160" y="262" text-anchor="middle" font-size="10" fill="#555">training set creation</text>
  </g>
  <g filter="url(#shadow)">
    <rect x="480" y="30" width="240" height="56" rx="8" fill="#d5e8d4" stroke="#82b366" stroke-width="1.5" />
    <text x="600" y="63" text-anchor="middle" font-size="13" font-weight="bold" fill="#1a1a1a">MLflow Experiments</text>
  </g>
  <g filter="url(#shadow)">
    <rect x="480" y="126" width="240" height="56" rx="8" fill="#e1d5e7" stroke="#9673a6" stroke-width="1.5" />
    <text x="600" y="159" text-anchor="middle" font-size="13" font-weight="bold" fill="#1a1a1a">Model Registry</text>
  </g>
  <g filter="url(#shadow)">
    <rect x="340" y="222" width="240" height="56" rx="8" fill="#e1d5e7" stroke="#9673a6" stroke-width="1.5" />
    <text x="460" y="244" text-anchor="middle" font-size="13" font-weight="bold" fill="#1a1a1a">Redis</text>
    <text x="460" y="262" text-anchor="middle" font-size="10" fill="#555">latest features per entity</text>
  </g>
  <g filter="url(#shadow)">
    <rect x="640" y="222" width="240" height="56" rx="8" fill="#e1d5e7" stroke="#9673a6" stroke-width="1.5" />
    <text x="760" y="244" text-anchor="middle" font-size="13" font-weight="bold" fill="#1a1a1a">Batch Scoring Job</text>
    <text x="760" y="262" text-anchor="middle" font-size="10" fill="#555">daily Delta table</text>
  </g>
  <g filter="url(#shadow)">
    <rect x="940" y="222" width="240" height="56" rx="8" fill="#e1d5e7" stroke="#9673a6" stroke-width="1.5" />
    <text x="1060" y="244" text-anchor="middle" font-size="13" font-weight="bold" fill="#1a1a1a">FastAPI + Model Serving</text>
    <text x="1060" y="262" text-anchor="middle" font-size="10" fill="#555">real-time &lt; 100ms</text>
  </g>
</svg>