<svg xmlns="http://www.w3.org/2000/svg" viewBox="0 0 1580 524" font-family="Segoe UI, Helvetica, Arial, sans-serif">
  <defs>
    <marker id="arrow" markerWidth="10" markerHeight="7" refX="10" refY="3.5" orient="auto">
      <polygon points="0 0, 10 3.5, 0 7" fill="#333" />
    </marker>
    <marker id="arrow-gray" markerWidth="10" markerHeight="7" refX="10" refY="3.5" orient="auto">
      <polygon points="0 0, 10 3.5, 0 7" fill="#999" />
    </marker>
    <filter id="shadow" x="-4%" y="-4%" width="108%" height="108%">
      <feDropShadow dx="1" dy="2" stdDeviation="2" flood-opacity="0.12" />
    </filter>
  </defs>
  <rect width="1580" height="524" fill="#fafafa" rx="8" />
  <line x1="280" y1="300" x2="332.0" y2="300.0" stroke="#555" stroke-width="1.5" marker-end="url(#arrow)" />
  <text x="310" y="296" text-anchor="middle" font-size="9" fill="#777">Structured Streaming</text>
  <line x1="580" y1="300" x2="632.0" y2="300.0" stroke="#555" stroke-width="1.5" marker-end="url(#arrow)" />
  <text x="610" y="296" text-anchor="middle" font-size="9" fill="#777">Delta with UniForm</text>
  <line x1="880" y1="300" x2="933.7530495244557" y2="256.9975603804354" stroke="#555" stroke-width="1.5" marker-end="url(#arrow)" />
  <text x="910" y="272" text-anchor="middle" font-size="9" fill="#777">Iceberg metadata</text>
  <line x1="1180" y1="252" x2="1233.7530495244557" y2="295.0024396195646" stroke="#555" stroke-width="1.5" marker-end="url(#arrow)" />
  <text x="1210" y="272" text-anchor="middle" font-size="9" fill="#777">Data Sharing</text>
  <line x1="880" y1="300" x2="933.7530495244557" y2="343.0024396195646" stroke="#555" stroke-width="1.5" marker-end="url(#arrow)" />
  <text x="910" y="320" text-anchor="middle" font-size="9" fill="#777">Feature Store</text>
  <g filter="url(#shadow)">
    <rect x="40" y="176" width="240" height="56" rx="8" fill="#dae8fc" stroke="#6c8ebf" stroke-width="1.5" />
    <text x="160" y="209" text-anchor="middle" font-size="13" font-weight="bold" fill="#1a1a1a">(PostgreSQL)</text>
  </g>
  <g filter="url(#shadow)">
    <rect x="40" y="272" width="240" height="56" rx="8" fill="#d5e8d4" stroke="#82b366" stroke-width="1.5" />
    <text x="160" y="294" text-anchor="middle" font-size="13" font-weight="bold" fill="#1a1a1a">Kafka</text>
    <text x="160" y="312" text-anchor="middle" font-size="10" fill="#555">payments topic</text>
  </g>
  <g filter="url(#shadow)">
    <rect x="40" y="368" width="240" height="56" rx="8" fill="#fff2cc" stroke="#d6b656" stroke-width="1.5" />
    <text x="160" y="401" text-anchor="middle" font-size="13" font-weight="bold" fill="#1a1a1a">Mobile/Web App</text>
  </g>
  <g filter="url(#shadow)">
    <rect x="340" y="272" width="240" height="56" rx="8" fill="#e1d5e7" stroke="#9673a6" stroke-width="1.5" />
    <text x="460" y="294" text-anchor="middle" font-size="13" font-weight="bold" fill="#1a1a1a">Databricks</text>
    <text x="460" y="312" text-anchor="middle" font-size="10" fill="#555">Fraud ML Scoring</text>
  </g>
  <g filter="url(#shadow)">
    <rect x="640" y="272" width="240" height="56" rx="8" fill="#f8cecc" stroke="#b85450" stroke-width="1.5" />
    <text x="760" y="294" text-anchor="middle" font-size="13" font-weight="bold" fill="#1a1a1a">ADLS Gen2</text>
    <text x="760" y="312" text-anchor="middle" font-size="10" fill="#555">Bronze, Silver, Gold</text>
  </g>
  <g filter="url(#shadow)">
    <rect x="940" y="224" width="240" height="56" rx="8" fill="#d0e0e3" stroke="#56839b" stroke-width="1.5" />
    <text x="1060" y="246" text-anchor="middle" font-size="13" font-weight="bold" fill="#1a1a1a">Snowflake</text>
    <text x="1060" y="264" text-anchor="middle" font-size="10" fill="#555">Compliance Reporting</text>
  </g>
  <g filter="url(#shadow)">
    <rect x="1240" y="272" width="240" height="56" rx="8" fill="#fce5cd" stroke="#d79b00" stroke-width="1.5" />
    <text x="1360" y="305" text-anchor="middle" font-size="13" font-weight="bold" fill="#1a1a1a">External Auditors</text>
  </g>
  <g filter="url(#shadow)">
    <rect x="940" y="320" width="240" height="56" rx="8" fill="#f5f5f5" stroke="#999999" stroke-width="1.5" />
    <text x="1060" y="342" text-anchor="middle" font-size="13" font-weight="bold" fill="#1a1a1a">MLflow</text>
    <text x="1060" y="360" text-anchor="middle" font-size="10" fill="#555">Fraud Model</text>
  </g>
</svg>