<svg xmlns="http://www.w3.org/2000/svg" viewBox="0 0 1880 474" font-family="Segoe UI, Helvetica, Arial, sans-serif">
  <defs>
    <marker id="arrow" markerWidth="10" markerHeight="7" refX="10" refY="3.5" orient="auto">
      <polygon points="0 0, 10 3.5, 0 7" fill="#333" />
    </marker>
    <marker id="arrow-gray" markerWidth="10" markerHeight="7" refX="10" refY="3.5" orient="auto">
      <polygon points="0 0, 10 3.5, 0 7" fill="#999" />
    </marker>
    <filter id="shadow" x="-4%" y="-4%" width="108%" height="108%">
      <feDropShadow dx="1" dy="2" stdDeviation="2" flood-opacity="0.12" />
    </filter>
  </defs>
  <rect width="1880" height="474" fill="#fafafa" rx="8" />
  <rect x="25" y="96" width="1470" height="101" rx="8" fill="#f0f4ff" stroke="#b0c4de" stroke-width="1" stroke-dasharray="6,3" />
  <text x="35" y="112" font-size="11" font-weight="bold" fill="#b0c4de">MCP Tools Available to Agent</text>
  <line x1="600" y1="86" x2="167.96714565174162" y2="125.27571403165985" stroke="#555" stroke-width="1.5" marker-end="url(#arrow)" />
  <line x1="600" y1="86" x2="167.96714565174162" y2="125.27571403165985" stroke="#555" stroke-width="1.5" marker-end="url(#arrow)" />
  <line x1="600" y1="86" x2="467.69219158112656" y2="123.80223097682098" stroke="#555" stroke-width="1.5" marker-end="url(#arrow)" />
  <line x1="600" y1="86" x2="467.69219158112656" y2="123.80223097682098" stroke="#555" stroke-width="1.5" marker-end="url(#arrow)" />
  <line x1="600" y1="86" x2="752.2388599988374" y2="124.05971499970934" stroke="#555" stroke-width="1.5" marker-end="url(#arrow)" />
  <line x1="600" y1="86" x2="752.2388599988374" y2="124.05971499970934" stroke="#555" stroke-width="1.5" marker-end="url(#arrow)" />
  <line x1="600" y1="86" x2="1052.0300752944345" y2="125.30696306908126" stroke="#555" stroke-width="1.5" marker-end="url(#arrow)" />
  <line x1="600" y1="86" x2="1052.0300752944345" y2="125.30696306908126" stroke="#555" stroke-width="1.5" marker-end="url(#arrow)" />
  <line x1="600" y1="86" x2="1352.0110573653399" y2="125.5795293350179" stroke="#555" stroke-width="1.5" marker-end="url(#arrow)" />
  <line x1="600" y1="86" x2="1352.0110573653399" y2="125.5795293350179" stroke="#555" stroke-width="1.5" marker-end="url(#arrow)" />
  <line x1="600" y1="86" x2="1652.0056899011465" y2="125.69832792079798" stroke="#555" stroke-width="1.5" marker-end="url(#arrow)" />
  <line x1="600" y1="86" x2="1652.0056899011465" y2="125.69832792079798" stroke="#555" stroke-width="1.5" marker-end="url(#arrow)" />
  <line x1="1660" y1="182" x2="457.9956322934027" y2="221.7356815770776" stroke="#555" stroke-width="1.5" marker-end="url(#arrow)" />
  <line x1="1660" y1="182" x2="457.9956322934027" y2="221.7356815770776" stroke="#555" stroke-width="1.5" marker-end="url(#arrow)" />
  <line x1="450" y1="278" x2="450.0" y2="310.0" stroke="#555" stroke-width="1.5" marker-end="url(#arrow)" />
  <line x1="450" y1="278" x2="450.0" y2="310.0" stroke="#555" stroke-width="1.5" marker-end="url(#arrow)" />
  <g filter="url(#shadow)">
    <rect x="180" y="30" width="240" height="56" rx="8" fill="#dae8fc" stroke="#6c8ebf" stroke-width="1.5" />
    <text x="300" y="52" text-anchor="middle" font-size="13" font-weight="bold" fill="#1a1a1a">Trigger</text>
    <text x="300" y="70" text-anchor="middle" font-size="10" fill="#555">schedule, event, user</text>
  </g>
  <g filter="url(#shadow)">
    <rect x="480" y="30" width="240" height="56" rx="8" fill="#d5e8d4" stroke="#82b366" stroke-width="1.5" />
    <text x="600" y="52" text-anchor="middle" font-size="13" font-weight="bold" fill="#1a1a1a">AI Agent</text>
    <text x="600" y="70" text-anchor="middle" font-size="10" fill="#555">Claude / GPT-4o with tools</text>
  </g>
  <g filter="url(#shadow)">
    <rect x="40" y="126" width="240" height="56" rx="8" fill="#dae8fc" stroke="#6c8ebf" stroke-width="1.5" />
    <text x="160" y="148" text-anchor="middle" font-size="13" font-weight="bold" fill="#1a1a1a">execute_sql</text>
    <text x="160" y="166" text-anchor="middle" font-size="10" fill="#555">Snowflake / Databricks</text>
  </g>
  <g filter="url(#shadow)">
    <rect x="340" y="126" width="240" height="56" rx="8" fill="#dae8fc" stroke="#6c8ebf" stroke-width="1.5" />
    <text x="460" y="148" text-anchor="middle" font-size="13" font-weight="bold" fill="#1a1a1a">get_schema</text>
    <text x="460" y="166" text-anchor="middle" font-size="10" fill="#555">Unity Catalog</text>
  </g>
  <g filter="url(#shadow)">
    <rect x="640" y="126" width="240" height="56" rx="8" fill="#dae8fc" stroke="#6c8ebf" stroke-width="1.5" />
    <text x="760" y="148" text-anchor="middle" font-size="13" font-weight="bold" fill="#1a1a1a">profile_table</text>
    <text x="760" y="166" text-anchor="middle" font-size="10" fill="#555">data quality</text>
  </g>
  <g filter="url(#shadow)">
    <rect x="940" y="126" width="240" height="56" rx="8" fill="#dae8fc" stroke="#6c8ebf" stroke-width="1.5" />
    <text x="1060" y="148" text-anchor="middle" font-size="13" font-weight="bold" fill="#1a1a1a">trigger_pipeline</text>
    <text x="1060" y="166" text-anchor="middle" font-size="10" fill="#555">Databricks Workflows</text>
  </g>
  <g filter="url(#shadow)">
    <rect x="1240" y="126" width="240" height="56" rx="8" fill="#dae8fc" stroke="#6c8ebf" stroke-width="1.5" />
    <text x="1360" y="148" text-anchor="middle" font-size="13" font-weight="bold" fill="#1a1a1a">send_notification</text>
    <text x="1360" y="166" text-anchor="middle" font-size="10" fill="#555">Slack, PagerDuty</text>
  </g>
  <g filter="url(#shadow)">
    <rect x="1540" y="126" width="240" height="56" rx="8" fill="#fff2cc" stroke="#d6b656" stroke-width="1.5" />
    <text x="1660" y="148" text-anchor="middle" font-size="13" font-weight="bold" fill="#1a1a1a">Execution Plan</text>
    <text x="1660" y="166" text-anchor="middle" font-size="10" fill="#555">human-approved</text>
  </g>
  <g filter="url(#shadow)">
    <rect x="330" y="222" width="240" height="56" rx="8" fill="#e1d5e7" stroke="#9673a6" stroke-width="1.5" />
    <text x="450" y="255" text-anchor="middle" font-size="13" font-weight="bold" fill="#1a1a1a">Autonomous execution</text>
  </g>
  <g filter="url(#shadow)">
    <rect x="330" y="318" width="240" height="56" rx="8" fill="#f8cecc" stroke="#b85450" stroke-width="1.5" />
    <text x="450" y="340" text-anchor="middle" font-size="13" font-weight="bold" fill="#1a1a1a">Summary report</text>
    <text x="450" y="358" text-anchor="middle" font-size="10" fill="#555">to data team Slack</text>
  </g>
</svg>