<svg xmlns="http://www.w3.org/2000/svg" viewBox="0 0 1280 572" font-family="Segoe UI, Helvetica, Arial, sans-serif">
  <defs>
    <marker id="arrow" markerWidth="10" markerHeight="7" refX="10" refY="3.5" orient="auto">
      <polygon points="0 0, 10 3.5, 0 7" fill="#333" />
    </marker>
    <marker id="arrow-gray" markerWidth="10" markerHeight="7" refX="10" refY="3.5" orient="auto">
      <polygon points="0 0, 10 3.5, 0 7" fill="#999" />
    </marker>
    <filter id="shadow" x="-4%" y="-4%" width="108%" height="108%">
      <feDropShadow dx="1" dy="2" stdDeviation="2" flood-opacity="0.12" />
    </filter>
  </defs>
  <rect width="1280" height="572" fill="#fafafa" rx="8" />
  <rect x="25" y="98" width="270" height="389" rx="8" fill="#f0f4ff" stroke="#b0c4de" stroke-width="1" stroke-dasharray="6,3" />
  <text x="35" y="114" font-size="11" font-weight="bold" fill="#b0c4de">Bronze - Raw Unstructured</text>
  <rect x="325" y="146" width="570" height="245" rx="8" fill="#f0fff0" stroke="#90b090" stroke-width="1" stroke-dasharray="6,3" />
  <text x="335" y="162" font-size="11" font-weight="bold" fill="#90b090">Silver - Extracted + Structured</text>
  <rect x="625" y="242" width="570" height="197" rx="8" fill="#fffaf0" stroke="#d0b880" stroke-width="1" stroke-dasharray="6,3" />
  <text x="635" y="258" font-size="11" font-weight="bold" fill="#d0b880">Gold - Analytical</text>
  <line x1="280" y1="156" x2="335.76000847997454" y2="245.2160135679593" stroke="#555" stroke-width="1.5" marker-end="url(#arrow)" />
  <line x1="280" y1="156" x2="335.76000847997454" y2="245.2160135679593" stroke="#555" stroke-width="1.5" marker-end="url(#arrow)" />
  <line x1="280" y1="252" x2="332.0" y2="252.0" stroke="#555" stroke-width="1.5" marker-end="url(#arrow)" />
  <line x1="280" y1="252" x2="332.0" y2="252.0" stroke="#555" stroke-width="1.5" marker-end="url(#arrow)" />
  <line x1="280" y1="348" x2="332.0" y2="348.0" stroke="#555" stroke-width="1.5" marker-end="url(#arrow)" />
  <line x1="280" y1="348" x2="332.0" y2="348.0" stroke="#555" stroke-width="1.5" marker-end="url(#arrow)" />
  <line x1="280" y1="444" x2="337.6138000549124" y2="259.63583982428025" stroke="#555" stroke-width="1.5" marker-end="url(#arrow)" />
  <line x1="280" y1="444" x2="337.6138000549124" y2="259.63583982428025" stroke="#555" stroke-width="1.5" marker-end="url(#arrow)" />
  <line x1="580" y1="252" x2="633.7530495244557" y2="208.9975603804354" stroke="#555" stroke-width="1.5" marker-end="url(#arrow)" />
  <line x1="580" y1="252" x2="633.7530495244557" y2="208.9975603804354" stroke="#555" stroke-width="1.5" marker-end="url(#arrow)" />
  <line x1="580" y1="252" x2="633.7530495244557" y2="295.0024396195646" stroke="#555" stroke-width="1.5" marker-end="url(#arrow)" />
  <line x1="580" y1="252" x2="633.7530495244557" y2="295.0024396195646" stroke="#555" stroke-width="1.5" marker-end="url(#arrow)" />
  <line x1="580" y1="348" x2="633.7530495244557" y2="304.9975603804354" stroke="#555" stroke-width="1.5" marker-end="url(#arrow)" />
  <line x1="580" y1="348" x2="633.7530495244557" y2="304.9975603804354" stroke="#555" stroke-width="1.5" marker-end="url(#arrow)" />
  <line x1="880" y1="204" x2="935.7600084799745" y2="293.2160135679593" stroke="#555" stroke-width="1.5" marker-end="url(#arrow)" />
  <line x1="880" y1="204" x2="935.7600084799745" y2="293.2160135679593" stroke="#555" stroke-width="1.5" marker-end="url(#arrow)" />
  <line x1="580" y1="252" x2="636.9230769230769" y2="388.61538461538464" stroke="#555" stroke-width="1.5" marker-end="url(#arrow)" />
  <line x1="580" y1="252" x2="636.9230769230769" y2="388.61538461538464" stroke="#555" stroke-width="1.5" marker-end="url(#arrow)" />
  <g filter="url(#shadow)">
    <rect x="40" y="128" width="240" height="56" rx="8" fill="#dae8fc" stroke="#6c8ebf" stroke-width="1.5" />
    <text x="160" y="161" text-anchor="middle" font-size="13" font-weight="bold" fill="#1a1a1a">PDFs</text>
  </g>
  <g filter="url(#shadow)">
    <rect x="40" y="224" width="240" height="56" rx="8" fill="#dae8fc" stroke="#6c8ebf" stroke-width="1.5" />
    <text x="160" y="257" text-anchor="middle" font-size="13" font-weight="bold" fill="#1a1a1a">Images</text>
  </g>
  <g filter="url(#shadow)">
    <rect x="40" y="320" width="240" height="56" rx="8" fill="#dae8fc" stroke="#6c8ebf" stroke-width="1.5" />
    <text x="160" y="353" text-anchor="middle" font-size="13" font-weight="bold" fill="#1a1a1a">Audio</text>
  </g>
  <g filter="url(#shadow)">
    <rect x="40" y="416" width="240" height="56" rx="8" fill="#dae8fc" stroke="#6c8ebf" stroke-width="1.5" />
    <text x="160" y="449" text-anchor="middle" font-size="13" font-weight="bold" fill="#1a1a1a">Emails</text>
  </g>
  <g filter="url(#shadow)">
    <rect x="340" y="224" width="240" height="56" rx="8" fill="#d5e8d4" stroke="#82b366" stroke-width="1.5" />
    <text x="460" y="246" text-anchor="middle" font-size="13" font-weight="bold" fill="#1a1a1a">Parsed Text</text>
    <text x="460" y="264" text-anchor="middle" font-size="10" fill="#555">Delta Table</text>
  </g>
  <g filter="url(#shadow)">
    <rect x="640" y="176" width="240" height="56" rx="8" fill="#d5e8d4" stroke="#82b366" stroke-width="1.5" />
    <text x="760" y="198" text-anchor="middle" font-size="13" font-weight="bold" fill="#1a1a1a">LLM Extractions</text>
    <text x="760" y="216" text-anchor="middle" font-size="10" fill="#555">invoices, contracts, claims</text>
  </g>
  <g filter="url(#shadow)">
    <rect x="340" y="320" width="240" height="56" rx="8" fill="#d5e8d4" stroke="#82b366" stroke-width="1.5" />
    <text x="460" y="342" text-anchor="middle" font-size="13" font-weight="bold" fill="#1a1a1a">Transcripts</text>
    <text x="460" y="360" text-anchor="middle" font-size="10" fill="#555">call recordings</text>
  </g>
  <g filter="url(#shadow)">
    <rect x="640" y="272" width="240" height="56" rx="8" fill="#fff2cc" stroke="#d6b656" stroke-width="1.5" />
    <text x="760" y="294" text-anchor="middle" font-size="13" font-weight="bold" fill="#1a1a1a">Classified Documents</text>
    <text x="760" y="312" text-anchor="middle" font-size="10" fill="#555">category, sentiment, topics</text>
  </g>
  <g filter="url(#shadow)">
    <rect x="940" y="272" width="240" height="56" rx="8" fill="#fff2cc" stroke="#d6b656" stroke-width="1.5" />
    <text x="1060" y="294" text-anchor="middle" font-size="13" font-weight="bold" fill="#1a1a1a">Business Metrics</text>
    <text x="1060" y="312" text-anchor="middle" font-size="10" fill="#555">invoice totals, claim amounts</text>
  </g>
  <g filter="url(#shadow)">
    <rect x="640" y="368" width="240" height="56" rx="8" fill="#fff2cc" stroke="#d6b656" stroke-width="1.5" />
    <text x="760" y="390" text-anchor="middle" font-size="13" font-weight="bold" fill="#1a1a1a">Embedding Store</text>
    <text x="760" y="408" text-anchor="middle" font-size="10" fill="#555">Delta + pgvector</text>
  </g>
</svg>