<svg xmlns="http://www.w3.org/2000/svg" viewBox="0 0 1280 572" font-family="Segoe UI, Helvetica, Arial, sans-serif">
  <defs>
    <marker id="arrow" markerWidth="10" markerHeight="7" refX="10" refY="3.5" orient="auto">
      <polygon points="0 0, 10 3.5, 0 7" fill="#333" />
    </marker>
    <marker id="arrow-gray" markerWidth="10" markerHeight="7" refX="10" refY="3.5" orient="auto">
      <polygon points="0 0, 10 3.5, 0 7" fill="#999" />
    </marker>
    <filter id="shadow" x="-4%" y="-4%" width="108%" height="108%">
      <feDropShadow dx="1" dy="2" stdDeviation="2" flood-opacity="0.12" />
    </filter>
  </defs>
  <rect width="1280" height="572" fill="#fafafa" rx="8" />
  <rect x="25" y="98" width="870" height="197" rx="8" fill="#f0f4ff" stroke="#b0c4de" stroke-width="1" stroke-dasharray="6,3" />
  <text x="35" y="114" font-size="11" font-weight="bold" fill="#b0c4de">Indexing</text>
  <rect x="25" y="194" width="1170" height="293" rx="8" fill="#f0fff0" stroke="#90b090" stroke-width="1" stroke-dasharray="6,3" />
  <text x="35" y="210" font-size="11" font-weight="bold" fill="#90b090">Query</text>
  <line x1="280" y1="252" x2="332.0" y2="252.0" stroke="#555" stroke-width="1.5" marker-end="url(#arrow)" />
  <line x1="280" y1="252" x2="332.0" y2="252.0" stroke="#555" stroke-width="1.5" marker-end="url(#arrow)" />
  <line x1="580" y1="252" x2="632.0" y2="252.0" stroke="#555" stroke-width="1.5" marker-end="url(#arrow)" />
  <line x1="580" y1="252" x2="632.0" y2="252.0" stroke="#555" stroke-width="1.5" marker-end="url(#arrow)" />
  <line x1="280" y1="444" x2="335.76000847997454" y2="354.7839864320407" stroke="#555" stroke-width="1.5" marker-end="url(#arrow)" />
  <line x1="280" y1="444" x2="335.76000847997454" y2="354.7839864320407" stroke="#555" stroke-width="1.5" marker-end="url(#arrow)" />
  <line x1="580" y1="348" x2="632.0" y2="348.0" stroke="#555" stroke-width="1.5" marker-end="url(#arrow)" />
  <line x1="580" y1="348" x2="632.0" y2="348.0" stroke="#555" stroke-width="1.5" marker-end="url(#arrow)" />
  <line x1="880" y1="252" x2="647.4278135270821" y2="345.0288745891672" stroke="#555" stroke-width="1.5" marker-end="url(#arrow)" />
  <line x1="880" y1="252" x2="647.4278135270821" y2="345.0288745891672" stroke="#555" stroke-width="1.5" marker-end="url(#arrow)" />
  <line x1="880" y1="348" x2="933.7530495244557" y2="304.9975603804354" stroke="#555" stroke-width="1.5" marker-end="url(#arrow)" />
  <line x1="880" y1="348" x2="933.7530495244557" y2="304.9975603804354" stroke="#555" stroke-width="1.5" marker-end="url(#arrow)" />
  <g filter="url(#shadow)">
    <rect x="40" y="128" width="240" height="56" rx="8" fill="#dae8fc" stroke="#6c8ebf" stroke-width="1.5" />
    <text x="160" y="161" text-anchor="middle" font-size="13" font-weight="bold" fill="#1a1a1a">Text / Image / Audio</text>
  </g>
  <g filter="url(#shadow)">
    <rect x="40" y="224" width="240" height="56" rx="8" fill="#dae8fc" stroke="#6c8ebf" stroke-width="1.5" />
    <text x="160" y="257" text-anchor="middle" font-size="13" font-weight="bold" fill="#1a1a1a">Embedding Model</text>
  </g>
  <g filter="url(#shadow)">
    <rect x="340" y="224" width="240" height="56" rx="8" fill="#dae8fc" stroke="#6c8ebf" stroke-width="1.5" />
    <text x="460" y="246" text-anchor="middle" font-size="13" font-weight="bold" fill="#1a1a1a">Vector</text>
    <text x="460" y="264" text-anchor="middle" font-size="10" fill="#555">1536 float32 values</text>
  </g>
  <g filter="url(#shadow)">
    <rect x="640" y="224" width="240" height="56" rx="8" fill="#d5e8d4" stroke="#82b366" stroke-width="1.5" />
    <text x="760" y="246" text-anchor="middle" font-size="13" font-weight="bold" fill="#1a1a1a">ANN Index</text>
    <text x="760" y="264" text-anchor="middle" font-size="10" fill="#555">HNSW, IVF, DiskANN</text>
  </g>
  <g filter="url(#shadow)">
    <rect x="40" y="320" width="240" height="56" rx="8" fill="#d5e8d4" stroke="#82b366" stroke-width="1.5" />
    <text x="160" y="353" text-anchor="middle" font-size="13" font-weight="bold" fill="#1a1a1a">Query Text</text>
  </g>
  <g filter="url(#shadow)">
    <rect x="40" y="416" width="240" height="56" rx="8" fill="#d5e8d4" stroke="#82b366" stroke-width="1.5" />
    <text x="160" y="449" text-anchor="middle" font-size="13" font-weight="bold" fill="#1a1a1a">Embed Query</text>
  </g>
  <g filter="url(#shadow)">
    <rect x="340" y="320" width="240" height="56" rx="8" fill="#d5e8d4" stroke="#82b366" stroke-width="1.5" />
    <text x="460" y="353" text-anchor="middle" font-size="13" font-weight="bold" fill="#1a1a1a">Query Vector</text>
  </g>
  <g filter="url(#shadow)">
    <rect x="640" y="320" width="240" height="56" rx="8" fill="#d5e8d4" stroke="#82b366" stroke-width="1.5" />
    <text x="760" y="342" text-anchor="middle" font-size="13" font-weight="bold" fill="#1a1a1a">ANN Search</text>
    <text x="760" y="360" text-anchor="middle" font-size="10" fill="#555">cosine similarity</text>
  </g>
  <g filter="url(#shadow)">
    <rect x="940" y="272" width="240" height="56" rx="8" fill="#d5e8d4" stroke="#82b366" stroke-width="1.5" />
    <text x="1060" y="294" text-anchor="middle" font-size="13" font-weight="bold" fill="#1a1a1a">Top-K Results</text>
    <text x="1060" y="312" text-anchor="middle" font-size="10" fill="#555">+ metadata + score</text>
  </g>
</svg>