<svg xmlns="http://www.w3.org/2000/svg" viewBox="0 0 980 474" font-family="Segoe UI, Helvetica, Arial, sans-serif">
  <defs>
    <marker id="arrow" markerWidth="10" markerHeight="7" refX="10" refY="3.5" orient="auto">
      <polygon points="0 0, 10 3.5, 0 7" fill="#333" />
    </marker>
    <marker id="arrow-gray" markerWidth="10" markerHeight="7" refX="10" refY="3.5" orient="auto">
      <polygon points="0 0, 10 3.5, 0 7" fill="#999" />
    </marker>
    <filter id="shadow" x="-4%" y="-4%" width="108%" height="108%">
      <feDropShadow dx="1" dy="2" stdDeviation="2" flood-opacity="0.12" />
    </filter>
  </defs>
  <rect width="980" height="474" fill="#fafafa" rx="8" />
  <rect x="25" y="0" width="570" height="197" rx="8" fill="#f0f4ff" stroke="#b0c4de" stroke-width="1" stroke-dasharray="6,3" />
  <text x="35" y="16" font-size="11" font-weight="bold" fill="#b0c4de">Development</text>
  <rect x="165" y="0" width="730" height="389" rx="8" fill="#f0fff0" stroke="#90b090" stroke-width="1" stroke-dasharray="6,3" />
  <text x="175" y="16" font-size="11" font-weight="bold" fill="#90b090">Production</text>
  <line x1="460" y1="86" x2="307.76114000116263" y2="124.05971499970934" stroke="#555" stroke-width="1.5" marker-end="url(#arrow)" />
  <line x1="460" y1="86" x2="307.76114000116263" y2="124.05971499970934" stroke="#555" stroke-width="1.5" marker-end="url(#arrow)" />
  <line x1="760" y1="86" x2="607.7611400011626" y2="124.05971499970934" stroke="#555" stroke-width="1.5" marker-end="url(#arrow)" />
  <line x1="760" y1="86" x2="607.7611400011626" y2="124.05971499970934" stroke="#555" stroke-width="1.5" marker-end="url(#arrow)" />
  <line x1="600" y1="182" x2="600.0" y2="214.0" stroke="#555" stroke-width="1.5" marker-end="url(#arrow)" />
  <line x1="600" y1="182" x2="600.0" y2="214.0" stroke="#555" stroke-width="1.5" marker-end="url(#arrow)" />
  <line x1="600" y1="278" x2="457.72987951680994" y2="315.9386987955173" stroke="#555" stroke-width="1.5" marker-end="url(#arrow)" />
  <line x1="600" y1="278" x2="457.72987951680994" y2="315.9386987955173" stroke="#555" stroke-width="1.5" marker-end="url(#arrow)" />
  <line x1="300" y1="182" x2="300.0" y2="214.0" stroke="#555" stroke-width="1.5" marker-end="url(#arrow)" />
  <line x1="300" y1="182" x2="300.0" y2="214.0" stroke="#555" stroke-width="1.5" marker-end="url(#arrow)" />
  <g filter="url(#shadow)">
    <rect x="40" y="30" width="240" height="56" rx="8" fill="#dae8fc" stroke="#6c8ebf" stroke-width="1.5" />
    <text x="160" y="63" text-anchor="middle" font-size="13" font-weight="bold" fill="#1a1a1a">Build RAG Pipeline</text>
  </g>
  <g filter="url(#shadow)">
    <rect x="340" y="30" width="240" height="56" rx="8" fill="#dae8fc" stroke="#6c8ebf" stroke-width="1.5" />
    <text x="460" y="52" text-anchor="middle" font-size="13" font-weight="bold" fill="#1a1a1a">Offline Evaluation</text>
    <text x="460" y="70" text-anchor="middle" font-size="10" fill="#555">benchmark dataset</text>
  </g>
  <g filter="url(#shadow)">
    <rect x="180" y="126" width="240" height="56" rx="8" fill="#dae8fc" stroke="#6c8ebf" stroke-width="1.5" />
    <text x="300" y="148" text-anchor="middle" font-size="13" font-weight="bold" fill="#1a1a1a">Iterate on chunking</text>
    <text x="300" y="166" text-anchor="middle" font-size="10" fill="#555">retrieval, prompts</text>
  </g>
  <g filter="url(#shadow)">
    <rect x="180" y="222" width="240" height="56" rx="8" fill="#d5e8d4" stroke="#82b366" stroke-width="1.5" />
    <text x="300" y="255" text-anchor="middle" font-size="13" font-weight="bold" fill="#1a1a1a">Deploy</text>
  </g>
  <g filter="url(#shadow)">
    <rect x="640" y="30" width="240" height="56" rx="8" fill="#d5e8d4" stroke="#82b366" stroke-width="1.5" />
    <text x="760" y="52" text-anchor="middle" font-size="13" font-weight="bold" fill="#1a1a1a">Log all requests</text>
    <text x="760" y="70" text-anchor="middle" font-size="10" fill="#555">+ responses + retrievals</text>
  </g>
  <g filter="url(#shadow)">
    <rect x="480" y="126" width="240" height="56" rx="8" fill="#d5e8d4" stroke="#82b366" stroke-width="1.5" />
    <text x="600" y="148" text-anchor="middle" font-size="13" font-weight="bold" fill="#1a1a1a">Online Monitoring</text>
    <text x="600" y="166" text-anchor="middle" font-size="10" fill="#555">latency, cost, quality signals</text>
  </g>
  <g filter="url(#shadow)">
    <rect x="480" y="222" width="240" height="56" rx="8" fill="#d5e8d4" stroke="#82b366" stroke-width="1.5" />
    <text x="600" y="255" text-anchor="middle" font-size="13" font-weight="bold" fill="#1a1a1a">Alert on degradation</text>
  </g>
  <g filter="url(#shadow)">
    <rect x="330" y="318" width="240" height="56" rx="8" fill="#d5e8d4" stroke="#82b366" stroke-width="1.5" />
    <text x="450" y="351" text-anchor="middle" font-size="13" font-weight="bold" fill="#1a1a1a">Retune or rollback</text>
  </g>
</svg>