<svg xmlns="http://www.w3.org/2000/svg" viewBox="0 0 2480 378" font-family="Segoe UI, Helvetica, Arial, sans-serif">
  <defs>
    <marker id="arrow" markerWidth="10" markerHeight="7" refX="10" refY="3.5" orient="auto">
      <polygon points="0 0, 10 3.5, 0 7" fill="#333" />
    </marker>
    <marker id="arrow-gray" markerWidth="10" markerHeight="7" refX="10" refY="3.5" orient="auto">
      <polygon points="0 0, 10 3.5, 0 7" fill="#999" />
    </marker>
    <filter id="shadow" x="-4%" y="-4%" width="108%" height="108%">
      <feDropShadow dx="1" dy="2" stdDeviation="2" flood-opacity="0.12" />
    </filter>
  </defs>
  <rect width="2480" height="378" fill="#fafafa" rx="8" />
  <rect x="25" y="0" width="870" height="101" rx="8" fill="#f0f4ff" stroke="#b0c4de" stroke-width="1" stroke-dasharray="6,3" />
  <text x="35" y="16" font-size="11" font-weight="bold" fill="#b0c4de">Sources</text>
  <rect x="25" y="0" width="1470" height="293" rx="8" fill="#f0fff0" stroke="#90b090" stroke-width="1" stroke-dasharray="6,3" />
  <text x="35" y="16" font-size="11" font-weight="bold" fill="#90b090">Indexing Pipeline - Databricks</text>
  <rect x="465" y="0" width="1630" height="293" rx="8" fill="#fffaf0" stroke="#d0b880" stroke-width="1" stroke-dasharray="6,3" />
  <text x="475" y="16" font-size="11" font-weight="bold" fill="#d0b880">Query Platform</text>
  <rect x="1525" y="0" width="870" height="197" rx="8" fill="#f8f0ff" stroke="#b090c0" stroke-width="1" stroke-dasharray="6,3" />
  <text x="1535" y="16" font-size="11" font-weight="bold" fill="#b090c0">Observability</text>
  <line x1="160" y1="86" x2="160.0" y2="118.0" stroke="#555" stroke-width="1.5" marker-end="url(#arrow)" />
  <line x1="160" y1="86" x2="160.0" y2="118.0" stroke="#555" stroke-width="1.5" marker-end="url(#arrow)" />
  <line x1="460" y1="86" x2="167.92982320546108" y2="124.94269023927185" stroke="#555" stroke-width="1.5" marker-end="url(#arrow)" />
  <line x1="460" y1="86" x2="167.92982320546108" y2="124.94269023927185" stroke="#555" stroke-width="1.5" marker-end="url(#arrow)" />
  <line x1="760" y1="86" x2="167.98228126285287" y2="125.46784791580981" stroke="#555" stroke-width="1.5" marker-end="url(#arrow)" />
  <line x1="760" y1="86" x2="167.98228126285287" y2="125.46784791580981" stroke="#555" stroke-width="1.5" marker-end="url(#arrow)" />
  <line x1="160" y1="182" x2="292.30780841887344" y2="219.80223097682097" stroke="#555" stroke-width="1.5" marker-end="url(#arrow)" />
  <line x1="1060" y1="86" x2="467.9822812628529" y2="125.46784791580981" stroke="#555" stroke-width="1.5" marker-end="url(#arrow)" />
  <line x1="160" y1="182" x2="292.30780841887344" y2="219.80223097682097" stroke="#555" stroke-width="1.5" marker-end="url(#arrow)" />
  <line x1="1060" y1="86" x2="467.9822812628529" y2="125.46784791580981" stroke="#555" stroke-width="1.5" marker-end="url(#arrow)" />
  <line x1="1360" y1="86" x2="767.9822812628529" y2="125.46784791580981" stroke="#555" stroke-width="1.5" marker-end="url(#arrow)" />
  <line x1="1360" y1="86" x2="767.9822812628529" y2="125.46784791580981" stroke="#555" stroke-width="1.5" marker-end="url(#arrow)" />
  <line x1="1360" y1="86" x2="1067.9298232054612" y2="124.94269023927185" stroke="#555" stroke-width="1.5" marker-end="url(#arrow)" />
  <line x1="1360" y1="86" x2="1067.9298232054612" y2="124.94269023927185" stroke="#555" stroke-width="1.5" marker-end="url(#arrow)" />
  <line x1="1660" y1="86" x2="1367.9298232054612" y2="124.94269023927185" stroke="#555" stroke-width="1.5" marker-end="url(#arrow)" />
  <line x1="760" y1="182" x2="607.7611400011626" y2="220.05971499970934" stroke="#555" stroke-width="1.5" marker-end="url(#arrow)" />
  <line x1="1660" y1="86" x2="1367.9298232054612" y2="124.94269023927185" stroke="#555" stroke-width="1.5" marker-end="url(#arrow)" />
  <line x1="760" y1="182" x2="607.7611400011626" y2="220.05971499970934" stroke="#555" stroke-width="1.5" marker-end="url(#arrow)" />
  <line x1="1660" y1="86" x2="1660.0" y2="118.0" stroke="#555" stroke-width="1.5" marker-end="url(#arrow)" />
  <line x1="2260" y1="86" x2="1967.9298232054612" y2="124.94269023927185" stroke="#555" stroke-width="1.5" marker-end="url(#arrow)" />
  <line x1="1660" y1="86" x2="1660.0" y2="118.0" stroke="#555" stroke-width="1.5" marker-end="url(#arrow)" />
  <line x1="2260" y1="86" x2="1967.9298232054612" y2="124.94269023927185" stroke="#555" stroke-width="1.5" marker-end="url(#arrow)" />
  <g filter="url(#shadow)">
    <rect x="40" y="30" width="240" height="56" rx="8" fill="#dae8fc" stroke="#6c8ebf" stroke-width="1.5" />
    <text x="160" y="63" text-anchor="middle" font-size="13" font-weight="bold" fill="#1a1a1a">Confluence</text>
  </g>
  <g filter="url(#shadow)">
    <rect x="340" y="30" width="240" height="56" rx="8" fill="#dae8fc" stroke="#6c8ebf" stroke-width="1.5" />
    <text x="460" y="63" text-anchor="middle" font-size="13" font-weight="bold" fill="#1a1a1a">S3/ADLS</text>
  </g>
  <g filter="url(#shadow)">
    <rect x="640" y="30" width="240" height="56" rx="8" fill="#dae8fc" stroke="#6c8ebf" stroke-width="1.5" />
    <text x="760" y="63" text-anchor="middle" font-size="13" font-weight="bold" fill="#1a1a1a">(PostgreSQL)</text>
  </g>
  <g filter="url(#shadow)">
    <rect x="40" y="126" width="240" height="56" rx="8" fill="#d5e8d4" stroke="#82b366" stroke-width="1.5" />
    <text x="160" y="148" text-anchor="middle" font-size="13" font-weight="bold" fill="#1a1a1a">Auto Loader</text>
    <text x="160" y="166" text-anchor="middle" font-size="10" fill="#555">detect changes</text>
  </g>
  <g filter="url(#shadow)">
    <rect x="180" y="222" width="240" height="56" rx="8" fill="#d5e8d4" stroke="#82b366" stroke-width="1.5" />
    <text x="300" y="244" text-anchor="middle" font-size="13" font-weight="bold" fill="#1a1a1a">Document Parser</text>
    <text x="300" y="262" text-anchor="middle" font-size="10" fill="#555">Unstructured.io</text>
  </g>
  <g filter="url(#shadow)">
    <rect x="940" y="30" width="240" height="56" rx="8" fill="#d5e8d4" stroke="#82b366" stroke-width="1.5" />
    <text x="1060" y="52" text-anchor="middle" font-size="13" font-weight="bold" fill="#1a1a1a">PII Scrubber</text>
    <text x="1060" y="70" text-anchor="middle" font-size="10" fill="#555">Presidio</text>
  </g>
  <g filter="url(#shadow)">
    <rect x="340" y="126" width="240" height="56" rx="8" fill="#d5e8d4" stroke="#82b366" stroke-width="1.5" />
    <text x="460" y="148" text-anchor="middle" font-size="13" font-weight="bold" fill="#1a1a1a">Chunker</text>
    <text x="460" y="166" text-anchor="middle" font-size="10" fill="#555">semantic + parent-child</text>
  </g>
  <g filter="url(#shadow)">
    <rect x="1240" y="30" width="240" height="56" rx="8" fill="#d5e8d4" stroke="#82b366" stroke-width="1.5" />
    <text x="1360" y="52" text-anchor="middle" font-size="13" font-weight="bold" fill="#1a1a1a">Embedding Worker</text>
    <text x="1360" y="70" text-anchor="middle" font-size="10" fill="#555">text-embedding-3-small</text>
  </g>
  <g filter="url(#shadow)">
    <rect x="940" y="126" width="240" height="56" rx="8" fill="#d5e8d4" stroke="#82b366" stroke-width="1.5" />
    <text x="1060" y="148" text-anchor="middle" font-size="13" font-weight="bold" fill="#1a1a1a">Document Index</text>
    <text x="1060" y="166" text-anchor="middle" font-size="10" fill="#555">Delta Lake</text>
  </g>
  <g filter="url(#shadow)">
    <rect x="1540" y="30" width="240" height="56" rx="8" fill="#fff2cc" stroke="#d6b656" stroke-width="1.5" />
    <text x="1660" y="52" text-anchor="middle" font-size="13" font-weight="bold" fill="#1a1a1a">FastAPI</text>
    <text x="1660" y="70" text-anchor="middle" font-size="10" fill="#555">RAG endpoint</text>
  </g>
  <g filter="url(#shadow)">
    <rect x="1240" y="126" width="240" height="56" rx="8" fill="#fff2cc" stroke="#d6b656" stroke-width="1.5" />
    <text x="1360" y="148" text-anchor="middle" font-size="13" font-weight="bold" fill="#1a1a1a">Guardrails</text>
    <text x="1360" y="166" text-anchor="middle" font-size="10" fill="#555">input + output</text>
  </g>
  <g filter="url(#shadow)">
    <rect x="640" y="126" width="240" height="56" rx="8" fill="#fff2cc" stroke="#d6b656" stroke-width="1.5" />
    <text x="760" y="148" text-anchor="middle" font-size="13" font-weight="bold" fill="#1a1a1a">Pinecone</text>
    <text x="760" y="166" text-anchor="middle" font-size="10" fill="#555">vector store</text>
  </g>
  <g filter="url(#shadow)">
    <rect x="480" y="222" width="240" height="56" rx="8" fill="#fff2cc" stroke="#d6b656" stroke-width="1.5" />
    <text x="600" y="244" text-anchor="middle" font-size="13" font-weight="bold" fill="#1a1a1a">LLM Gateway</text>
    <text x="600" y="262" text-anchor="middle" font-size="10" fill="#555">rate limit, fallback</text>
  </g>
  <g filter="url(#shadow)">
    <rect x="1840" y="30" width="240" height="56" rx="8" fill="#fff2cc" stroke="#d6b656" stroke-width="1.5" />
    <text x="1960" y="63" text-anchor="middle" font-size="13" font-weight="bold" fill="#1a1a1a">GPT-4o / Claude</text>
  </g>
  <g filter="url(#shadow)">
    <rect x="1540" y="126" width="240" height="56" rx="8" fill="#e1d5e7" stroke="#9673a6" stroke-width="1.5" />
    <text x="1660" y="148" text-anchor="middle" font-size="13" font-weight="bold" fill="#1a1a1a">Langfuse</text>
    <text x="1660" y="166" text-anchor="middle" font-size="10" fill="#555">tracing</text>
  </g>
  <g filter="url(#shadow)">
    <rect x="2140" y="30" width="240" height="56" rx="8" fill="#e1d5e7" stroke="#9673a6" stroke-width="1.5" />
    <text x="2260" y="52" text-anchor="middle" font-size="13" font-weight="bold" fill="#1a1a1a">Query Lineage</text>
    <text x="2260" y="70" text-anchor="middle" font-size="10" fill="#555">Delta Table</text>
  </g>
  <g filter="url(#shadow)">
    <rect x="1840" y="126" width="240" height="56" rx="8" fill="#e1d5e7" stroke="#9673a6" stroke-width="1.5" />
    <text x="1960" y="148" text-anchor="middle" font-size="13" font-weight="bold" fill="#1a1a1a">Quality Dashboard</text>
    <text x="1960" y="166" text-anchor="middle" font-size="10" fill="#555">Databricks SQL</text>
  </g>
</svg>