<svg xmlns="http://www.w3.org/2000/svg" viewBox="0 0 1580 572" font-family="Segoe UI, Helvetica, Arial, sans-serif">
  <defs>
    <marker id="arrow" markerWidth="10" markerHeight="7" refX="10" refY="3.5" orient="auto">
      <polygon points="0 0, 10 3.5, 0 7" fill="#333" />
    </marker>
    <marker id="arrow-gray" markerWidth="10" markerHeight="7" refX="10" refY="3.5" orient="auto">
      <polygon points="0 0, 10 3.5, 0 7" fill="#999" />
    </marker>
    <filter id="shadow" x="-4%" y="-4%" width="108%" height="108%">
      <feDropShadow dx="1" dy="2" stdDeviation="2" flood-opacity="0.12" />
    </filter>
  </defs>
  <rect width="1580" height="572" fill="#fafafa" rx="8" />
  <rect x="25" y="98" width="870" height="197" rx="8" fill="#f0f4ff" stroke="#b0c4de" stroke-width="1" stroke-dasharray="6,3" />
  <text x="35" y="114" font-size="11" font-weight="bold" fill="#b0c4de">Indexing Pipeline - offline</text>
  <rect x="25" y="194" width="1470" height="293" rx="8" fill="#f0fff0" stroke="#90b090" stroke-width="1" stroke-dasharray="6,3" />
  <text x="35" y="210" font-size="11" font-weight="bold" fill="#90b090">Query Pipeline - online</text>
  <line x1="280" y1="252" x2="332.0" y2="252.0" stroke="#555" stroke-width="1.5" marker-end="url(#arrow)" />
  <line x1="280" y1="252" x2="332.0" y2="252.0" stroke="#555" stroke-width="1.5" marker-end="url(#arrow)" />
  <line x1="580" y1="252" x2="632.0" y2="252.0" stroke="#555" stroke-width="1.5" marker-end="url(#arrow)" />
  <line x1="580" y1="252" x2="632.0" y2="252.0" stroke="#555" stroke-width="1.5" marker-end="url(#arrow)" />
  <line x1="280" y1="444" x2="335.76000847997454" y2="354.7839864320407" stroke="#555" stroke-width="1.5" marker-end="url(#arrow)" />
  <line x1="280" y1="444" x2="335.76000847997454" y2="354.7839864320407" stroke="#555" stroke-width="1.5" marker-end="url(#arrow)" />
  <line x1="880" y1="252" x2="347.8765000622873" y2="346.59973332226" stroke="#555" stroke-width="1.5" marker-end="url(#arrow)" />
  <line x1="880" y1="252" x2="347.8765000622873" y2="346.59973332226" stroke="#555" stroke-width="1.5" marker-end="url(#arrow)" />
  <line x1="580" y1="348" x2="632.0" y2="348.0" stroke="#555" stroke-width="1.5" marker-end="url(#arrow)" />
  <line x1="580" y1="348" x2="632.0" y2="348.0" stroke="#555" stroke-width="1.5" marker-end="url(#arrow)" />
  <line x1="880" y1="348" x2="933.7530495244557" y2="304.9975603804354" stroke="#555" stroke-width="1.5" marker-end="url(#arrow)" />
  <line x1="880" y1="348" x2="933.7530495244557" y2="304.9975603804354" stroke="#555" stroke-width="1.5" marker-end="url(#arrow)" />
  <line x1="1180" y1="300" x2="1232.0" y2="300.0" stroke="#555" stroke-width="1.5" marker-end="url(#arrow)" />
  <line x1="1180" y1="300" x2="1232.0" y2="300.0" stroke="#555" stroke-width="1.5" marker-end="url(#arrow)" />
  <g filter="url(#shadow)">
    <rect x="40" y="128" width="240" height="56" rx="8" fill="#dae8fc" stroke="#6c8ebf" stroke-width="1.5" />
    <text x="160" y="150" text-anchor="middle" font-size="13" font-weight="bold" fill="#1a1a1a">Raw Documents</text>
    <text x="160" y="168" text-anchor="middle" font-size="10" fill="#555">PDFs, Confluence, Slack</text>
  </g>
  <g filter="url(#shadow)">
    <rect x="40" y="224" width="240" height="56" rx="8" fill="#dae8fc" stroke="#6c8ebf" stroke-width="1.5" />
    <text x="160" y="257" text-anchor="middle" font-size="13" font-weight="bold" fill="#1a1a1a">Chunking</text>
  </g>
  <g filter="url(#shadow)">
    <rect x="340" y="224" width="240" height="56" rx="8" fill="#dae8fc" stroke="#6c8ebf" stroke-width="1.5" />
    <text x="460" y="246" text-anchor="middle" font-size="13" font-weight="bold" fill="#1a1a1a">Embedding Model</text>
    <text x="460" y="264" text-anchor="middle" font-size="10" fill="#555">text-embedding-3-small</text>
  </g>
  <g filter="url(#shadow)">
    <rect x="640" y="224" width="240" height="56" rx="8" fill="#d5e8d4" stroke="#82b366" stroke-width="1.5" />
    <text x="760" y="246" text-anchor="middle" font-size="13" font-weight="bold" fill="#1a1a1a">Vector Store</text>
    <text x="760" y="264" text-anchor="middle" font-size="10" fill="#555">Pinecone, Weaviate, pgvector</text>
  </g>
  <g filter="url(#shadow)">
    <rect x="40" y="320" width="240" height="56" rx="8" fill="#d5e8d4" stroke="#82b366" stroke-width="1.5" />
    <text x="160" y="353" text-anchor="middle" font-size="13" font-weight="bold" fill="#1a1a1a">User Question</text>
  </g>
  <g filter="url(#shadow)">
    <rect x="40" y="416" width="240" height="56" rx="8" fill="#d5e8d4" stroke="#82b366" stroke-width="1.5" />
    <text x="160" y="449" text-anchor="middle" font-size="13" font-weight="bold" fill="#1a1a1a">Embed Question</text>
  </g>
  <g filter="url(#shadow)">
    <rect x="340" y="320" width="240" height="56" rx="8" fill="#d5e8d4" stroke="#82b366" stroke-width="1.5" />
    <text x="460" y="342" text-anchor="middle" font-size="13" font-weight="bold" fill="#1a1a1a">Retrieve Top-K</text>
    <text x="460" y="360" text-anchor="middle" font-size="10" fill="#555">similarity search</text>
  </g>
  <g filter="url(#shadow)">
    <rect x="640" y="320" width="240" height="56" rx="8" fill="#d5e8d4" stroke="#82b366" stroke-width="1.5" />
    <text x="760" y="342" text-anchor="middle" font-size="13" font-weight="bold" fill="#1a1a1a">Build Context</text>
    <text x="760" y="360" text-anchor="middle" font-size="10" fill="#555">question + chunks</text>
  </g>
  <g filter="url(#shadow)">
    <rect x="940" y="272" width="240" height="56" rx="8" fill="#d5e8d4" stroke="#82b366" stroke-width="1.5" />
    <text x="1060" y="294" text-anchor="middle" font-size="13" font-weight="bold" fill="#1a1a1a">LLM</text>
    <text x="1060" y="312" text-anchor="middle" font-size="10" fill="#555">GPT-4, Claude, Llama</text>
  </g>
  <g filter="url(#shadow)">
    <rect x="1240" y="272" width="240" height="56" rx="8" fill="#d5e8d4" stroke="#82b366" stroke-width="1.5" />
    <text x="1360" y="305" text-anchor="middle" font-size="13" font-weight="bold" fill="#1a1a1a">Answer</text>
  </g>
</svg>